<?xml version="1.0" encoding="utf-8" standalone="yes"?>
<!DOCTYPE svg PUBLIC "-//W3C//DTD SVG 1.1//EN" "http://www.w3.org/Graphics/SVG/1.1/DTD/svg11.dtd">
<svg xmlns:xlink="http://www.w3.org/1999/xlink" viewBox="0 0 160 160" class="barcode-canvas" version="1.1" style="shape-rendering:crispEdges;" xmlns="http://www.w3.org/2000/svg">
  <g text-rendering="geometricPrecision">
    <rect x="0" y="0" width="160" height="160" fill="#ffffff" />
    <rect x="7" y="7" width="49" height="7" fill="#000000" />
    <rect x="77" y="7" width="7" height="7" fill="#000000" />
    <rect x="91" y="7" width="7" height="7" fill="#000000" />
    <rect x="105" y="7" width="49" height="7" fill="#000000" />
    <rect x="7" y="14" width="7" height="7" fill="#000000" />
    <rect x="49" y="14" width="7" height="7" fill="#000000" />
    <rect x="91" y="14" width="7" height="7" fill="#000000" />
    <rect x="105" y="14" width="7" height="7" fill="#000000" />
    <rect x="147" y="14" width="7" height="7" fill="#000000" />
    <rect x="7" y="21" width="7" height="7" fill="#000000" />
    <rect x="21" y="21" width="21" height="7" fill="#000000" />
    <rect x="49" y="21" width="7" height="7" fill="#000000" />
    <rect x="63" y="21" width="7" height="7" fill="#000000" />
    <rect x="77" y="21" width="7" height="7" fill="#000000" />
    <rect x="105" y="21" width="7" height="7" fill="#000000" />
    <rect x="119" y="21" width="21" height="7" fill="#000000" />
    <rect x="147" y="21" width="7" height="7" fill="#000000" />
    <rect x="7" y="28" width="7" height="7" fill="#000000" />
    <rect x="21" y="28" width="21" height="7" fill="#000000" />
    <rect x="49" y="28" width="7" height="7" fill="#000000" />
    <rect x="91" y="28" width="7" height="7" fill="#000000" />
    <rect x="105" y="28" width="7" height="7" fill="#000000" />
    <rect x="119" y="28" width="21" height="7" fill="#000000" />
    <rect x="147" y="28" width="7" height="7" fill="#000000" />
    <rect x="7" y="35" width="7" height="7" fill="#000000" />
    <rect x="21" y="35" width="21" height="7" fill="#000000" />
    <rect x="49" y="35" width="7" height="7" fill="#000000" />
    <rect x="70" y="35" width="7" height="7" fill="#000000" />
    <rect x="84" y="35" width="14" height="7" fill="#000000" />
    <rect x="105" y="35" width="7" height="7" fill="#000000" />
    <rect x="119" y="35" width="21" height="7" fill="#000000" />
    <rect x="147" y="35" width="7" height="7" fill="#000000" />
    <rect x="7" y="42" width="7" height="7" fill="#000000" />
    <rect x="49" y="42" width="7" height="7" fill="#000000" />
    <rect x="70" y="42" width="21" height="7" fill="#000000" />
    <rect x="105" y="42" width="7" height="7" fill="#000000" />
    <rect x="147" y="42" width="7" height="7" fill="#000000" />
    <rect x="7" y="49" width="49" height="7" fill="#000000" />
    <rect x="63" y="49" width="7" height="7" fill="#000000" />
    <rect x="77" y="49" width="7" height="7" fill="#000000" />
    <rect x="91" y="49" width="7" height="7" fill="#000000" />
    <rect x="105" y="49" width="49" height="7" fill="#000000" />
    <rect x="63" y="56" width="7" height="7" fill="#000000" />
    <rect x="77" y="56" width="7" height="7" fill="#000000" />
    <rect x="7" y="63" width="21" height="7" fill="#000000" />
    <rect x="35" y="63" width="35" height="7" fill="#000000" />
    <rect x="77" y="63" width="7" height="7" fill="#000000" />
    <rect x="91" y="63" width="21" height="7" fill="#000000" />
    <rect x="133" y="63" width="7" height="7" fill="#000000" />
    <rect x="21" y="70" width="7" height="7" fill="#000000" />
    <rect x="42" y="70" width="7" height="7" fill="#000000" />
    <rect x="56" y="70" width="7" height="7" fill="#000000" />
    <rect x="84" y="70" width="7" height="7" fill="#000000" />
    <rect x="98" y="70" width="7" height="7" fill="#000000" />
    <rect x="112" y="70" width="7" height="7" fill="#000000" />
    <rect x="126" y="70" width="28" height="7" fill="#000000" />
    <rect x="7" y="77" width="14" height="7" fill="#000000" />
    <rect x="35" y="77" width="7" height="7" fill="#000000" />
    <rect x="49" y="77" width="14" height="7" fill="#000000" />
    <rect x="77" y="77" width="14" height="7" fill="#000000" />
    <rect x="98" y="77" width="21" height="7" fill="#000000" />
    <rect x="133" y="77" width="21" height="7" fill="#000000" />
    <rect x="14" y="84" width="7" height="7" fill="#000000" />
    <rect x="35" y="84" width="7" height="7" fill="#000000" />
    <rect x="56" y="84" width="7" height="7" fill="#000000" />
    <rect x="70" y="84" width="35" height="7" fill="#000000" />
    <rect x="112" y="84" width="14" height="7" fill="#000000" />
    <rect x="133" y="84" width="7" height="7" fill="#000000" />
    <rect x="147" y="84" width="7" height="7" fill="#000000" />
    <rect x="28" y="91" width="7" height="7" fill="#000000" />
    <rect x="42" y="91" width="28" height="7" fill="#000000" />
    <rect x="77" y="91" width="14" height="7" fill="#000000" />
    <rect x="98" y="91" width="21" height="7" fill="#000000" />
    <rect x="133" y="91" width="7" height="7" fill="#000000" />
    <rect x="147" y="91" width="7" height="7" fill="#000000" />
    <rect x="63" y="98" width="21" height="7" fill="#000000" />
    <rect x="105" y="98" width="14" height="7" fill="#000000" />
    <rect x="126" y="98" width="21" height="7" fill="#000000" />
    <rect x="7" y="105" width="49" height="7" fill="#000000" />
    <rect x="63" y="105" width="21" height="7" fill="#000000" />
    <rect x="91" y="105" width="7" height="7" fill="#000000" />
    <rect x="119" y="105" width="7" height="7" fill="#000000" />
    <rect x="133" y="105" width="7" height="7" fill="#000000" />
    <rect x="147" y="105" width="7" height="7" fill="#000000" />
    <rect x="7" y="112" width="7" height="7" fill="#000000" />
    <rect x="49" y="112" width="7" height="7" fill="#000000" />
    <rect x="63" y="112" width="14" height="7" fill="#000000" />
    <rect x="105" y="112" width="14" height="7" fill="#000000" />
    <rect x="126" y="112" width="7" height="7" fill="#000000" />
    <rect x="147" y="112" width="7" height="7" fill="#000000" />
    <rect x="7" y="119" width="7" height="7" fill="#000000" />
    <rect x="21" y="119" width="21" height="7" fill="#000000" />
    <rect x="49" y="119" width="7" height="7" fill="#000000" />
    <rect x="63" y="119" width="7" height="7" fill="#000000" />
    <rect x="77" y="119" width="7" height="7" fill="#000000" />
    <rect x="91" y="119" width="7" height="7" fill="#000000" />
    <rect x="105" y="119" width="7" height="7" fill="#000000" />
    <rect x="119" y="119" width="7" height="7" fill="#000000" />
    <rect x="133" y="119" width="7" height="7" fill="#000000" />
    <rect x="147" y="119" width="7" height="7" fill="#000000" />
    <rect x="7" y="126" width="7" height="7" fill="#000000" />
    <rect x="21" y="126" width="21" height="7" fill="#000000" />
    <rect x="49" y="126" width="7" height="7" fill="#000000" />
    <rect x="70" y="126" width="21" height="7" fill="#000000" />
    <rect x="98" y="126" width="7" height="7" fill="#000000" />
    <rect x="112" y="126" width="7" height="7" fill="#000000" />
    <rect x="126" y="126" width="7" height="7" fill="#000000" />
    <rect x="140" y="126" width="7" height="7" fill="#000000" />
    <rect x="7" y="133" width="7" height="7" fill="#000000" />
    <rect x="21" y="133" width="21" height="7" fill="#000000" />
    <rect x="49" y="133" width="7" height="7" fill="#000000" />
    <rect x="63" y="133" width="7" height="7" fill="#000000" />
    <rect x="84" y="133" width="7" height="7" fill="#000000" />
    <rect x="98" y="133" width="14" height="7" fill="#000000" />
    <rect x="133" y="133" width="7" height="7" fill="#000000" />
    <rect x="147" y="133" width="7" height="7" fill="#000000" />
    <rect x="7" y="140" width="7" height="7" fill="#000000" />
    <rect x="49" y="140" width="7" height="7" fill="#000000" />
    <rect x="63" y="140" width="42" height="7" fill="#000000" />
    <rect x="119" y="140" width="7" height="7" fill="#000000" />
    <rect x="7" y="147" width="49" height="7" fill="#000000" />
    <rect x="63" y="147" width="14" height="7" fill="#000000" />
    <rect x="84" y="147" width="7" height="7" fill="#000000" />
    <rect x="98" y="147" width="42" height="7" fill="#000000" />
    <rect x="147" y="147" width="7" height="7" fill="#000000" />
  </g>
</svg>