<svg version="1.1" viewBox="0.0 0.0 793.3333333333334 1122.6666666666667" fill="none" stroke="none" stroke-linecap="square" stroke-miterlimit="10" xmlns:xlink="http://www.w3.org/1999/xlink" xmlns="http://www.w3.org/2000/svg"><clipPath id="p1.0"><path d="m0 0l793.3333 0l0 1122.6666l-793.3333 0l0 -1122.6666z" clip-rule="nonzero"/></clipPath><g clip-path="url(#p1.0)"><path fill="#000000" fill-opacity="0.0" d="m0 0l793.3333 0l0 1122.6666l-793.3333 0z" fill-rule="evenodd"/><path fill="#000000" fill-opacity="0.0" d="m607.36584 784.0026l201.98425 0l0 38.64569l-201.98425 0z" fill-rule="evenodd"/><path fill="#000000" d="m635.6315 809.0449q-4.53125 -5.078125 -9.703125 -8.15625l2.53125 -3.265625q5.46875 2.796875 10.328125 8.078125l-3.15625 3.34375zm-25.265625 -19.125l27.5625 0l0 4.0625l-11.046875 0q-0.25 0.84375 -0.953125 2.140625l0 20.734375l-4.1875 0l0 -14.765625q-3.1875 4.015625 -10.359375 7.1875l-2.4375 -4.015625q9.71875 -4.078125 13.265625 -11.28125l-11.84375 0l0 -4.0625zm30.6875 24.28125q2.890625 -4.671875 5.046875 -9.859375l3.359375 2.234375q-2.21875 5.40625 -4.25 9.09375q0.6875 3.09375 -1.515625 0.890625l-2.640625 -2.359375zm5.34375 -10.984375q-2.28125 -2.125 -5.0625 -3.96875l2.359375 -3.265625q2.96875 1.5625 5.046875 3.625l-2.34375 3.609375zm-1.53125 -14.578125q2.8125 1.40625 4.640625 3.5625l-2.703125 3.25q-1.828125 -1.984375 -4.671875 -3.71875l2.734375 -3.09375zm10.953125 15.90625q2.703125 0.34375 0.734375 1.75l0 2.875l0.9375 0l0 -5.1875l-4.6875 0l0 13.125l-3.8125 0l0 -16.4375l8.5 0l0 -1.3125l-7.5 0l0 -3.3125l3.875 0l0 -1.8125l-5.625 0l0 -3.3125l5.625 0l0 -3.25l2.703125 0q2.703125 0.34375 0.734375 1.75l0 1.5l3.8125 0l0 -3.25l2.703125 0q2.703125 0.34375 0.734375 1.75l0 1.5l6.125 0l0 3.3125l-6.125 0l0 1.8125l4.0 0l0 3.3125l-7.625 0l0 1.3125l8.875 0l0 13.53125q0 2.65625 -2.65625 2.65625l-2.8125 0l-0.578125 -3.6875l2.390625 0q0 0.15625 -0.15625 0.15625l0 -9.34375l-5.0625 0l0 5.1875l1.0625 0l0 -4.625l2.703125 0q2.703125 0.34375 0.734375 1.75l0 6.6875l-3.4375 0l0.15625 -0.65625l-5.59375 0.15625l0 1.5l-3.4375 0l0 -9.4375l2.703125 0zm5.296875 -10.3125l-3.8125 0l0 1.8125l3.8125 0l0 -1.8125zm31.34375 4.9375q3.03125 0.546875 0.84375 2.0l0 6.421875q2.71875 0.875 6.78125 2.984375l-2.21875 3.515625q-3.25 -1.921875 -4.6875 -2.390625q-0.28125 2.0625 -1.6875 3.46875q-1.703125 1.6875 -4.59375 1.6875q-3.765625 0 -5.34375 -1.5625q-1.4375 -1.453125 -1.4375 -3.71875q0 -1.890625 1.4375 -3.34375q1.828125 -1.8125 5.21875 -1.8125q2.21875 0 2.71875 0.15625l0 -7.40625l2.96875 0zm-14.375 -1.5625q-1.015625 0.125 -4.625 0.125l-0.5625 -3.9375q3.84375 0 6.484375 -0.21875q0.5 -1.78125 1.546875 -6.21875l2.9375 0.984375q2.796875 1.109375 0.328125 2.09375l-0.78125 2.75q1.109375 -0.125 3.96875 -0.921875l0.9375 3.9375q-4.203125 0.90625 -6.0625 1.0q-1.875 6.0 -6.078125 14.125l-3.6875 -1.84375q4.171875 -7.421875 5.59375 -11.875zm12.5625 -5.34375q4.09375 1.3125 9.625 3.4375l-1.65625 3.859375q-5.8125 -2.484375 -9.46875 -3.5625l1.5 -3.734375zm-1.15625 18.03125q-0.953125 -0.3125 -2.71875 -0.3125q-1.734375 0 -2.28125 0.5625q-0.4375 0.421875 -0.4375 1.03125q0 0.609375 0.3125 0.90625q0.546875 0.5625 2.15625 0.5625q1.484375 0 2.03125 -0.5625q0.9375 -0.921875 0.9375 -2.1875zm13.75 -17.75l14.3125 0l0 7.3125l-10.875 0l0 7.46875q0 4.9375 -3.09375 9.875l-2.46875 -3.046875q2.125 -4.109375 2.125 -7.453125l0 -14.15625zm8.265625 8.375q-0.25 0.671875 -0.421875 1.0l0.640625 0l1.578125 -3.40625l2.578125 0.859375q1.53125 1.546875 -0.34375 1.8125l-0.453125 0.734375l2.34375 0l0 2.8125l-2.75 0l0 0.5625l2.375 0l0 2.8125l-2.375 0l0 0.6875l2.375 0l0 2.8125l-2.375 0l0 0.6875l2.875 0l0 2.8125l-7.125 0l0 2.125l-3.0625 0l0.375 -10.125q0.3125 0.234375 -0.84375 1.671875l-1.515625 -3.03125q2.296875 -2.984375 3.703125 -7.171875l2.640625 0.515625q1.5625 1.578125 -0.21875 1.828125zm19.046875 -6.5l0 18.0625l-12.8125 0l0 -18.0625l3.515625 0l0.546875 -2.1875l-4.1875 0l0 -3.6875l13.9375 0l0 3.6875l-5.921875 0l-0.703125 2.1875l5.625 0zm-7.53125 18.859375q1.953125 2.265625 -0.953125 1.75q-2.484375 2.015625 -6.21875 3.203125l-1.953125 -3.296875q4.171875 -1.203125 7.1875 -3.921875l1.9375 2.265625zm7.34375 4.375q-3.6875 -1.765625 -6.421875 -3.859375l2.34375 -2.71875q2.421875 1.671875 6.359375 3.34375l-2.28125 3.234375zm-9.1875 -18.359375l5.9375 0l0 -1.5625l-5.9375 0l0 1.5625zm0 5.0l5.9375 0l0 -1.6875l-5.9375 0l0 1.6875zm0 4.875l5.9375 0l0 -1.5625l-5.9375 0l0 1.5625zm-14.5 -12.625l7.4375 0l0 -0.6875l-7.4375 0l0 0.6875zm3.75 15.75l1.1875 0l0 -0.6875l-1.1875 0l0 0.6875zm0 -3.5l1.1875 0l0 -0.6875l-1.1875 0l0 0.6875zm0 -3.5l1.1875 0l0 -0.5625l-1.1875 0l0 0.5625zm-7.9375 -13.0625l0 -3.6875l15.4375 0l0 3.6875l-15.4375 0zm47.71875 -4.8125q2.875 0.578125 0.71875 2.0l0 0.875l11.75 0l0 7.5625l-3.8125 0l0 -4.25l-20.0625 0l0 4.25l-3.8125 0l0 -7.5625l11.75 0l0 -2.875l3.46875 0zm-0.8125 16.8125q-3.09375 2.0625 -7.25 2.71875l15.90625 -0.65625l0 10.9375l-3.8125 0l0 -0.75l-10.1875 0l0 0.75l-3.8125 0l0 -8.6875q-2.015625 0.78125 -4.75 1.421875l-1.484375 -3.875q7.53125 -1.640625 12.1875 -4.109375q-0.875 -0.671875 -2.28125 -2.28125q-1.578125 1.875 -6.21875 4.640625l-2.09375 -3.25q5.9375 -3.375 8.609375 -8.3125l3.03125 0.96875q1.546875 1.546875 -0.34375 1.8125l0.078125 -0.296875l7.03125 -0.09375l0.703125 -0.71875l3.25 2.484375l-1.234375 0.984375q-2.125 2.515625 -4.171875 4.015625q3.28125 1.5 11.703125 2.859375l-1.296875 3.921875q-9.8125 -2.015625 -13.5625 -4.484375zm4.84375 8.5625l0 -2.8125l-10.1875 0l0 2.8125l10.1875 0zm-5.109375 -12.75q1.203125 -0.84375 1.875 -1.5625l-3.9375 0q0.515625 0.59375 2.0625 1.5625z" fill-rule="nonzero"/><path fill="#000000" fill-opacity="0.0" d="m92.666664 50.26866l709.95276 0l0 79.055115l-709.95276 0z" fill-rule="evenodd"/><path fill="#ffffff" d="m148.4243 63.314484q-0.34375 3.671875 1.390625 5.40625q1.78125 1.765625 5.109375 1.765625q4.453125 0 5.859375 -1.390625q1.390625 -1.40625 1.390625 -4.921875q0 -2.671875 -1.40625 -7.578125l5.96875 -0.859375q1.5625 6.25 1.5625 8.25q0 6.234375 -3.109375 9.328125q-3.28125 3.296875 -10.453125 3.296875q-5.859375 0 -9.328125 -3.484375q-3.328125 -3.3125 -2.921875 -9.015625l0.3125 -4.5625l-9.5 0l0 -5.5625l10.21875 0l0.546875 -5.3125l-8.703125 0l0 -5.5625l9.453125 0l0.953125 -10.8125l5.234375 0.703125q4.484375 1.234375 1.078125 3.125l-1.21875 6.984375l7.125 0l0 5.5625l-7.96875 0l-0.546875 5.3125l8.890625 0l0 5.5625l-9.640625 0l-0.296875 3.765625zm57.875 2.40625q-8.9375 9.765625 -18.75 9.765625q-7.171875 0 -10.640625 -3.484375q-2.734375 -2.71875 -2.734375 -10.078125l0 -26.125l5.046875 0q3.75 0.828125 1.265625 2.953125l0 23.171875q0 4.265625 1.390625 5.671875q1.78125 1.765625 5.484375 1.765625q6.875 0 14.859375 -8.796875l4.078125 5.15625zm2.40625 7.375q4.65625 -6.078125 4.65625 -13.046875l0 -22.375l15.375 0l0 -5.25l5.21875 0q4.34375 0.875 1.09375 3.03125l0 2.21875l16.6875 0l0 5.5625l-32.625 0l0 17.0q0 9.515625 -5.75 17.25l-4.65625 -4.390625zm33.71875 -3.734375l0 -6.0625l-15.4375 0l0 6.0625l15.4375 0zm-7.9375 -26.0625q4.109375 0.515625 1.125 2.640625l0 2.421875l15.0 0l0 5.5625l-15.0 0l0 3.8125l12.5625 0l0 19.25l-5.75 0l0 -2.0625l-15.4375 0l0 2.4375l-5.75 0l0 -19.625l8.625 0l0 -14.4375l4.625 0zm40.17186 3.125q-3.953125 -4.171875 -6.515625 -5.921875q-2.765625 5.046875 -10.328125 10.375l-2.5312347 -5.65625q7.0312347 -4.421875 10.624985 -12.796875l4.65625 1.234375q2.359375 2.34375 -0.359375 2.734375l0.203125 -0.5q4.546875 1.9375 7.875 5.515625l-3.625 5.015625zm-14.421875 5.4375l0 -5.0l5.25 0l0 -4.875l4.0625 0q4.109375 0.515625 1.125 2.640625l0 2.234375l5.0625 0l0 5.0l-5.0625 0l0 1.9375l7.5 0l0 5.0l-21.3125 0l0 -5.0l8.625 0l0 -1.9375l-5.25 0zm16.3125 -7.125l0 -5.5625l9.5625 0l0 -6.75l4.0625 0q4.109375 0.515625 1.125 2.640625l0 4.109375l1.8125 0q0.03125 0.03125 -3.0625 -2.03125l3.546875 -3.5625q3.578125 1.28125 5.640625 4.890625l-0.703125 0.703125l2.890625 0l0 5.5625l-10.125 0l0 1.75l8.8125 0l0 26.5q0 4.1875 -4.0 4.1875l-3.015625 0l-1.46875 -5.5625l3.171875 0q0 0.4375 -0.4375 0.4375l0 -6.125l-3.0625 0l0 10.6875l-5.1875 0l0 -10.6875l-2.875 0l0 11.4375l-5.75 0l0 -30.875l8.625 0l0 -1.75l-9.5625 0zm14.75 6.75l0 2.125l3.0625 0l0 -2.125l-3.0625 0zm-31.625 8.875l16.625 0l0 15.875l-5.1875 0l0 -1.875l-6.25 0l0 2.625l-5.1875 0l0 -16.625zm5.1875 5.0l0 4.0l6.25 0l0 -4.0l-6.25 0zm18.375 -6.75l0 2.3125l2.875 0l0 -2.3125l-2.875 0zm8.0625 0l0 2.3125l3.0625 0l0 -2.3125l-3.0625 0zm-8.0625 -7.125l0 2.125l2.875 0l0 -2.125l-2.875 0zm61.3125 -7.5q-7.578125 0 -11.15625 1.25q-3.921875 1.421875 -7.328125 4.828125q-3.265625 3.28125 -3.265625 8.484375q0 4.078125 2.515625 6.609375q3.46875 3.46875 15.140625 3.875l-2.21875 6.109375q-12.1875 -0.609375 -16.765625 -5.203125q-4.609375 -4.59375 -4.609375 -11.203125q0 -9.328125 4.0625 -12.28125q-4.796875 0.703125 -14.875 2.140625l-1.640625 -6.328125q19.515625 -1.40625 39.015625 -4.75l1.125 6.46875zm-5.140625 14.984375q-4.84375 -3.515625 -8.828125 -5.765625l3.1875 -3.828125q3.578125 2.140625 8.8125 5.78125l-3.171875 3.8125zm3.75 -4.515625q-5.203125 -3.6875 -8.828125 -5.75l3.171875 -3.8125q3.390625 1.9375 8.8125 5.78125l-3.15625 3.78125zm26.765625 -2.96875l-1.578125 0q-0.1875 7.890625 -12.171875 10.28125l-1.71875 -5.453125q7.8125 -1.765625 7.921875 -4.828125l-6.015625 0l0 26.0625l-5.75 0l0 -31.625l9.5625 0l-1.328125 -2.875l-10.859375 0l0 -5.5625l18.75 0l0 -4.875l5.1875 0q4.109375 0.515625 1.125 2.640625l0 2.234375l18.5625 0l0 5.5625l-10.03125 0l-2.0 2.875l9.96875 0l0 27.625q0 3.625 -3.4375 3.625l-5.6875 0l-1.171875 -5.5625l4.796875 0q0 0.25 -0.25 0.25l0 -20.375l-8.125 0l0 1.8125q0 0.5 0.3125 0.5l3.375 0q0 0.109375 0.328125 -2.546875l5.421875 1.703125q-0.515625 6.40625 -4.0625 6.40625l-6.9375 0q-4.1875 0 -4.1875 -4.1875l0 -3.6875zm4.40625 -8.4375l-8.90625 0l1.4375 2.875l5.578125 0l1.890625 -2.875zm-14.53125 16.5625l20.375 0l0 12.5l-15.1875 0l0 1.6875l-5.1875 0l0 -14.1875zm5.1875 5.0l0 2.5l10.0 0l0 -2.5l-10.0 0zm60.125 -11.875l-14.5625 0.0625l0 1.3125l-5.75 0l0 -19.4375l26.0 0l0 19.0625l-5.75 0l0.0625 -1.0zm-14.5625 -5.5l14.5 0l0 -7.0l-14.5 0l0 7.0zm21.8125 26.75l-7.0 0l0 3.375l-5.75 0l0 -21.875l18.5 0l0 21.3125l-5.75 0l0 -2.8125zm-7.0 -12.9375l0 7.375l7.0 0l0 -7.375l-7.0 0zm-21.375 0l0 7.375l7.0 0l0 -7.375l-7.0 0zm7.0 12.9375l-7.0 0l0 3.375l-5.75 0l0 -21.875l18.5 0l0 21.3125l-5.75 0l0 -2.8125zm57.96875 -27.328125q-3.15625 18.5625 -7.890625 23.28125q-2.71875 2.734375 -5.765625 2.734375q-3.421875 0 -5.390625 -1.984375q-4.796875 -4.78125 -4.796875 -11.953125q0 -8.671875 6.109375 -14.765625q6.65625 -6.671875 16.265625 -6.671875q8.671875 0 13.640625 4.984375q5.546875 5.53125 5.546875 13.078125q0 8.109375 -5.171875 13.265625q-3.3125 3.3125 -10.671875 6.6875l-5.59375 -5.59375q7.90625 -2.484375 11.484375 -6.0625q3.265625 -3.28125 3.265625 -7.921875q0 -5.578125 -3.640625 -9.234375q-3.625 -3.625 -7.859375 -3.453125l-0.015625 -0.03125q4.234375 1.765625 0.484375 3.640625zm-6.359375 -2.9375q-3.234375 0.734375 -6.59375 4.09375q-4.578125 4.59375 -4.578125 11.296875q0 3.890625 2.515625 6.421875q0.28125 0.265625 0.984375 0.265625q0.703125 0 1.734375 -1.015625q4.0625 -4.0625 5.9375 -21.0625zm40.953125 16.40625l4.265625 -1.53125l0.84375 2.1875q3.078125 -2.0 4.2031555 -4.046875l-6.8125305 0l0 -5.5625l30.31253 0l0 5.5625l-17.4375 0q-0.53125 1.046875 -0.921875 0.859375l17.3125 -0.421875l-1.203125 14.765625q-0.453125 5.234375 -4.75 5.234375l-5.359375 0l-0.875 -5.5625l4.734375 0q0.4375 0 0.5 -0.4375l0.828125 -8.4375l-0.1875 0q-3.34375 12.625 -20.390656 15.5l-1.734375 -5.46875q13.8437805 -2.53125 16.234406 -10.03125l-1.140625 0q-3.328125 7.953125 -13.8750305 9.890625l-1.8125 -4.84375q8.1406555 -2.03125 9.6406555 -5.046875l-0.796875 0q-3.7656555 3.390625 -7.0000305 5.015625l-1.546875 -2.875l-10.4375 4.140625q-0.390625 2.71875 -2.703125 0.390625l-1.953125 -5.34375l6.3125 -1.765625l0 -12.5l-5.8125 0l0 -5.5625l5.8125 0l0 -10.6875l4.625 0q4.109375 0.515625 1.125 2.640625l0 8.046875l5.625 0l0 5.5625l-5.625 0l0 10.328125zm6.25 -9.203125l0 -17.1875l21.68753 0l0 17.1875l-21.68753 0zm5.7500305 -10.8125l10.1875 0l0 -1.375l-10.1875 0l0 1.375zm0 5.8125l10.1875 0l0 -0.8125l-10.1875 0l0 0.8125zm51.40625 -9.21875q7.859375 -1.25 12.6875 -3.4375l2.546875 4.390625q1.90625 4.28125 -2.140625 2.25q-6.65625 1.4375 -12.0 1.921875l0 5.96875l16.5 0l0 5.5625l-6.1875 0l0 23.625l-5.75 0l0 -23.625l-4.5625 0l0 4.8125q0 12.90625 -10.1875 19.703125l-4.140625 -4.953125q8.578125 -5.1875 8.578125 -15.125l0 -22.8125l4.65625 1.71875zm-6.21875 6.78125l0 18.3125l-5.75 0l0 -1.875l-6.4375 0l0 4.25q0 7.40625 -3.734375 13.46875l-5.0 -3.890625q2.984375 -4.265625 2.984375 -9.765625l0 -20.5l17.9375 0zm-5.75 10.875l0 -5.3125l-6.4375 0l0 5.3125l6.4375 0zm-13.6875 -13.9375l0 -5.5625l20.75 0l0 5.5625l-20.75 0zm76.9375 30.75q-9.21875 0 -15.953125 -6.53125l3.65625 -4.78125q5.5625 5.359375 12.28125 5.1875l11.328125 0l0 6.125l-11.3125 0zm-27.75 3.640625q-0.625 -10.796875 -0.625 -17.765625q0 -8.53125 2.265625 -21.296875l4.75 1.1875q4.390625 0.796875 0.90625 3.25q-1.796875 10.375 -1.796875 16.859375q0 7.265625 0.828125 17.21875l-6.328125 0.546875zm36.625 -27.796875q-9.03125 -0.21875 -23.0 1.203125l0 -5.953125q14.46875 -1.40625 23.0 -1.1875l0 5.9375zm18.890625 18.796875q14.9375 -0.203125 19.15625 -4.40625q2.515625 -2.53125 2.515625 -6.234375q0 -3.890625 -2.703125 -6.609375q-1.96875 -1.953125 -7.171875 -1.953125q-4.515625 0 -10.734375 2.1875q-4.828125 1.6875 -11.53125 4.703125l-2.90625 -6.859375l11.578125 -3.3125q9.328125 -2.65625 14.15625 -2.65625q7.921875 0 11.765625 3.859375q3.859375 3.84375 3.859375 10.265625q0 6.796875 -3.671875 10.453125q-6.65625 6.671875 -22.65625 6.875l-1.65625 -6.3125zm53.328125 -3.140625q-2.03125 5.203125 -4.015625 7.578125q-2.921875 3.546875 -6.015625 3.546875q-5.359375 0 -7.859375 -6.0625q-1.390625 -3.359375 -1.390625 -14.0625q0 -7.546875 0.859375 -16.421875l5.0625 1.203125q4.515625 1.125 0.890625 3.421875q-0.6875 6.40625 -0.6875 11.984375q0 7.546875 0.890625 10.59375q0.734375 2.46875 1.859375 2.46875q1.4375 0 2.671875 -2.453125q0.90625 -1.8125 2.265625 -5.625l5.46875 3.828125zm10.03125 -22.8125q9.1875 9.59375 11.25 23.375l-6.984375 1.796875q-2.390625 -13.890625 -10.0 -21.90625l5.734375 -3.265625zm54.8125 4.125q-7.578125 0 -11.15625 1.25q-3.921875 1.421875 -7.328125 4.828125q-3.265625 3.28125 -3.265625 8.484375q0 4.078125 2.515625 6.609375q3.46875 3.46875 15.140625 3.875l-2.21875 6.109375q-12.1875 -0.609375 -16.765625 -5.203125q-4.609375 -4.59375 -4.609375 -11.203125q0 -9.328125 4.0625 -12.28125q-4.796875 0.703125 -14.875 2.140625l-1.640625 -6.328125q19.515625 -1.40625 39.015625 -4.75l1.125 6.46875z" fill-rule="nonzero"/><path fill="#ffffff" d="m290.14304 109.43686l27.875 0l0 5.0l-5.25 0l0 19.875l-5.1875 0l0 -3.84375l-14.625 1.328125q-0.359375 2.515625 -2.765625 0.109375l-0.75 -5.546875l5.203125 -0.203125l0 -11.71875l-4.5 0l0 -5.0zm26.203125 26.0l-0.875 -5.5625l3.984375 0q0 0.4375 -0.4375 0.4375l0 -21.5l-5.9375 0l-7.75 0l0 -17.0l19.4375 0l0 39.4375q0 4.1875 -4.0 4.1875l-4.421875 0zm-16.515625 -9.5625l7.75 -0.4375l0 -0.5l-7.75 0l0 0.9375zm2.8125 -17.0625l-13.875 0l0 26.625l-5.75 0l0 -43.625l19.625 0l0 17.0zm16.375 -5.0l0 -1.0l-7.9375 0l0 1.0l7.9375 0zm-7.9375 -6.0l7.9375 0l0 -1.0l-7.9375 0l0 1.0zm-22.3125 0l8.125 0l0 -1.0l-8.125 0l0 1.0zm0 6.0l8.125 0l0 -1.0l-8.125 0l0 1.0zm11.0625 16.125l7.75 0l0 -0.25l-7.75 0l0 0.25zm0 -5.25l7.75 0l0 -0.25l-7.75 0l0 0.25zm29.71875 16.15625q6.046875 -9.390625 9.6875 -21.265625q-2.609375 0.359375 -7.5625 0.828125l-0.5625 -6.21875q4.421875 0 9.703125 -0.5q1.484375 -5.109375 2.8125 -12.1875l5.046875 1.6875q4.84375 2.015625 0.28125 3.421875q-0.96875 3.40625 -1.71875 6.40625q0.828125 -0.140625 3.34375 -0.140625q3.046875 0 4.640625 1.609375q2.546875 2.53125 2.546875 10.828125q0 11.296875 -3.484375 14.765625q-2.15625 2.171875 -5.015625 2.171875q-4.015625 0 -8.40625 -5.0625l3.59375 -4.96875q3.546875 3.53125 4.625 3.53125q0.515625 0 0.984375 -0.453125q1.765625 -1.78125 1.765625 -10.734375q0 -4.828125 -0.828125 -5.671875q-0.28125 -0.265625 -1.546875 -0.265625q-1.625 0 -3.90625 0.28125q-3.78125 13.34375 -9.6875 24.125l-6.3125 -2.1875zm38.5625 -8.546875q-3.609375 -13.015625 -10.65625 -19.65625l5.046875 -3.640625q8.484375 8.6875 11.578125 20.84375l-5.96875 2.453125zm38.09375 -13.421875q0.140625 -2.5 -1.0625 -2.5q-2.765625 0 -11.375 8.609375l0 19.328125l-5.75 0l0 -13.53125l-7.171875 8.96875l-4.4375 -4.453125l8.078125 -9.5q2.015625 -2.546875 3.53125 -5.078125l0 -2.828125l-7.921875 2.703125l-1.703125 -5.921875l9.625 -2.5l0 -11.296875l4.484375 0q3.75 0.828125 1.265625 2.953125l0 7.390625l1.5 0.828125q3.6875 1.625 -0.0625 3.34375l-1.4375 3.015625l-0.4375 -0.21875q7.859375 -7.9375 12.75 -7.9375q6.703125 0 6.0625 8.5625l-0.9375 14.4375q-0.125 1.9375 1.25 1.9375q1.984375 0 2.796875 -0.953125q1.578125 -1.9375 3.15625 -5.875l4.875 4.015625q-2.328125 4.40625 -4.125 6.203125q-2.71875 2.734375 -6.328125 2.734375q-7.984375 0 -7.5625 -8.1875l0.9375 -14.25zm59.75 18.0l0 6.125l-9.25 0q-7.375 0 -14.828125 -3.953125l2.578125 -5.171875q5.5625 3.0 12.25 3.0l9.25 0zm-26.015625 -20.046875q-2.703125 16.078125 -7.234375 26.78125l-6.046875 -1.921875q5.453125 -12.71875 7.296875 -24.265625q-3.265625 0.265625 -7.6875 0.265625l-1.15625 -5.75q6.421875 0 9.703125 -0.296875q0.65625 -5.015625 1.34375 -10.390625l4.84375 0.96875q4.453125 1.21875 1.0 3.125q-0.4375 1.796875 -1.140625 5.671875q2.90625 -0.375 7.421875 -1.5625l1.15625 5.78125q-5.890625 1.125 -9.5 1.59375zm25.28125 6.4375q-11.859375 0.421875 -18.90625 3.40625l-1.703125 -5.703125q9.09375 -3.59375 19.484375 -3.59375l1.125 5.890625zm14.234375 -21.453125l5.09375 0q4.578125 0.828125 1.296875 3.015625l0.359375 8.4375q0.171875 3.75 0.8125 5.125q4.421875 -1.90625 14.171875 -4.59375l2.640625 6.84375q-18.703125 3.34375 -24.484375 9.125q-1.765625 1.78125 -1.765625 3.609375q0 1.265625 1.015625 2.296875q1.03125 1.015625 4.734375 1.015625l19.0 0l0 6.125l-19.1875 0q-6.609375 0 -9.328125 -2.734375q-2.734375 -2.71875 -2.734375 -6.328125q0 -4.546875 3.296875 -7.828125q2.34375 -2.34375 6.953125 -4.984375q-0.859375 -2.15625 -1.0625 -5.6875l-0.8125 -13.4375zm49.078156 11.5625q0.328125 1.015625 1.421875 2.78125q5.28125 -0.828125 11.890625 -2.734375l2.5 5.84375q-6.078125 1.40625 -11.015625 2.109375q1.71875 2.28125 7.015625 6.265625l-4.390625 4.390625q-7.171875 -1.59375 -11.0 -1.59375q-7.078125 0 -9.046875 1.953125q-1.015625 1.03125 -1.015625 2.109375q0 1.453125 0.828125 2.296875q1.21875 1.203125 7.734375 1.203125l12.640625 0l-1.125 6.125l-12.265625 0q-7.921875 0 -11.2031555 -3.296875q-2.546875 -2.53125 -2.546875 -6.515625q0 -3.234375 2.359375 -5.578125q3.4687805 -3.484375 13.8281555 -3.484375q3.453125 0 4.015625 0.09375q-0.65625 -0.6875 -2.390625 -2.90625q-8.3125 1.0625 -19.75003 1.0625l-0.84375 -5.953125q10.6719055 0.203125 17.578156 -0.5625q-0.65625 -1.21875 -1.1875 -2.796875q-6.1875 0.5 -14.6406555 0.5l-0.578125 -5.78125q8.7656555 0.21875 13.7031555 -0.234375q-0.640625 -2.28125 -1.359375 -7.796875l5.359375 0q4.34375 0.875 1.171875 2.984375q0.28125 2.15625 0.65625 4.046875q3.890625 -0.453125 9.78125 -1.984375l2.0 5.734375q-7.546875 1.328125 -10.125 1.71875zm33.796875 4.5625l0 10.0625l-10.0625 0l0 -10.0625l10.0625 0zm24.0 0l0 10.0625l-10.0625 0l0 -10.0625l10.0625 0zm24.0 0l0 10.0625l-10.0625 0l0 -10.0625l10.0625 0z" fill-rule="nonzero"/><path fill="#000000" fill-opacity="0.0" d="m537.6567 707.9706l307.37012 0l0 32.0l-307.37012 0z" fill-rule="evenodd"/><path fill="#ffffff" d="m634.2616 732.48096q-1.140625 0 -1.859375 -0.671875q-0.71875 -0.671875 -0.71875 -1.65625q0 -1.015625 0.71875 -1.6875q0.71875 -0.6875 1.859375 -0.6875q1.109375 0 1.828125 0.6875q0.734375 0.671875 0.734375 1.6875q0 0.984375 -0.734375 1.65625q-0.71875 0.671875 -1.828125 0.671875zm7.1380615 0q-1.140625 0 -1.859375 -0.671875q-0.71875 -0.671875 -0.71875 -1.65625q0 -1.015625 0.71875 -1.6875q0.71875 -0.6875 1.859375 -0.6875q1.109375 0 1.828125 0.6875q0.734375 0.671875 0.734375 1.6875q0 0.984375 -0.734375 1.65625q-0.71875 0.671875 -1.828125 0.671875zm7.1381226 0q-1.140625 0 -1.859375 -0.671875q-0.71875 -0.671875 -0.71875 -1.65625q0 -1.015625 0.71875 -1.6875q0.71875 -0.6875 1.859375 -0.6875q1.109375 0 1.828125 0.6875q0.734375 0.671875 0.734375 1.6875q0 0.984375 -0.734375 1.65625q-0.71875 0.671875 -1.828125 0.671875zm7.1381226 0q-1.140625 0 -1.859375 -0.671875q-0.71875 -0.671875 -0.71875 -1.65625q0 -1.015625 0.71875 -1.6875q0.71875 -0.6875 1.859375 -0.6875q1.109375 0 1.828125 0.6875q0.734375 0.671875 0.734375 1.6875q0 0.984375 -0.734375 1.65625q-0.71875 0.671875 -1.828125 0.671875zm7.1381226 0q-1.140625 0 -1.859375 -0.671875q-0.71875 -0.671875 -0.71875 -1.65625q0 -1.015625 0.71875 -1.6875q0.71875 -0.6875 1.859375 -0.6875q1.109375 0 1.828125 0.6875q0.734375 0.671875 0.734375 1.6875q0 0.984375 -0.734375 1.65625q-0.71875 0.671875 -1.828125 0.671875zm7.1380615 0q-1.140625 0 -1.859375 -0.671875q-0.71875 -0.671875 -0.71875 -1.65625q0 -1.015625 0.71875 -1.6875q0.71875 -0.6875 1.859375 -0.6875q1.109375 0 1.828125 0.6875q0.734375 0.671875 0.734375 1.6875q0 0.984375 -0.734375 1.65625q-0.71875 0.671875 -1.828125 0.671875zm7.1381226 0q-1.140625 0 -1.859375 -0.671875q-0.71875 -0.671875 -0.71875 -1.65625q0 -1.015625 0.71875 -1.6875q0.71875 -0.6875 1.859375 -0.6875q1.109375 0 1.828125 0.6875q0.734375 0.671875 0.734375 1.6875q0 0.984375 -0.734375 1.65625q-0.71875 0.671875 -1.828125 0.671875zm7.1381226 0q-1.140625 0 -1.859375 -0.671875q-0.71875 -0.671875 -0.71875 -1.65625q0 -1.015625 0.71875 -1.6875q0.71875 -0.6875 1.859375 -0.6875q1.109375 0 1.828125 0.6875q0.734375 0.671875 0.734375 1.6875q0 0.984375 -0.734375 1.65625q-0.71875 0.671875 -1.828125 0.671875zm7.1381226 0q-1.140625 0 -1.859375 -0.671875q-0.71875 -0.671875 -0.71875 -1.65625q0 -1.015625 0.71875 -1.6875q0.71875 -0.6875 1.859375 -0.6875q1.109375 0 1.828125 0.6875q0.734375 0.671875 0.734375 1.6875q0 0.984375 -0.734375 1.65625q-0.71875 0.671875 -1.828125 0.671875zm7.1380615 0q-1.140625 0 -1.859375 -0.671875q-0.71875 -0.671875 -0.71875 -1.65625q0 -1.015625 0.71875 -1.6875q0.71875 -0.6875 1.859375 -0.6875q1.109375 0 1.828125 0.6875q0.734375 0.671875 0.734375 1.6875q0 0.984375 -0.734375 1.65625q-0.71875 0.671875 -1.828125 0.671875zm7.1381226 0q-1.140625 0 -1.859375 -0.671875q-0.71875 -0.671875 -0.71875 -1.65625q0 -1.015625 0.71875 -1.6875q0.71875 -0.6875 1.859375 -0.6875q1.109375 0 1.828125 0.6875q0.734375 0.671875 0.734375 1.6875q0 0.984375 -0.734375 1.65625q-0.71875 0.671875 -1.828125 0.671875zm7.1381226 0q-1.140625 0 -1.859375 -0.671875q-0.71875 -0.671875 -0.71875 -1.65625q0 -1.015625 0.71875 -1.6875q0.71875 -0.6875 1.859375 -0.6875q1.109375 0 1.828125 0.6875q0.734375 0.671875 0.734375 1.6875q0 0.984375 -0.734375 1.65625q-0.71875 0.671875 -1.828125 0.671875zm7.1381226 0q-1.140625 0 -1.859375 -0.671875q-0.71875 -0.671875 -0.71875 -1.65625q0 -1.015625 0.71875 -1.6875q0.71875 -0.6875 1.859375 -0.6875q1.109375 0 1.828125 0.6875q0.734375 0.671875 0.734375 1.6875q0 0.984375 -0.734375 1.65625q-0.71875 0.671875 -1.828125 0.671875zm7.1380615 0q-1.140625 0 -1.859375 -0.671875q-0.71875 -0.671875 -0.71875 -1.65625q0 -1.015625 0.71875 -1.6875q0.71875 -0.6875 1.859375 -0.6875q1.109375 0 1.828125 0.6875q0.734375 0.671875 0.734375 1.6875q0 0.984375 -0.734375 1.65625q-0.71875 0.671875 -1.828125 0.671875zm7.1381226 0q-1.140625 0 -1.859375 -0.671875q-0.71875 -0.671875 -0.71875 -1.65625q0 -1.015625 0.71875 -1.6875q0.71875 -0.6875 1.859375 -0.6875q1.109375 0 1.828125 0.6875q0.734375 0.671875 0.734375 1.6875q0 0.984375 -0.734375 1.65625q-0.71875 0.671875 -1.828125 0.671875zm7.1381226 0q-1.140625 0 -1.859375 -0.671875q-0.71875 -0.671875 -0.71875 -1.65625q0 -1.015625 0.71875 -1.6875q0.71875 -0.6875 1.859375 -0.6875q1.109375 0 1.828125 0.6875q0.734375 0.671875 0.734375 1.6875q0 0.984375 -0.734375 1.65625q-0.71875 0.671875 -1.828125 0.671875zm7.1381226 0q-1.140625 0 -1.859375 -0.671875q-0.71875 -0.671875 -0.71875 -1.65625q0 -1.015625 0.71875 -1.6875q0.71875 -0.6875 1.859375 -0.6875q1.109375 0 1.828125 0.6875q0.734375 0.671875 0.734375 1.6875q0 0.984375 -0.734375 1.65625q-0.71875 0.671875 -1.828125 0.671875z" fill-rule="nonzero"/><path fill="#000000" fill-opacity="0.0" d="m481.31067 657.8287l307.37006 0l0 31.496033l-307.37006 0z" fill-rule="evenodd"/><path fill="#ffffff" d="m558.51135 670.06226l5.359375 0l0 3.3125l-5.25 0l0 1.5625l4.25 0l0 3.3125l-4.25 0l0 1.6875l4.25 0l0 3.3125l-4.25 0l0 1.8125l6.25 0l0 3.3125l-12.625 0l0 1.25l-3.4375 0l0.109375 -12.828125q0.015625 0.140625 -2.265625 1.84375l-1.328125 -3.609375q4.9375 -4.421875 6.015625 -8.03125l-1.34375 0l0 2.875l-3.4375 0l0 -6.1875l5.640625 0q0.375 -1.484375 0.859375 -4.40625l3.359375 0.84375q1.109375 1.09375 0 1.765625q-0.3125 1.25 -0.46875 1.796875l8.671875 0l0 5.6875l-3.4375 0l0 -2.375l-6.09375 0q-0.65625 2.265625 -1.21875 3.0625l0.90625 0l1.671875 -3.84375l2.953125 0.625q2.15625 0.859375 0.015625 1.765625l-0.90625 1.453125zm-22.953125 -4.4375l0 -3.6875l11.9375 0l0 3.6875l-4.421875 0q-0.21875 3.375 -1.25 5.8125l4.546875 0l0 16.1875l-3.4375 0l0 -2.0l-1.9375 0l0 3.25l-3.4375 0l0.25 -10.453125q0.1875 0.1875 -1.25 1.828125l-2.453125 -3.1875q4.609375 -5.125 5.25 -11.4375l-3.796875 0zm16.6875 12.625l0 1.6875l2.9375 0l0 -1.6875l-2.9375 0zm0 -4.875l0 1.5625l2.9375 0l0 -1.5625l-2.9375 0zm0 9.875l0 1.8125l2.9375 0l0 -1.8125l-2.9375 0zm-11.25 -8.5l0 7.5625l1.9375 0l0 -7.5625l-1.9375 0zm36.328125 -0.84375q5.015625 -1.359375 5.9375 -4.0625l-3.40625 -1.390625l1.375 -3.328125l2.78125 1.046875l0.109375 -1.421875l-5.1875 0l0 -3.6875l16.328125 0l-0.265625 11.421875q-0.15625 3.765625 -3.28125 3.765625l-3.46875 0l-0.390625 -3.6875l3.359375 0q0.09375 0 0.09375 -0.109375l0.234375 -7.703125l-3.609375 0l-0.28125 2.96875l3.1875 1.71875l-1.71875 3.4375l-2.421875 -1.328125q-1.46875 4.203125 -7.875 6.09375l-1.5 -3.734375zm16.328125 13.84375q-1.15625 -4.359375 -3.71875 -7.671875l3.46875 -1.53125q3.15625 3.875 4.078125 7.5625l-3.828125 1.640625zm-15.65625 -9.4375l0 10.9375l-3.4375 0l0 -0.875l-2.9375 0l0 1.375l-3.4375 0l0 -11.4375l9.8125 0zm-0.46875 9.109375q1.03125 -3.6875 1.328125 -8.296875l3.296875 0.328125q1.171875 0.578125 0.203125 1.546875q-0.109375 3.84375 -1.34375 7.390625l-3.484375 -0.96875zm8.8125 -13.359375q2.21875 1.4375 4.421875 4.875l-3.578125 2.078125q-1.140625 -2.296875 -3.734375 -5.03125l2.890625 -1.921875zm-17.65625 -13.5l8.8125 0l0 3.6875l-8.8125 0l0 -3.6875zm-1.625 4.25l12.0625 0l0 3.6875l-12.0625 0l0 -3.6875zm1.625 4.625l8.8125 0l0 3.6875l-8.8125 0l0 -3.6875zm0 4.25l8.8125 0l0 3.6875l-8.8125 0l0 -3.6875zm2.9375 7.9375l0 3.4375l2.9375 0l0 -3.4375l-2.9375 0zm13.515625 -3.6875q2.703125 0.34375 0.734375 1.75l0 5.53125q0 0.21875 0.09375 0.21875l2.75 0q0.1875 0 0.21875 -0.1875l0.34375 -2.71875l3.828125 0.953125l-0.625 3.234375q-0.484375 2.40625 -2.890625 2.40625l-4.75 0q-2.78125 0 -2.78125 -2.90625l0 -8.28125l3.078125 0zm36.8125 3.9375q-5.9375 6.5 -12.484375 6.5q-4.765625 0 -7.09375 -2.3125q-1.8125 -1.828125 -1.8125 -6.71875l0 -17.40625l3.359375 0q2.46875 0.546875 0.828125 1.953125l0 15.453125q0 2.859375 0.9375 3.78125q1.171875 1.1875 3.65625 1.1875q4.578125 0 9.90625 -5.859375l2.703125 3.421875zm28.171875 -14.5q-5.046875 0 -7.4375 0.84375q-2.609375 0.9375 -4.875 3.21875q-2.1875 2.171875 -2.1875 5.65625q0 2.734375 1.6875 4.40625q2.3125 2.328125 10.078125 2.59375l-1.46875 4.0625q-8.109375 -0.421875 -11.171875 -3.46875q-3.0625 -3.078125 -3.0625 -7.46875q0 -6.203125 2.734375 -8.203125q-3.234375 0.484375 -9.9375 1.4375l-1.09375 -4.203125q13.0 -0.9375 25.984375 -3.15625l0.75 4.28125zm16.84375 1.0q0.21875 0.6875 0.953125 1.875q3.53125 -0.546875 7.921875 -1.828125l1.65625 3.890625q-4.03125 0.921875 -7.34375 1.40625q1.15625 1.53125 4.6875 4.171875l-2.921875 2.921875q-4.78125 -1.0625 -7.328125 -1.0625q-4.734375 0 -6.03125 1.3125q-0.6875 0.671875 -0.6875 1.40625q0 0.984375 0.5625 1.53125q0.796875 0.8125 5.15625 0.8125l8.40625 0l-0.734375 4.0625l-8.171875 0q-5.265625 0 -7.46875 -2.1875q-1.6875 -1.703125 -1.6875 -4.34375q0 -2.140625 1.5625 -3.71875q2.328125 -2.3125 9.21875 -2.3125q2.296875 0 2.703125 0.0625q-0.453125 -0.484375 -1.609375 -1.953125q-5.546875 0.703125 -13.15625 0.703125l-0.578125 -3.953125q7.109375 0.140625 11.734375 -0.375q-0.453125 -0.8125 -0.796875 -1.875q-4.140625 0.328125 -9.765625 0.328125l-0.390625 -3.828125q5.84375 0.140625 9.140625 -0.15625q-0.421875 -1.546875 -0.90625 -5.203125l3.5625 0q2.875 0.578125 0.765625 1.96875q0.1875 1.453125 0.453125 2.71875q2.59375 -0.296875 6.515625 -1.3125l1.328125 3.796875q-5.015625 0.875 -6.75 1.140625zm28.03125 10.6875q4.6875 1.03125 10.234375 3.734375l-2.0 3.984375q-5.15625 -3.203125 -8.234375 -3.96875q0 2.671875 -1.8125 4.5q-1.703125 1.6875 -5.34375 1.6875q-2.890625 0 -4.71875 -1.8125q-1.3125 -1.328125 -1.3125 -3.59375q0 -2.015625 1.4375 -3.46875q1.828125 -1.8125 5.46875 -1.8125q1.015625 0 2.46875 0.078125l0 -2.5l-9.5 0.25l0 -3.8125l9.5 -0.25l0 -3.0625l-11.75 0.375l0 -3.8125l11.75 -0.375l0 -4.890625l2.96875 0q3.03125 0.546875 0.84375 2.0l0 2.59375l10.25 -0.375l0 3.8125l-10.25 0.375l0 3.203125l8.125 -0.25l0 3.8125l-8.125 0.25l0 3.328125zm-3.90625 2.953125q-0.8125 -0.140625 -2.125 -0.140625q-2.234375 0 -3.03125 0.8125q-0.4375 0.421875 -0.4375 1.15625q0 0.484375 0.4375 0.90625q0.671875 0.6875 2.28125 0.6875q1.234375 0 2.03125 -0.8125q0.921875 -0.921875 0.84375 -2.609375zm30.34375 -1.03125q-0.671875 0.390625 -2.46875 0.390625q-2.390625 0 -3.71875 -1.3125q-1.6875 -1.703125 -1.6875 -3.84375q0 -2.265625 1.6875 -3.96875q1.703125 -1.6875 4.21875 -1.6875q1.59375 0 2.21875 0.171875l0 -1.1875l-13.625 0.859375l-0.75 -3.9375l14.375 -0.625l0 -5.90625l2.96875 0q3.03125 0.546875 0.84375 2.0l0 3.703125l10.625 -0.75l0 3.953125l-10.625 0.5l0 4.046875q0.5 2.25 0.5 5.078125q-0.125 6.75 -7.8125 11.546875l-3.53125 -2.609375q6.78125 -3.9375 6.78125 -6.421875zm-1.71875 -6.984375q-1.109375 0 -1.78125 0.6875q-0.5625 0.546875 -0.5625 1.53125q0 0.859375 0.4375 1.28125q0.421875 0.4375 1.53125 0.4375q1.109375 0 1.78125 -0.6875q0.5625 -0.546875 0.5625 -1.40625q0 -0.859375 -0.5625 -1.40625q-0.421875 -0.4375 -1.40625 -0.4375z" fill-rule="nonzero"/><path fill="#000000" fill-opacity="0.0" d="m102.95016 784.42456l166.4567 0l0 38.64569l-166.4567 0z" fill-rule="evenodd"/><path fill="#000000" d="m115.21578 804.8884q-2.296875 -2.484375 -1.96875 -2.78125l0.421875 16.28125l-4.015625 0l0.765625 -16.671875q-0.625 4.46875 -3.734375 8.15625l-2.578125 -4.078125q3.578125 -5.125 5.171875 -11.03125l-3.84375 0l0 -4.296875l4.21875 0l0 -7.0l3.15625 0q3.140625 0.375 0.859375 2.03125l0 4.96875l3.359375 0l0 4.296875l-3.359375 0l0 2.859375q2.359375 1.3125 3.96875 3.3125l-2.421875 3.953125zm14.046883 -9.0q0 3.46875 0.21875 5.796875l2.265625 0q-0.015625 -0.078125 -1.296875 -1.875l4.359375 -1.15625q1.390625 2.0 1.6875 3.03125l3.265625 0l0 3.859375l-9.9375 0q0.28125 1.9375 0.828125 3.078125q1.03125 -0.96875 2.953125 -4.265625l3.15625 1.671875q2.40625 1.578125 -0.359375 2.203125q-1.765625 2.734375 -3.0 3.859375q1.25 1.265625 2.25 1.265625q0.21875 0 0.71875 -3.53125l3.890625 2.28125q-0.546875 4.359375 -2.453125 5.5625q-3.0 1.953125 -7.765625 -2.828125q-2.6406326 2.0 -7.6406326 3.546875l-1.96875 -4.1875q4.53125 -1.21875 6.9375 -2.953125q-1.375 -2.765625 -1.609375 -5.703125l-3.921875 0l0 0.875q2.203125 0.734375 5.234375 3.0l-2.640625 3.9375q-1.796875 -1.546875 -2.78125 -2.25q-0.609375 4.015625 -5.328125 7.53125l-3.484375 -3.515625q4.671875 -2.75 4.546875 -7.84375l0 -1.734375l-1.609375 0l0 -3.859375l9.6875 0q-0.0625 -0.65625 -0.015625 -0.6875l-1.90625 0.71875l-0.3125 -1.609375l-4.765625 0.703125q-0.671875 2.421875 -1.890625 0.046875l-1.21875 -3.84375l2.0625 0l1.171875 -2.0625l-3.078125 -2.203125l1.96875 -3.1875l0.484375 0.703125l2.640625 -6.453125l2.984375 2.015625q1.9375 1.9375 -0.359375 1.9375l-2.4375 3.984375l-0.25 -0.171875l2.328125 -3.921875l2.609375 1.8125q2.0 1.9375 -0.34375 1.9375l-3.4375 5.3125l0.484375 -0.046875l-0.765625 -2.078125l2.984375 -1.25q1.59375 2.375 1.625 5.609375l-0.765625 -15.203125l3.1406326 0q3.171875 0.421875 0.859375 2.046875l0 10.09375zm6.71875 3.21875l-4.828125 0.9375q-0.734375 2.484375 -1.890625 0.078125l-1.203125 -3.578125l1.90625 -0.203125l1.15625 -1.734375l-3.5000076 -2.609375l2.0000076 -3.03125l0.5625 0.59375l2.828125 -5.703125l2.828125 1.8125q1.90625 1.953125 -0.359375 1.953125l-2.28125 3.53125l0.046875 0.03125l2.28125 -3.59375l2.609375 1.40625q2.03125 1.96875 -0.328125 1.96875l-3.453125 4.9375l0.46875 -0.0625l-0.828125 -1.953125l3.3125 -0.75q1.8125 2.734375 2.765625 6.453125l-3.640625 1.21875l-0.453125 -1.703125zm28.734375 -4.28125q-2.640625 -1.421875 -5.3125 -6.03125q-2.609375 4.28125 -5.046875 6.03125l10.359375 0zm10.3125 4.71875q-3.203125 -0.75 -6.25 -2.484375l0 2.515625l-18.0 0l0 -2.21875q-2.828125 2.0 -7.140625 3.265625l-1.859375 -4.953125q10.703125 -2.90625 15.765625 -12.265625l3.5625 0.5q3.109375 0.375 1.109375 1.828125q4.078125 6.140625 14.875 8.921875l-2.0625 4.890625zm-3.859375 18.671875q-1.546875 -2.125 -2.828125 -3.296875l-20.53125 2.265625q-1.015625 1.015625 -2.328125 0.015625l-1.359375 -4.828125l6.515625 -0.3125l3.25 -5.921875l-9.96875 0l0 -4.75l31.421875 0l0 4.75l-16.0625 0l-3.390625 5.640625l8.703125 -0.640625q-0.5625 -0.515625 -3.734375 -2.890625l3.984375 -2.65625q7.515625 5.640625 10.703125 9.890625l-4.375 2.734375zm35.375 -5.671875l-4.875 0l0 -1.59375l-14.65625 0l0 2.328125l-4.890625 0l0 -24.28125l24.421875 0l0 23.546875zm-19.53125 -18.796875l0 12.453125l14.65625 0l0 -12.453125l-14.65625 0zm44.177795 7.109375q5.734375 4.375 12.46875 11.265625l-4.109375 3.484375q-6.578125 -6.890625 -11.65625 -10.8125q-5.28125 5.6875 -13.125 10.875l-3.96875 -3.546875q16.109375 -10.484375 19.875 -19.171875l-15.359375 0.984375l-0.625 -5.046875l17.671875 -0.765625l2.09375 -0.515625l2.640625 2.640625q2.03125 2.046875 -0.640625 2.546875q-2.625 4.53125 -5.265625 8.0625z" fill-rule="nonzero"/><path fill="#000000" fill-opacity="0.0" d="m31.421312 650.0951l260.97638 0l0 63.24414l-260.97638 0z" fill-rule="evenodd"/><path fill="#ffffff" d="m77.362625 668.84436q-4.15625 -5.53125 -8.125 -8.796875l2.578125 -2.765625q4.953125 2.828125 8.859375 8.421875l-3.3125 3.140625zm-25.234371 8.875q14.296871 -0.140625 21.031246 -12.03125l2.859375 2.703125q2.0 2.0 -0.734375 2.0q-7.609375 11.234375 -21.546871 11.640625l-1.609375 -4.3125zm-1.859375 -9.296875q4.109375 -3.5625 6.65625 -10.953125l3.640625 1.59375q1.515625 1.515625 -0.234375 1.765625q-1.9375 6.515625 -7.078125 11.09375l-2.984375 -3.5zm16.953121 3.1875q0 2.28125 -2.40625 2.28125l-4.203121 0l-0.546875 -4.0625l3.125 0q0 0.15625 -0.15625 0.15625l0 -17.28125l3.4687462 0q2.875 0.578125 0.71875 2.0l0 16.90625zm27.234375 -8.21875q-2.34375 4.453125 -7.265625 10.609375l-3.34375 -2.40625q6.890625 -7.6875 9.90625 -17.03125l3.515625 0.921875q2.84375 1.0625 0.015625 1.921875q-0.625 1.359375 -0.90625 1.921875l8.625 0l0.65625 -0.828125l3.140625 1.9375q1.796875 1.1875 -0.421875 2.078125q-3.625 5.6875 -6.0625 10.0q1.890625 1.1875 4.625 3.46875l-2.625 4.0q-5.125 -4.703125 -12.453125 -8.515625l2.359375 -3.4375q2.90625 1.375 4.734375 2.4375q2.171875 -3.5625 4.125 -7.078125l-8.625 0zm31.140625 2.359375q2.5 -0.671875 4.71875 -0.671875q5.515625 0 8.34375 2.8125q2.3125 2.328125 2.3125 5.71875q0 3.140625 -1.6875 4.84375q-2.078125 2.0625 -5.09375 2.0625q-3.015625 0 -4.59375 -1.5625q-1.3125 -1.328125 -2.390625 -3.3125l3.390625 -2.265625q0.765625 1.734375 1.6875 2.640625q0.671875 0.6875 1.90625 0.6875q1.234375 0 2.15625 -0.9375q0.6875 -0.671875 0.6875 -2.28125q0 -1.734375 -1.5625 -3.28125q-1.421875 -1.4375 -4.78125 -1.4375q-2.640625 0 -5.09375 0.8125l0 6.15625q0 2.640625 -1.5625 4.21875q-1.578125 1.5625 -3.96875 1.5625q-1.890625 0 -3.46875 -1.5625q-1.4375 -1.453125 -1.4375 -3.59375q0 -3.765625 2.4375 -6.21875q1.828125 -1.8125 4.1875 -3.046875l0 -4.25q-2.421875 0.296875 -5.65625 0.296875l-0.578125 -3.96875q3.375 0.15625 6.234375 -0.15625l0 -6.3125l3.234375 0q2.421875 0.609375 0.578125 1.984375l0 3.765625q1.90625 -0.34375 4.8125 -1.640625l0.9375 4.109375q-3.0 0.953125 -5.75 1.375l0 3.453125zm-3.8125 5.640625q-0.671875 0.46875 -1.5 1.3125q-1.4375 1.421875 -1.4375 3.40625q0 0.984375 0.3125 1.28125q0.421875 0.4375 1.03125 0.4375q1.59375 0 1.59375 -2.84375l0 -3.59375zm13.28125 -15.765625q4.6875 2.984375 7.390625 6.140625l-2.890625 2.890625q-3.421875 -3.40625 -7.25 -5.90625l2.75 -3.125zm9.484375 4.125q4.515625 -2.734375 7.0 -7.421875l2.703125 1.578125q2.6875 1.34375 -0.15625 1.921875q-2.796875 4.5 -7.515625 7.453125l-2.03125 -3.53125zm16.0625 18.859375q-1.78125 -2.421875 -4.640625 -4.828125l2.78125 -2.78125q3.4375 2.53125 4.765625 4.703125l-2.90625 2.90625zm3.75 -26.40625q2.703125 0.34375 0.734375 1.75l0 2.125l6.5 0l0 3.6875l-6.5 0l0 2.1875l9.375 0l0 3.6875l-5.375 0l0 2.1875l4.5 0l0 3.6875l-4.5 0l0 7.84375q0 2.65625 -2.65625 2.65625l-3.4375 0l-0.578125 -3.6875l3.015625 0q0 0.15625 -0.15625 0.15625l0 -6.96875l-11.0 0l0 -3.6875l11.0 0l0 -2.1875l-11.375 0l0 -3.6875l7.375 0l0 -2.1875l-5.75 0l0 -3.6875l5.75 0l0 -3.875l3.078125 0zm-9.140625 7.8125q2.765625 1.03125 -0.09375 1.890625q-1.0 1.78125 -2.15625 3.640625l0 16.59375l-3.8125 0l0 -11.859375q-0.671875 0.71875 -2.734375 2.015625l-1.953125 -3.90625q4.703125 -3.21875 7.9375 -10.09375l2.8125 1.71875zm28.9375 17.03125q9.265625 0.265625 11.1875 -1.65625q0.9375 -0.921875 0.9375 -2.40625q0 -1.234375 -1.0625 -2.28125q-0.921875 -0.9375 -3.15625 -0.9375q-3.09375 0 -5.453125 1.1875q-1.4375 0.703125 -5.28125 3.875l-3.25 -2.53125q1.234375 -1.234375 1.765625 -1.984375q1.328125 -4.234375 2.03125 -7.703125q-2.53125 0.28125 -5.875 0.28125l-0.578125 -3.8125q3.609375 0 7.234375 -0.328125q0.5 -2.234375 0.8125 -6.09375l3.125 0.8125q3.21875 0.8125 0.671875 2.078125q-0.3125 1.703125 -0.59375 2.8125q4.03125 -0.40625 7.53125 -1.15625l0.765625 3.96875q-5.703125 0.71875 -9.125 1.046875q-0.765625 3.296875 -1.3125 5.546875q3.375 -1.6875 7.15625 -1.6875q4.515625 0 6.71875 2.1875q1.9375 1.953125 1.9375 5.09375q0 3.015625 -1.9375 4.96875q-2.953125 2.9375 -12.953125 2.8125l-1.296875 -4.09375zm20.375 -9.9375q0 -1.671875 1.59375 -3.109375q8.046875 -7.5625 10.765625 -11.984375l2.875 2.234375q2.375 2.640625 -0.765625 2.1875q-1.6875 2.46875 -9.734375 10.015625q-0.296875 0.296875 -0.296875 0.40625q0 0.421875 0.25 0.609375q7.046875 5.53125 11.734375 10.921875l-3.171875 3.1875q-4.8125 -5.625 -11.140625 -11.09375q-2.109375 -1.828125 -2.109375 -3.375zm44.9375 0.125q-7.890625 0.28125 -12.578125 2.265625l-1.125 -3.78125q6.046875 -2.390625 12.96875 -2.390625l0.734375 3.90625zm0.5 9.09375l0 4.0625l-6.15625 0q-4.90625 0 -9.875 -2.625l1.71875 -3.4375q3.703125 2.0 8.15625 2.0l6.15625 0zm-11.015625 -14.453125q-3.90625 0.75 -6.328125 1.078125q-1.796875 10.71875 -4.8125 17.84375l-4.015625 -1.28125q3.625 -8.46875 4.859375 -16.1875q-2.3125 0.1875 -5.125 0.1875l-0.765625 -3.8125q4.265625 0 6.46875 -0.203125q0.421875 -3.34375 0.890625 -6.921875l3.21875 0.640625q2.953125 0.8125 0.65625 2.078125q-0.296875 1.203125 -0.765625 3.796875q1.953125 -0.25 4.953125 -1.046875l0.765625 3.828125zm6.515625 -9.890625q2.578125 1.453125 5.984375 3.96875l-1.84375 2.84375q-3.28125 -2.390625 -5.96875 -3.96875l1.828125 -2.84375zm-2.484375 2.484375q2.8125 1.71875 5.96875 3.96875l-1.828125 2.84375q-3.296875 -2.25 -5.96875 -3.96875l1.828125 -2.84375zm20.656265 8.203125q-4.671875 0.34375 -10.187515 0.34375l-1.140625 -3.8125q6.9843903 0 9.843765 -0.1875q-0.984375 -2.734375 -1.625 -6.5625l3.609375 0q2.46875 0.546875 0.890625 1.90625q0.421875 1.953125 1.234375 4.296875q3.8125 -0.328125 7.546875 -1.21875l0.921875 4.09375q-4.359375 0.609375 -6.875 0.78125q1.953125 3.71875 7.546875 7.53125l-2.65625 3.203125q-4.953125 -2.28125 -9.3125 -2.28125q-3.859375 0 -5.28125 1.4375q-0.5625 0.546875 -0.5625 1.65625q0 0.984375 0.9375 1.90625q1.546875 1.5625 7.78125 1.5625l5.203125 0l-0.921875 4.0625l-5.28125 0q-6.765625 0 -9.593765 -2.8125q-2.0625 -2.078125 -2.0625 -4.71875q0 -2.640625 1.5625 -4.21875q2.4531403 -2.4375 7.4687653 -2.4375q4.953125 0 5.5 1.15625q-3.5625 -3.40625 -4.546875 -5.6875z" fill-rule="nonzero"/><path fill="#ffffff" d="m144.18959 708.5895q-1.34375 3.453125 -2.671875 5.03125q-1.9375 2.359375 -4.0 2.359375q-3.5625 0 -5.234375 -4.03125q-0.921875 -2.25 -0.921875 -9.375q0 -5.03125 0.578125 -10.9375l3.359375 0.796875q2.984375 0.75 0.59375 2.28125q-0.46875 4.265625 -0.46875 7.984375q0 5.03125 0.59375 7.0625q0.484375 1.65625 1.25 1.65625q0.96875 0 1.78125 -1.640625q0.609375 -1.21875 1.515625 -3.734375l3.625 2.546875zm6.703125 -15.21875q6.125 6.40625 7.484375 15.5625l-4.640625 1.203125q-1.578125 -9.25 -6.640625 -14.59375l3.796875 -2.171875z" fill-rule="nonzero"/><path fill="#ffffff" d="m163.53334 715.9801q-1.4375 0 -2.359375 -0.84375q-0.90625 -0.84375 -0.90625 -2.09375q0 -1.28125 0.90625 -2.140625q0.921875 -0.875 2.359375 -0.875q1.40625 0 2.3125 0.875q0.921875 0.859375 0.921875 2.140625q0 1.25 -0.921875 2.09375q-0.90625 0.84375 -2.3125 0.84375zm9.024017 0q-1.4375 0 -2.359375 -0.84375q-0.90625 -0.84375 -0.90625 -2.09375q0 -1.28125 0.90625 -2.140625q0.921875 -0.875 2.359375 -0.875q1.40625 0 2.3125 0.875q0.921875 0.859375 0.921875 2.140625q0 1.25 -0.921875 2.09375q-0.90625 0.84375 -2.3125 0.84375zm9.024017 0q-1.4375 0 -2.359375 -0.84375q-0.90625 -0.84375 -0.90625 -2.09375q0 -1.28125 0.90625 -2.140625q0.921875 -0.875 2.359375 -0.875q1.40625 0 2.3125 0.875q0.921875 0.859375 0.921875 2.140625q0 1.25 -0.921875 2.09375q-0.90625 0.84375 -2.3125 0.84375zm9.024017 0q-1.4375 0 -2.359375 -0.84375q-0.90625 -0.84375 -0.90625 -2.09375q0 -1.28125 0.90625 -2.140625q0.921875 -0.875 2.359375 -0.875q1.40625 0 2.3125 0.875q0.921875 0.859375 0.921875 2.140625q0 1.25 -0.921875 2.09375q-0.90625 0.84375 -2.3125 0.84375z" fill-rule="nonzero"/><path fill="#000000" fill-opacity="0.0" d="m345.51108 186.46709l221.16537 0l0 60.755905l-221.16537 0z" fill-rule="evenodd"/><path fill="#000000" d="m354.94858 198.47742l0 5.28125l-5.28125 0l0 -5.28125l5.28125 0zm12.65625 0l0 5.28125l-5.28125 0l0 -5.28125l5.28125 0zm12.65625 0l0 5.28125l-5.28125 0l0 -5.28125l5.28125 0zm22.53125 1.390625q-9.84375 1.78125 -12.90625 4.8125q-0.921875 0.953125 -0.921875 1.921875q0 0.671875 0.53125 1.21875q0.546875 0.53125 2.515625 0.53125l10.0 0l0 3.21875l-10.109375 0q-3.484375 0 -4.90625 -1.453125q-1.4375 -1.421875 -1.4375 -3.3125q0 -2.40625 1.734375 -4.125q1.234375 -1.234375 3.671875 -2.625q-0.46875 -1.15625 -0.5625 -3.015625l-0.421875 -7.078125l2.671875 0q2.375 0.453125 0.671875 1.578125l0.1875 4.46875q0.09375 1.96875 0.421875 2.703125q2.34375 -1.0 7.484375 -2.421875l1.375 3.578125zm-3.390625 -8.765625q2.671875 1.609375 4.703125 3.03125l-1.609375 2.09375q-2.171875 -1.453125 -4.734375 -3.03125l1.640625 -2.09375zm2.171875 -2.0q2.578125 1.640625 4.734375 3.03125l-1.640625 2.125q-2.46875 -1.65625 -4.734375 -3.046875l1.640625 -2.109375zm12.283691 21.171875q-3.28125 0 -4.609375 -1.34375q-1.34375 -1.328125 -1.34375 -3.515625q0 -1.15625 0.515625 -3.140625l3.34375 0.421875q-0.65625 2.109375 -0.65625 2.71875q0 0.671875 0.4375 1.125q0.546875 0.53125 2.40625 0.53125l11.296875 0l0 3.203125l-11.390625 0zm-4.46875 -17.734375l13.875 0l0 3.203125l-13.875 0l0 -3.203125zm34.030273 17.046875q-4.84375 0 -8.390625 -3.4375l1.90625 -2.484375q2.9375 2.8125 6.484375 2.71875l5.953125 0l0 3.203125l-5.953125 0zm-14.625 1.921875q-0.328125 -5.6875 -0.328125 -9.359375q0 -4.5 1.203125 -11.21875l2.484375 0.640625q2.296875 0.390625 0.46875 1.6875q-0.953125 5.484375 -0.953125 8.890625q0 3.84375 0.453125 9.078125l-3.328125 0.28125zm19.296875 -14.65625q-4.75 -0.125 -12.109375 0.640625l0 -3.125q7.625 -0.734375 12.109375 -0.625l0 3.109375zm14.438721 13.0625q4.6875 -0.453125 5.9375 -1.703125q0.9375 -0.9375 0.9375 -2.703125q0 -1.953125 -0.9375 -2.90625q-1.15625 -1.140625 -2.8125 -1.296875q-1.515625 4.875 -3.328125 6.78125l0.625 1.359375l-2.734375 2.0l-0.46875 -1.046875q-2.203125 1.859375 -4.171875 1.859375q-1.40625 0 -2.53125 -1.140625q-1.234375 -1.234375 -1.234375 -3.328125q0 -3.578125 2.421875 -6.0q1.4375 -1.453125 2.734375 -2.125l0.140625 -2.90625l-4.015625 0.1875l-0.609375 -3.203125l4.78125 -0.09375q0.078125 -1.8125 0.328125 -4.375l2.390625 0q2.171875 0.453125 0.625 1.59375q-0.15625 1.546875 -0.21875 2.625q4.125 -0.265625 7.953125 -0.9375l0.609375 3.21875q-4.71875 0.5625 -8.734375 0.75l-0.109375 1.90625q0.71875 -0.25 2.84375 -0.34375l0.3125 -1.671875l2.40625 0.390625q1.890625 0.4375 0.578125 1.5625l0 -0.046875q2.71875 0.265625 4.53125 2.078125q2.03125 2.03125 2.03125 5.21875q0 2.984375 -1.84375 4.796875q-1.890625 1.90625 -6.546875 2.6875l-1.890625 -3.1875zm-5.234375 -7.0625q-0.03125 0.015625 -0.953125 0.9375q-1.625 1.640625 -1.625 4.296875q0 0.5625 0.453125 1.015625q0.03125 0.046875 0.40625 0.046875q1.265625 0 2.78125 -1.5q-0.921875 -2.734375 -1.0625 -4.796875zm2.96875 -1.421875q0.09375 2.09375 0.609375 3.5q0.953125 -1.3125 1.484375 -3.84375q-1.0625 0 -2.09375 0.34375zm27.03247 -0.375q0 -6.6875 -0.453125 -10.890625l2.578125 0q2.40625 0.203125 0.71875 1.546875q0.265625 2.890625 0.265625 9.453125q0 7.71875 -7.625 11.8125l-2.46875 -2.484375q6.984375 -3.328125 6.984375 -9.4375zm-5.890625 3.671875q-1.03125 0.8125 -2.296875 0.8125q-0.90625 0 -1.640625 -0.75q-0.84375 -0.859375 -0.84375 -6.296875q0 -3.984375 0.453125 -7.734375l2.71875 0q2.0 0.75 0.359375 1.546875q-0.421875 2.078125 -0.421875 6.1875q-0.125 3.859375 -0.125 3.734375q0.125 0 0.46875 -0.28125q0.640625 -0.546875 2.546875 -3.046875l2.21875 2.234375q-2.0 2.484375 -3.4375 3.59375zm24.916748 -0.234375q3.71875 0.828125 8.0937195 2.953125l-1.578125 3.15625q-4.0624695 -2.53125 -6.5155945 -3.140625q0 2.125 -1.4375 3.546875q-1.328125 1.34375 -4.21875 1.34375q-2.296875 0 -3.71875 -1.4375q-1.046875 -1.03125 -1.046875 -2.828125q0 -1.609375 1.140625 -2.734375q1.4375 -1.4375 4.328125 -1.4375q0.796875 0 1.953125 0.0625l0 -1.984375l-7.515625 0.1875l0 -3.0l7.515625 -0.203125l0 -2.421875l-9.296875 0.296875l0 -3.015625l9.296875 -0.296875l0 -3.875l2.34375 0q2.375 0.453125 0.65625 1.59375l0 2.0625l8.1093445 -0.296875l0 3.0l-8.1093445 0.296875l0 2.53125l6.4374695 -0.203125l0 3.015625l-6.4374695 0.1875l0 2.640625zm-3.09375 2.34375q-0.625 -0.109375 -1.671875 -0.109375q-1.765625 0 -2.40625 0.625q-0.34375 0.359375 -0.34375 0.921875q0 0.375 0.34375 0.734375q0.546875 0.53125 1.8125 0.53125q0.984375 0 1.625 -0.625q0.71875 -0.734375 0.640625 -2.078125zm24.012665 -0.828125q-0.53125 0.3125 -1.953125 0.3125q-1.890625 0 -2.921875 -1.046875q-1.34375 -1.328125 -1.34375 -3.03125q0 -1.796875 1.34375 -3.125q1.328125 -1.34375 3.3125 -1.34375q1.25 0 1.765625 0.140625l0 -0.953125l-10.78125 0.6875l-0.578125 -3.109375l11.359375 -0.5l0 -4.671875l2.34375 0q2.390625 0.4375 0.671875 1.59375l0 2.921875l8.390625 -0.578125l0 3.09375l-8.390625 0.40625l0 3.203125q0.390625 1.78125 0.390625 4.015625q-0.09375 5.328125 -6.1875 9.140625l-2.78125 -2.0625q5.359375 -3.125 5.359375 -5.09375zm-1.359375 -5.515625q-0.875 0 -1.421875 0.53125q-0.4375 0.453125 -0.4375 1.21875q0 0.671875 0.34375 1.03125q0.359375 0.34375 1.21875 0.34375q0.875 0 1.421875 -0.546875q0.4375 -0.453125 0.4375 -1.125q0 -0.671875 -0.4375 -1.109375q-0.359375 -0.34375 -1.125 -0.34375zm36.01123 -5.25q-3.984375 0 -5.875 0.671875q-2.0625 0.75 -3.875 2.546875q-1.71875 1.734375 -1.71875 4.484375q0 2.15625 1.328125 3.5q1.84375 1.8125 7.96875 2.046875l-1.140625 3.1875q-6.421875 -0.328125 -8.828125 -2.75q-2.4375 -2.40625 -2.4375 -5.890625q0 -4.90625 2.1875 -6.5q-2.578125 0.390625 -7.875 1.140625l-0.875 -3.3125q10.28125 -0.734375 20.5625 -2.5l0.578125 3.375zm-2.6875 7.90625q-2.5625 -1.84375 -4.65625 -3.03125l1.671875 -2.0q1.875 1.125 4.625 3.03125l-1.640625 2.0zm1.96875 -2.390625q-2.75 -1.921875 -4.625 -3.015625l1.640625 -1.984375q1.796875 1.015625 4.640625 3.03125l-1.65625 1.96875z" fill-rule="nonzero"/><path fill="#000000" d="m365.0892 243.19124q-4.6875 5.140625 -9.859375 5.140625q-3.78125 0 -5.609375 -1.84375q-1.4375 -1.421875 -1.4375 -5.296875l0 -13.765625l2.640625 0q1.984375 0.421875 0.65625 1.53125l0 12.234375q0 2.25 0.734375 3.0q0.953125 0.921875 2.90625 0.921875q3.625 0 7.84375 -4.625l2.125 2.703125zm10.879883 1.84375q-0.078125 1.40625 -1.296875 2.640625q-1.328125 1.34375 -3.734375 1.34375q-2.0 0 -3.015625 -1.046875q-1.15625 -1.125 -1.15625 -2.640625q0 -1.40625 1.15625 -2.53125q1.3125 -1.34375 3.609375 -1.34375q1.140625 0 1.546875 0.078125q-0.078125 -4.6875 -0.40625 -10.65625l2.375 0q2.375 0.453125 0.671875 1.578125l0.15625 3.25q2.8125 -0.078125 6.0625 -0.6875l0 2.625q-3.625 0.6875 -6.015625 0.6875l0.0625 3.75q3.953125 1.09375 7.3125 2.84375l-1.34375 2.6875q-3.984375 -1.984375 -5.984375 -2.578125zm-2.875 -0.671875q-0.734375 -0.1875 -1.5625 -0.1875q-1.265625 0 -1.71875 0.4375q-0.328125 0.34375 -0.328125 0.71875q0 0.96875 1.65625 0.96875q0.96875 0 1.421875 -0.4375q0.53125 -0.546875 0.53125 -1.5zm15.078613 2.015625q4.65625 -1.015625 6.828125 -3.1875q1.734375 -1.734375 1.734375 -4.078125q0 -1.5625 -0.84375 -2.40625q-0.734375 -0.71875 -1.859375 -0.640625q-2.703125 0.28125 -8.25 2.09375l-1.53125 -3.59375q4.375 -0.796875 7.625 -1.59375q1.75 -0.40625 2.703125 -0.40625q2.390625 0 3.921875 1.53125q1.734375 1.734375 1.734375 4.90625q0 4.078125 -2.828125 6.890625q-2.46875 2.484375 -7.0 3.703125l-2.234375 -3.21875zm9.484375 -15.3125q-4.4375 -0.4375 -10.625 -1.75l0.84375 -3.484375q5.984375 1.390625 10.484375 1.84375l-0.703125 3.390625zm4.9436035 15.921875q3.171875 -4.9375 5.078125 -11.203125q-1.375 0.1875 -3.984375 0.421875l-0.28125 -3.25q2.296875 0 5.109375 -0.265625q0.78125 -2.703125 1.484375 -6.421875l2.65625 0.890625q2.515625 1.03125 0.125 1.78125q-0.515625 1.796875 -0.90625 3.40625q0.4375 -0.078125 1.78125 -0.078125q1.578125 0 2.4375 0.84375q1.34375 1.328125 1.34375 5.703125q0 5.953125 -1.84375 7.765625q-1.125 1.15625 -2.640625 1.15625q-2.109375 0 -4.40625 -2.671875l1.875 -2.59375q1.859375 1.859375 2.4375 1.859375q0.28125 0 0.53125 -0.25q0.9375 -0.9375 0.9375 -5.671875q0 -2.546875 -0.4375 -3.0q-0.15625 -0.140625 -0.828125 -0.140625q-0.859375 0 -2.0625 0.15625q-2.0 7.046875 -5.125 12.71875l-3.28125 -1.15625zm20.3125 -4.5q-1.890625 -6.859375 -5.625 -10.34375l2.65625 -1.921875q4.46875 4.5625 6.09375 10.984375l-3.125 1.28125zm8.71875 -7.625q0 -1.125 0.546875 -2.21875q0.4375 -0.859375 1.1875 -1.609375q2.125 -2.125 6.5 -2.125q4.0625 0 5.796875 1.734375q1.4375 1.421875 1.4375 3.03125q0 1.34375 -0.6875 2.375q-0.765625 1.09375 -2.1875 1.75q-1.921875 0.859375 -2.765625 1.515625q-0.296875 0.234375 -0.296875 0.6875l0 1.296875l-3.203125 0l0 -2.0q0 -1.671875 1.234375 -2.40625q2.21875 -1.296875 3.5 -1.890625q0.796875 -0.4375 0.796875 -1.234375q0 -0.578125 -0.4375 -1.03125q-0.734375 -0.734375 -3.1875 -0.734375q-2.65625 0 -3.703125 1.03125q-0.921875 0.953125 -0.921875 1.828125l0 1.0l-3.609375 0l0 -1.0zm6.03125 8.171875l3.796875 0l0 3.90625l-3.796875 0l0 -3.90625z" fill-rule="nonzero"/><path fill="#000000" fill-opacity="0.0" d="m529.7864 214.57994l293.29132 0l0 29.795288l-293.29132 0z" fill-rule="evenodd"/><path fill="#000000" d="m595.3057 232.8687l-1.328125 0q0.296875 7.25 -10.296875 8.453125l-1.015625 -3.1875q8.375 -0.71875 8.203125 -5.265625l-1.359375 0l0 0.984375l-3.015625 0l0 -15.578125l16.171875 0l0 15.578125l-3.015625 0l0 -0.984375l-1.34375 0l0 4.53125q0 0.265625 0.1875 0.265625l3.5625 0q0.53125 0 0.6875 -0.40625l0.40625 -1.984375l3.171875 0.875l-0.5 2.140625q-0.484375 2.296875 -2.875 2.296875l-5.34375 0q-2.296875 0 -2.296875 -2.203125l0 -5.515625zm-5.796875 -2.921875l10.140625 0l0 -1.140625l-10.140625 0l0 1.140625zm0 -4.046875l10.140625 0l0 -0.84375l-10.140625 0l0 0.84375zm0 -3.765625l10.140625 0l0 -0.9375l-10.140625 0l0 0.9375zm25.421875 12.78125q7.875 -0.109375 10.109375 -2.328125q1.328125 -1.34375 1.328125 -3.3125q0 -2.046875 -1.421875 -3.484375q-1.046875 -1.03125 -3.796875 -1.03125q-2.375 0 -5.671875 1.15625q-2.546875 0.875 -6.078125 2.46875l-1.515625 -3.578125l6.09375 -1.765625q4.921875 -1.390625 7.46875 -1.390625q4.171875 0 6.1875 2.03125q2.046875 2.015625 2.046875 5.40625q0 3.578125 -1.9375 5.5q-3.515625 3.515625 -11.9375 3.625l-0.875 -3.296875zm17.312744 3.734375q3.171875 -4.9375 5.09375 -11.21875q-1.390625 0.1875 -4.0 0.4375l-0.28125 -3.25q2.3125 0 5.109375 -0.265625q0.78125 -2.71875 1.484375 -6.421875l2.65625 0.875q2.515625 1.0625 0.140625 1.78125q-0.515625 1.8125 -0.921875 3.40625q0.453125 -0.078125 1.78125 -0.078125q1.609375 0 2.4375 0.859375q1.34375 1.3125 1.34375 5.6875q0 5.96875 -1.84375 7.78125q-1.125 1.15625 -2.625 1.15625q-2.109375 0 -4.421875 -2.671875l1.890625 -2.609375q1.859375 1.875 2.4375 1.875q0.265625 0 0.53125 -0.25q0.921875 -0.9375 0.921875 -5.671875q0 -2.546875 -0.4375 -3.0q-0.15625 -0.140625 -0.828125 -0.140625q-0.859375 0 -2.0625 0.140625q-2.0 7.0625 -5.125 12.734375l-3.28125 -1.15625zm20.3125 -4.515625q-1.890625 -6.84375 -5.609375 -10.34375l2.65625 -1.90625q4.46875 4.5625 6.09375 10.96875l-3.140625 1.28125zm9.90625 2.84375l3.109375 0q4.71875 0 5.875 -1.125q0.921875 -0.953125 0.921875 -2.125q0 -0.96875 -0.828125 -1.8125q-0.75 -0.734375 -2.609375 -0.734375q-4.109375 0 -7.6875 4.265625l-2.765625 -0.25l1.203125 -11.671875l2.671875 0.515625q2.234375 0.890625 0.34375 1.640625l-0.53125 4.84375q2.625 -2.25 7.265625 -2.25q2.890625 0 4.609375 1.734375q1.4375 1.421875 1.4375 3.71875q0 2.5 -1.828125 4.328125q-2.125 2.125 -7.875 2.125l-2.140625 0l-1.171875 -3.203125zm-0.734375 -18.96875q3.203125 0.78125 8.515625 2.671875l-1.453125 2.921875q-3.984375 -1.65625 -8.40625 -2.890625l1.34375 -2.703125zm31.4906 8.671875q2.390625 0.4375 0.671875 1.59375l0 5.078125q2.15625 0.6875 5.359375 2.359375l-1.75 2.78125q-2.5625 -1.515625 -3.703125 -1.890625q-0.234375 1.640625 -1.359375 2.734375q-1.328125 1.34375 -3.609375 1.34375q-3.0 0 -4.21875 -1.25q-1.15625 -1.125 -1.15625 -2.921875q0 -1.515625 1.15625 -2.640625q1.421875 -1.4375 4.109375 -1.4375q1.765625 0 2.15625 0.125l0 -5.875l2.34375 0zm-11.359375 -1.234375q-0.828125 0.09375 -3.6875 0.09375l-0.4375 -3.109375q3.0625 0 5.140625 -0.15625q0.40625 -1.421875 1.21875 -4.9375l2.328125 0.78125q2.203125 0.875 0.25 1.65625l-0.609375 2.171875q0.890625 -0.09375 3.140625 -0.71875l0.734375 3.109375q-3.328125 0.71875 -4.78125 0.796875q-1.484375 4.75 -4.828125 11.171875l-2.90625 -1.46875q3.3125 -5.859375 4.4375 -9.390625zm9.921875 -4.21875q3.25 1.046875 7.625 2.734375l-1.3125 3.015625q-4.59375 -1.953125 -7.484375 -2.8125l1.171875 -2.9375zm-0.90625 14.265625q-0.75 -0.25 -2.15625 -0.25q-1.359375 0 -1.8125 0.453125q-0.34375 0.328125 -0.34375 0.8125q0 0.46875 0.25 0.703125q0.453125 0.453125 1.71875 0.453125q1.15625 0 1.609375 -0.4375q0.734375 -0.75 0.734375 -1.734375zm20.729675 -2.25q-1.0625 2.734375 -2.109375 3.984375q-1.53125 1.875 -3.15625 1.875q-2.828125 0 -4.15625 -3.1875q-0.71875 -1.796875 -0.71875 -7.421875q0 -3.984375 0.453125 -8.65625l2.65625 0.640625q2.34375 0.59375 0.46875 1.78125q-0.375 3.390625 -0.375 6.328125q0 3.984375 0.484375 5.59375q0.390625 1.3125 0.984375 1.3125q0.78125 0 1.40625 -1.296875q0.5 -0.96875 1.21875 -2.953125l2.84375 2.0zm5.3125 -12.015625q4.84375 5.046875 5.921875 12.28125l-3.65625 0.96875q-1.265625 -7.34375 -5.265625 -11.546875l3.0 -1.703125zm23.099243 5.453125q2.390625 0.4375 0.671875 1.59375l0 5.078125q2.15625 0.6875 5.359375 2.359375l-1.75 2.78125q-2.5625 -1.515625 -3.703125 -1.890625q-0.234375 1.640625 -1.359375 2.734375q-1.328125 1.34375 -3.609375 1.34375q-3.0 0 -4.21875 -1.25q-1.15625 -1.125 -1.15625 -2.921875q0 -1.515625 1.15625 -2.640625q1.421875 -1.4375 4.109375 -1.4375q1.765625 0 2.15625 0.125l0 -5.875l2.34375 0zm-11.359375 -1.234375q-0.828125 0.09375 -3.6875 0.09375l-0.4375 -3.109375q3.0625 0 5.140625 -0.15625q0.40625 -1.421875 1.21875 -4.9375l2.328125 0.78125q2.203125 0.875 0.25 1.65625l-0.609375 2.171875q0.890625 -0.09375 3.140625 -0.71875l0.734375 3.109375q-3.328125 0.71875 -4.78125 0.796875q-1.484375 4.75 -4.828125 11.171875l-2.90625 -1.46875q3.3125 -5.859375 4.4375 -9.390625zm9.921875 -4.21875q3.25 1.046875 7.625 2.734375l-1.3125 3.015625q-4.59375 -1.953125 -7.484375 -2.8125l1.171875 -2.9375zm-0.90625 14.265625q-0.75 -0.25 -2.15625 -0.25q-1.359375 0 -1.8125 0.453125q-0.34375 0.328125 -0.34375 0.8125q0 0.46875 0.25 0.703125q0.453125 0.453125 1.71875 0.453125q1.15625 0 1.609375 -0.4375q0.734375 -0.75 0.734375 -1.734375zm32.385925 -7.375q-1.40625 1.90625 -2.640625 3.015625q-1.71875 1.625 -4.09375 1.625q-1.828125 0 -4.921875 -1.859375q-2.140625 -1.296875 -3.484375 -1.296875q-1.4375 0 -2.1875 0.890625q-0.890625 1.09375 -1.140625 2.1875l-3.109375 -1.921875q1.078125 -1.984375 2.53125 -3.34375q1.625 -1.515625 3.703125 -1.515625q2.125 0 4.71875 1.5625q2.546875 1.5 4.1875 1.5q1.0625 0 2.203125 -1.125q0.53125 -0.546875 1.390625 -2.125l2.84375 2.40625z" fill-rule="nonzero"/><path fill="#000000" fill-opacity="0.0" d="m12.666667 180.58583l279.74805 0l0 60.755905l-279.74805 0z" fill-rule="evenodd"/><path fill="#000000" d="m31.430536 195.29645q3.890627 2.96875 8.453127 7.640625l-2.765625 2.359375q-4.46875 -4.671875 -7.921877 -7.34375q-3.59375 3.859375 -8.90625 7.390625l-2.6875 -2.40625q10.9375 -7.109375 13.484375 -13.015625l-10.421875 0.671875l-0.421875 -3.40625l11.984377 -0.53125l1.421875 -0.359375l1.78125 1.8125q1.390625 1.375 -0.421875 1.71875q-1.78125 3.0625 -3.578127 5.46875zm18.995302 -8.90625q-0.34375 0.984375 -0.546875 1.359375l5.671875 0l1.328125 -0.46875l1.53125 1.53125q0.875 1.078125 -0.328125 1.53125q-0.75 3.734375 -2.171875 6.640625l2.4375 1.625l-2.078125 3.046875l-2.171875 -1.578125q-2.65625 3.828125 -8.390625 6.703125l-3.25 -2.421875q6.625 -2.75 8.828125 -6.25q-2.03125 -1.296875 -4.890625 -2.828125l1.75 -2.625q3.484375 1.578125 5.015625 2.484375q1.203125 -2.46875 1.421875 -4.1875l-6.34375 0q-1.765625 3.15625 -4.890625 6.296875l-2.734375 -1.890625q5.375 -5.578125 7.078125 -11.859375l2.9375 1.234375q1.9375 0.953125 -0.203125 1.65625zm26.782467 6.25q-0.671875 6.34375 -3.6875 9.34375q-2.9375 2.953125 -8.078125 4.8125l-1.8906212 -2.78125q5.078121 -1.65625 7.578121 -4.140625q2.625 -2.625 3.046875 -9.734375l2.703125 0.90625q2.015625 0.671875 0.328125 1.59375zm-9.140625 3.921875q-1.390625 -3.109375 -2.875 -5.3125l2.765625 -1.46875q1.796875 2.265625 3.109375 5.359375l-3.0 1.421875zm-5.046871 1.515625q-1.390625 -3.234375 -2.96875 -5.546875l2.875 -1.46875q1.6874962 2.296875 2.9843712 5.453125l-2.8906212 1.5625zm17.537838 4.421875q12.78125 -2.984375 13.328125 -12.328125l-14.8125 0l0 -3.21875l15.5 0l1.59375 -0.34375l1.453125 1.34375q-0.40625 13.765625 -14.546875 17.609375l-2.515625 -3.0625zm36.881226 -10.28125q0.171875 3.265625 -0.015625 6.671875q2.6875 0.984375 5.90625 3.28125l-1.75 2.765625q-2.484375 -1.890625 -4.171875 -2.703125q0 1.1875 -1.25 2.421875q-1.328125 1.34375 -3.8125 1.34375q-2.5 0 -3.828125 -1.34375q-1.140625 -1.140625 -1.140625 -2.9375q0 -1.609375 0.953125 -2.53125q1.328125 -1.34375 3.90625 -1.34375q1.359375 0 2.09375 0.171875q0.171875 -2.734375 0 -5.640625l-7.34375 0.484375l0 -3.09375l7.09375 -0.40625q-0.078125 -2.234375 -0.453125 -4.96875l2.71875 0q2.40625 0.40625 0.6875 1.5625q0.078125 1.78125 0.140625 3.25l5.375 -0.296875l0 3.125l-5.109375 0.1875zm-15.921875 13.359375q-0.46875 -3.328125 -0.46875 -7.03125q0 -8.0625 1.3125 -13.453125l2.71875 0.5q1.75 0.765625 0.171875 1.546875q-1.0 3.1875 -1.0 11.40625q0 3.703125 0.609375 6.46875l-3.34375 0.5625zm12.8125 -4.5625q-1.28125 -0.359375 -2.09375 -0.359375q-1.15625 0 -1.609375 0.453125q-0.34375 0.328125 -0.34375 0.609375q0 0.578125 0.25 0.8125q0.546875 0.546875 1.703125 0.546875q1.15625 0 1.59375 -0.515625q0.546875 -0.625 0.5 -1.546875zm29.703133 -13.265625l3.84375 0l0 2.90625l-4.15625 0l0 2.140625l3.46875 0l0 2.90625l-3.46875 0l0 2.03125l3.5625 0l0 2.921875l-3.5625 0l0 2.328125l4.859375 0l0 2.90625l-9.90625 0l0 1.0l-3.0 0l0.203125 -13.125q0.125 0.15625 -1.359375 1.640625l-1.765625 -2.78125q3.078125 -2.765625 4.953125 -9.359375l2.53125 0.75q1.875 0.9375 0 1.421875q-0.609375 1.640625 -0.9375 2.3125l1.6875 0l1.625 -4.0l2.46875 0.90625q1.1875 1.21875 -0.234375 1.40625l-0.8125 1.6875zm-17.765633 -3.765625l7.1718826 0l0 2.921875l-7.1718826 0l0 -2.921875zm-1.1875 6.578125l0 -2.90625l9.750008 0l0 2.90625l-9.750008 0zm1.1875 0.546875l7.1718826 0l0 2.90625l-7.1718826 0l0 -2.90625zm0 3.359375l7.1718826 0l0 2.921875l-7.1718826 0l0 -2.921875zm-0.296875 3.671875l7.8593826 0l0 8.453125l-2.703125 0l0 -0.703125l-2.4375 0l0 1.09375l-2.7187576 0l0 -8.84375zm2.7187576 2.609375l0 2.53125l2.4375 0l0 -2.53125l-2.4375 0zm9.984375 -0.09375l0 2.328125l2.046875 0l0 -2.328125l-2.046875 0zm0 -4.953125l0 2.03125l2.046875 0l0 -2.03125l-2.046875 0zm0 -5.046875l0 2.140625l2.046875 0l0 -2.140625l-2.046875 0zm19.59375 8.9375q-0.171875 1.9375 0.734375 2.859375q0.953125 0.921875 2.71875 0.921875q2.34375 0 3.09375 -0.734375q0.734375 -0.75 0.734375 -2.609375q0 -1.40625 -0.734375 -3.984375l3.125 -0.453125q0.8125 3.296875 0.8125 4.34375q0 3.28125 -1.640625 4.90625q-1.71875 1.75 -5.5 1.75q-3.078125 0 -4.90625 -1.84375q-1.75 -1.734375 -1.546875 -4.75l0.171875 -2.421875l-5.015625 0l0 -2.90625l5.390625 0l0.28125 -2.828125l-4.578125 0l0 -2.90625l4.984375 0l0.5 -5.703125l2.75 0.375q2.328125 0.625 0.5625 1.625l-0.65625 3.703125l3.765625 0l0 2.90625l-4.203125 0l-0.28125 2.828125l4.6875 0l0 2.90625l-5.09375 0l-0.15625 2.015625zm23.162476 -0.34375q-1.0625 2.734375 -2.109375 3.984375q-1.53125 1.875 -3.15625 1.875q-2.828125 0 -4.15625 -3.1875q-0.71875 -1.796875 -0.71875 -7.421875q0 -3.984375 0.453125 -8.65625l2.65625 0.640625q2.34375 0.59375 0.46875 1.78125q-0.375 3.390625 -0.375 6.328125q0 3.984375 0.484375 5.59375q0.390625 1.3125 0.984375 1.3125q0.78125 0 1.40625 -1.296875q0.5 -0.96875 1.21875 -2.953125l2.84375 2.0zm5.3125 -12.015625q4.84375 5.046875 5.921875 12.28125l-3.65625 0.96875q-1.265625 -7.34375 -5.265625 -11.546875l3.0 -1.703125zm23.099243 5.453125q2.390625 0.4375 0.671875 1.59375l0 5.078125q2.15625 0.6875 5.359375 2.359375l-1.75 2.78125q-2.5625 -1.515625 -3.703125 -1.890625q-0.234375 1.640625 -1.359375 2.734375q-1.328125 1.34375 -3.609375 1.34375q-3.0 0 -4.21875 -1.25q-1.15625 -1.125 -1.15625 -2.921875q0 -1.515625 1.15625 -2.640625q1.421875 -1.4375 4.109375 -1.4375q1.765625 0 2.15625 0.125l0 -5.875l2.34375 0zm-11.359375 -1.234375q-0.828125 0.09375 -3.6875 0.09375l-0.4375 -3.109375q3.0625 0 5.140625 -0.15625q0.40625 -1.421875 1.21875 -4.9375l2.328125 0.78125q2.203125 0.875 0.25 1.65625l-0.609375 2.171875q0.890625 -0.09375 3.140625 -0.71875l0.734375 3.109375q-3.328125 0.71875 -4.78125 0.796875q-1.484375 4.75 -4.828125 11.171875l-2.90625 -1.46875q3.3125 -5.859375 4.4375 -9.390625zm9.921875 -4.21875q3.25 1.046875 7.625 2.734375l-1.3125 3.015625q-4.59375 -1.953125 -7.484375 -2.8125l1.171875 -2.9375zm-0.90625 14.265625q-0.75 -0.25 -2.15625 -0.25q-1.359375 0 -1.8125 0.453125q-0.34375 0.328125 -0.34375 0.8125q0 0.46875 0.25 0.703125q0.453125 0.453125 1.71875 0.453125q1.15625 0 1.609375 -0.4375q0.734375 -0.75 0.734375 -1.734375zm20.729675 -2.25q-1.0625 2.734375 -2.109375 3.984375q-1.53125 1.875 -3.15625 1.875q-2.828125 0 -4.15625 -3.1875q-0.71875 -1.796875 -0.71875 -7.421875q0 -3.984375 0.453125 -8.65625l2.65625 0.640625q2.34375 0.59375 0.46875 1.78125q-0.375 3.390625 -0.375 6.328125q0 3.984375 0.484375 5.59375q0.390625 1.3125 0.984375 1.3125q0.78125 0 1.40625 -1.296875q0.5 -0.96875 1.21875 -2.953125l2.84375 2.0zm5.3125 -12.015625q4.84375 5.046875 5.921875 12.28125l-3.65625 0.96875q-1.265625 -7.34375 -5.265625 -11.546875l3.0 -1.703125zm23.099243 5.453125q2.390625 0.4375 0.671875 1.59375l0 5.078125q2.15625 0.6875 5.359375 2.359375l-1.75 2.78125q-2.5625 -1.515625 -3.703125 -1.890625q-0.234375 1.640625 -1.359375 2.734375q-1.328125 1.34375 -3.609375 1.34375q-3.0 0 -4.21875 -1.25q-1.15625 -1.125 -1.15625 -2.921875q0 -1.515625 1.15625 -2.640625q1.421875 -1.4375 4.109375 -1.4375q1.765625 0 2.15625 0.125l0 -5.875l2.34375 0zm-11.359375 -1.234375q-0.828125 0.09375 -3.6875 0.09375l-0.4375 -3.109375q3.0625 0 5.140625 -0.15625q0.40625 -1.421875 1.21875 -4.9375l2.328125 0.78125q2.203125 0.875 0.25 1.65625l-0.609375 2.171875q0.890625 -0.09375 3.140625 -0.71875l0.734375 3.109375q-3.328125 0.71875 -4.78125 0.796875q-1.484375 4.75 -4.828125 11.171875l-2.90625 -1.46875q3.3125 -5.859375 4.4375 -9.390625zm9.921875 -4.21875q3.25 1.046875 7.625 2.734375l-1.3125 3.015625q-4.59375 -1.953125 -7.484375 -2.8125l1.171875 -2.9375zm-0.90625 14.265625q-0.75 -0.25 -2.15625 -0.25q-1.359375 0 -1.8125 0.453125q-0.34375 0.328125 -0.34375 0.8125q0 0.46875 0.25 0.703125q0.453125 0.453125 1.71875 0.453125q1.15625 0 1.609375 -0.4375q0.734375 -0.75 0.734375 -1.734375zm32.385895 -7.375q-1.40625 1.90625 -2.640625 3.015625q-1.71875 1.625 -4.09375 1.625q-1.828125 0 -4.921875 -1.859375q-2.140625 -1.296875 -3.484375 -1.296875q-1.4375 0 -2.1875 0.890625q-0.8905945 1.09375 -1.1405945 2.1875l-3.109375 -1.921875q1.078125 -1.984375 2.53125 -3.34375q1.6249695 -1.515625 3.7030945 -1.515625q2.125 0 4.71875 1.5625q2.546875 1.5 4.1875 1.5q1.0625 0 2.203125 -1.125q0.53125 -0.546875 1.390625 -2.125l2.84375 2.40625z" fill-rule="nonzero"/><path fill="#000000" d="m86.89654 229.8702l14.6875 0l0 2.609375l-2.78125 0l0 10.484375l-2.703125 0l0 -2.03125l-7.734375 0.71875q-0.21875 1.28125 -1.4375 0.046875l-0.40625 -2.890625l2.75 -0.125l0 -6.203125l-2.375 0l0 -2.609375zm13.828125 13.6875l-0.46875 -2.90625l2.09375 0q0 0.21875 -0.21875 0.21875l0 -11.359375l-3.140625 0l-4.078125 0l0 -8.9375l10.234375 0l0 20.796875q0 2.1875 -2.109375 2.1875l-2.3125 0zm-8.734375 -5.015625l4.109375 -0.234375l0 -0.28125l-4.109375 0l0 0.515625zm1.484375 -9.03125l-7.328125 0l0 14.046875l-3.015625 0l0 -22.984375l10.34375 0l0 8.9375zm8.65625 -2.609375l0 -0.546875l-4.21875 0l0 0.546875l4.21875 0zm-4.21875 -3.171875l4.21875 0l0 -0.546875l-4.21875 0l0 0.546875zm-11.765625 0l4.3125 0l0 -0.546875l-4.3125 0l0 0.546875zm0 3.171875l4.3125 0l0 -0.546875l-4.3125 0l0 0.546875zm5.84375 8.5l4.109375 0l0 -0.15625l-4.109375 0l0 0.15625zm0 -2.765625l4.109375 0l0 -0.15625l-4.109375 0l0 0.15625zm27.28125 -5.984375q0.171875 0.546875 0.75 1.484375q2.796875 -0.4375 6.265625 -1.4375l1.3125 3.046875q-3.1875 0.734375 -5.8125 1.125q0.921875 1.21875 3.703125 3.328125l-2.3125 2.28125q-3.765625 -0.828125 -5.78125 -0.828125q-3.75 0 -4.796875 1.03125q-0.53125 0.546875 -0.53125 1.125q0 0.765625 0.4375 1.21875q0.65625 0.640625 4.09375 0.640625l6.640625 0l-0.5625 3.203125l-6.46875 0q-4.1875 0 -5.90625 -1.734375q-1.34375 -1.328125 -1.34375 -3.4375q0 -1.703125 1.25 -2.921875q1.8125 -1.84375 7.28125 -1.84375q1.828125 0 2.140625 0.046875q-0.359375 -0.390625 -1.28125 -1.5625q-4.390625 0.5625 -10.421875 0.5625l-0.4375 -3.125q5.625 0.125 9.28125 -0.28125q-0.34375 -0.65625 -0.625 -1.5q-3.296875 0.265625 -7.734375 0.265625l-0.3125 -3.03125q4.625 0.125 7.25 -0.109375q-0.34375 -1.21875 -0.734375 -4.125l2.828125 0q2.25 0.46875 0.59375 1.5625q0.171875 1.15625 0.359375 2.15625q2.0625 -0.25 5.15625 -1.0625l1.046875 3.015625q-3.96875 0.703125 -5.328125 0.90625zm31.089363 12.421875l0 3.203125l-4.875 0q-3.890625 0 -7.8125 -2.078125l1.359375 -2.703125q2.921875 1.578125 6.453125 1.578125l4.875 0zm-13.734375 -10.59375q-1.421875 8.46875 -3.796875 14.125l-3.1875 -1.03125q2.875 -6.6875 3.859375 -12.8125q-1.75 0.15625 -4.0625 0.15625l-0.625 -3.0q3.390625 0 5.140625 -0.15625q0.328125 -2.65625 0.703125 -5.484375l2.546875 0.5q2.3125 0.625 0.53125 1.640625q-0.25 0.953125 -0.609375 3.0q1.546875 -0.1875 3.921875 -0.8125l0.59375 3.015625q-3.09375 0.609375 -5.015625 0.859375zm13.34375 3.390625q-6.25 0.21875 -9.953125 1.78125l-0.890625 -2.96875q4.78125 -1.90625 10.25 -1.90625l0.59375 3.09375zm13.255615 3.859375q-1.0625 2.734375 -2.109375 3.984375q-1.53125 1.875 -3.15625 1.875q-2.828125 0 -4.15625 -3.1875q-0.71875 -1.796875 -0.71875 -7.421875q0 -3.984375 0.453125 -8.65625l2.65625 0.640625q2.34375 0.59375 0.46875 1.78125q-0.375 3.390625 -0.375 6.328125q0 3.984375 0.484375 5.59375q0.390625 1.3125 0.984375 1.3125q0.78125 0 1.40625 -1.296875q0.5 -0.96875 1.21875 -2.953125l2.84375 2.0zm5.3125 -12.015625q4.84375 5.046875 5.921875 12.28125l-3.65625 0.96875q-1.265625 -7.34375 -5.265625 -11.546875l3.0 -1.703125zm21.052368 3.546875q-1.671875 9.796875 -4.171875 12.28125q-1.421875 1.453125 -3.03125 1.453125q-1.796875 0 -2.828125 -1.046875q-2.53125 -2.515625 -2.53125 -6.296875q0 -4.578125 3.21875 -7.78125q3.515625 -3.515625 8.578125 -3.515625q4.5625 0 7.1875 2.625q2.921875 2.90625 2.921875 6.890625q0 4.265625 -2.734375 6.984375q-1.734375 1.765625 -5.609375 3.53125l-2.9375 -2.9375q4.15625 -1.3125 6.046875 -3.1875q1.734375 -1.75 1.734375 -4.203125q0 -2.9375 -1.921875 -4.875q-1.921875 -1.90625 -4.171875 -1.8125l0 0q2.21875 0.90625 0.25 1.890625zm-3.34375 -1.546875q-1.703125 0.390625 -3.5 2.15625q-2.40625 2.4375 -2.40625 5.96875q0 2.0625 1.328125 3.40625q0.15625 0.140625 0.53125 0.140625q0.375 0 0.921875 -0.53125q2.140625 -2.15625 3.125 -11.140625zm31.46875 14.484375q-4.859375 0 -8.40625 -3.4375l1.90625 -2.515625q2.9375 2.84375 6.5 2.75l5.953125 0l0 3.203125l-5.953125 0zm-14.640625 1.921875q-0.328125 -5.6875 -0.328125 -9.359375q0 -4.5 1.203125 -11.234375l2.5 0.640625q2.265625 0.421875 0.453125 1.6875q-0.9375 5.484375 -0.9375 8.90625q0 3.84375 0.4375 9.078125l-3.328125 0.28125zm19.3125 -14.671875q-4.765625 -0.109375 -12.109375 0.625l0 -3.109375q7.609375 -0.734375 12.109375 -0.625l0 3.109375z" fill-rule="nonzero"/><path fill="#000000" fill-opacity="0.0" d="m293.61768 989.8083l206.48819 5.102356l-0.94488525 38.42517l-206.48819 -5.102295z" fill-rule="evenodd"/><path fill="#fbfbfb" d="m322.57175 1011.1889l6.7640686 -0.48931885q0.52545166 3.420288 2.3450928 5.0595093q1.8352356 1.6395874 4.9905396 1.7175293q3.3583374 0.08300781 5.0802917 -1.2967529q1.7375488 -1.3793945 1.7840271 -3.2694702q0.029968262 -1.2183838 -0.66744995 -2.0952148q-0.6817932 -0.87646484 -2.447113 -1.5452881q-1.2080078 -0.45184326 -5.523926 -1.6369629q-5.5422363 -1.5280151 -7.7420044 -3.5986328q-3.085785 -2.9052124 -2.9855347 -6.9821167q0.06454468 -2.6242065 1.6045532 -4.868103q1.5403748 -2.2595215 4.3656006 -3.3775635q2.841217 -1.1332397 6.7931213 -1.0356445q6.466797 0.15985107 9.661499 3.083374q3.2107239 2.9083252 3.2505493 7.6451416l-6.943054 0.14105225q-0.3720703 -2.6662598 -1.8119507 -3.8584595q-1.4398804 -1.1921997 -4.3608704 -1.2643433q-3.0303345 -0.07489014 -4.763275 1.1170044q-1.1286316 0.7692261 -1.1616516 2.1126099q-0.029968262 1.2183838 0.9798584 2.1029663q1.2848206 1.1414795 6.3161926 2.4692993q5.031769 1.3121948 7.421417 2.652893q2.4056396 1.3254395 3.7100525 3.5770874q1.3200378 2.2520142 1.2401428 5.5010376q-0.07260132 2.9522705 -1.7760925 5.4890747q-1.7035217 2.5368042 -4.7337036 3.7279663q-3.0298157 1.1754761 -7.4971924 1.0651245q-6.5136414 -0.1609497 -9.938446 -3.262146q-3.4091797 -3.100769 -3.9547424 -8.881653zm41.227936 12.209656l0.7017517 -28.538208l-10.200012 -0.2520752l0.14291382 -5.81073l27.304169 0.6746826l-0.14291382 5.81073l-10.168762 -0.25128174l-0.7017517 28.538269l-6.9353943 -0.17138672zm48.99286 1.2106934l-7.5445557 -0.18652344l-2.8070374 -7.8842163l-13.730194 -0.33929443l-3.0349426 7.739929l-7.3571167 -0.18182373l14.231171 -34.01819l7.325897 0.18103027l12.916779 34.689087zm-12.443176 -13.905457l-4.4194946 -12.863098l-4.9526367 12.631531l9.372131 0.23156738zm16.16861 13.997498l0.844635 -34.34906l23.539703 0.5817261l-0.14291382 5.81073l-16.604279 -0.41033936l-0.19973755 8.122559l14.339355 0.35437012l-0.1428833 5.81073l-14.339386 -0.35437012l-0.35913086 14.6050415l-6.935364 -0.17138672zm29.31134 0.72424316l0.8446655 -34.349l23.539673 0.58166504l-0.1428833 5.810791l-16.60431 -0.41033936l-0.19973755 8.122559l14.339386 0.35430908l-0.1428833 5.810791l-14.339386 -0.35437012l-0.35913086 14.60498l-6.9353943 -0.17138672z" fill-rule="nonzero"/><path fill="#ddd9c3" d="m6.4206834 79.45724l79.685036 -69.22835l40.25197 46.33071l-79.685036 69.22835z" fill-rule="evenodd"/><path fill="#000000" d="m43.692295 82.7899l-0.54312515 -0.6251526l-6.1571617 5.3491898l14.859066 17.103035l-2.5242004 2.1929626l-24.368864 -28.04898l11.193766 -9.724861l10.052925 11.571091l-2.5124054 2.1827164zm-6.2305603 -7.171486l-2.0700188 -2.3826294l-6.1571617 5.3491898l2.0700207 2.3826294l6.15716 -5.3491898zm3.935093 4.529358l-2.182747 -2.5123749l-6.1571617 5.349182l2.182747 2.5123749l6.1571617 -5.349182zm12.95129 14.144791l1.5268974 1.7574844l-2.1349525 1.8547897l-9.725002 -11.193642l11.948666 -10.380699l9.069157 10.438751l-2.1349564 1.8547974l-0.8710518 -1.002594l-7.6787567 6.671112zm5.9264145 -8.688095l-4.6934166 -5.402199l-7.6787567 6.671112l4.693413 5.402199l7.6787605 -6.671112zm9.731892 2.5772552l-2.6951675 -1.8395157l2.5123978 -2.1827087q0.37745667 -0.327919 0.04953003 -0.70536804l-12.133194 -13.965515l-6.4166565 5.5746307l0.65584564 0.75489044l-2.5124016 2.1827164l-10.165649 -11.700836l11.441467 -9.94006l22.186115 25.536602q1.8548203 2.1349335 -0.150383 3.8770065l-2.771904 2.4081573zm-20.023888 -27.62207l-6.4166603 5.5746307l2.0700226 2.3826294l6.4166565 -5.5746307l-2.0700188 -2.3826294zm6.005108 6.9119873l-2.182743 -2.5123825l-6.4166603 5.5746307l2.182747 2.5123825l6.4166565 -5.5746307zm18.749622 -2.8147507q1.5098724 1.9999542 2.8060913 3.7301636q2.9171982 0.57032776 4.6781235 0.5721359l-7.757454 -8.9289665l-6.534607 5.677105l-2.0700226 -2.3826294l13.953873 -12.122768l2.0700226 2.3826294l-5.2843094 4.59087l2.9513168 3.3970184l4.2817 -3.7198372l2.0802689 2.3944283l-4.2817 3.7198334l3.8223648 4.3996124q2.7530746 -0.40478516 5.0177765 -2.3722992l15.8411255 -13.762371l1.4551163 2.937542l-15.215973 13.219254q-5.036606 4.3756714 -13.0896 2.9684906q1.9369202 4.2782974 2.2289886 6.9015884l-3.6448288 -0.14515686q-0.7668381 -5.957176 -6.5567474 -12.621468l2.840332 -1.8052635q0.70536804 0.049526215 0.4081421 0.97008896zm13.06575 -1.2091331q2.4935074 -3.4909706 3.6942139 -7.1834717l-2.6421509 2.2954369l-13.219444 -15.215805l3.526802 -3.0639992l-1.5575943 -3.0554924l-5.2843018 4.59087l-2.0802689 -2.3944244l13.340515 -11.589901l2.0802689 2.3944244l-5.2843094 4.5908737l1.0503922 3.4961357l5.532013 -4.806072l13.219437 15.215809l-3.1493454 2.7360764q2.5208435 -0.4100113 6.5412445 -2.1434975l0.9531479 3.1459618q-3.906128 1.8411903 -7.697731 2.05122l-0.04436493 -2.8384857l-4.9068604 4.262951l2.9289932 0.56007767q1.1512527 0.32449722 -0.32450104 1.1512375q-1.2979507 3.3423233 -3.7966843 7.0655136l-2.8794708 -1.2654381zm-21.362839 -3.5046616l-8.526024 -9.813606l10.320908 -8.966545l8.5260315 9.813606l-10.320915 8.966545zm4.782196 -11.005714l-6.027405 5.2364616l1.6396179 1.8872337l6.0274124 -5.2364655l-1.6396255 -1.8872299zm15.354164 -11.559273l-7.041809 6.1177444l2.0700226 2.3826294l7.041809 -6.1177444l-2.0700226 -2.3826294zm3.8223648 4.3996086l-7.041809 6.1177444l2.0802689 2.3944244l7.041809 -6.1177444l-2.0802689 -2.3944244zm3.8223724 4.3996086l-7.0418167 6.1177444l2.0802689 2.3944283l7.0418167 -6.1177483l-2.0802689 -2.3944244zm-26.380615 -1.1323624l-6.0274124 5.2364655l1.6396217 1.8872299l6.0274086 -5.2364616l-1.6396179 -1.8872337z" fill-rule="nonzero"/><path fill="#000000" fill-opacity="0.0" d="m116.719055 534.71014l338.89322 0l0 81.7323l-338.89322 0z" fill-rule="evenodd"/><path fill="#000000" fill-opacity="0.0" d="m221.89096 557.317l426.15414 0l0 68.97638l-426.15414 0z" fill-rule="evenodd"/><path fill="#000000" d="m249.40659 569.6715q7.34375 5.625 16.015625 14.5l-5.296875 4.5q-8.46875 -8.875 -15.0 -13.90625q-6.765625 7.296875 -16.890625 13.984375l-5.109375 -4.578125q20.71875 -13.484375 25.578125 -24.640625l-19.75 1.265625l-0.8125 -6.515625l22.734375 -0.984375l2.703125 -0.671875l3.390625 3.40625q2.671875 2.65625 -0.8125 3.296875q-3.359375 5.828125 -6.75 10.34375zm35.96875 -16.828125q-0.625 1.859375 -0.984375 2.515625l10.703125 0l2.484375 -0.90625l2.9375 2.921875q1.640625 2.0625 -0.625 2.90625q-1.421875 7.09375 -4.09375 12.609375l4.609375 3.078125l-3.953125 5.8125l-4.140625 -3.015625q-5.0 7.25 -15.890625 12.703125l-6.234375 -4.609375q12.59375 -5.234375 16.765625 -11.8125q-3.828125 -2.453125 -9.25 -5.390625l3.328125 -5.0q6.640625 3.0 9.5 4.71875q2.265625 -4.671875 2.671875 -7.890625l-11.96875 0q-3.34375 5.984375 -9.28125 11.921875l-5.234375 -3.578125q10.21875 -10.609375 13.4375 -22.515625l5.59375 2.328125q3.6875 1.84375 -0.375 3.203125zm50.765625 11.828125q-1.296875 12.015625 -6.984375 17.703125q-5.59375 5.59375 -15.34375 9.125l-3.625 -5.296875q9.671875 -3.15625 14.375 -7.859375q4.984375 -4.984375 5.78125 -18.46875l5.171875 1.71875q3.84375 1.28125 0.625 3.078125zm-17.375 7.46875q-2.625 -5.921875 -5.453125 -10.15625l5.28125 -2.765625q3.421875 4.3125 5.90625 10.1875l-5.734375 2.734375zm-9.546875 2.875q-2.640625 -6.171875 -5.671875 -10.59375l5.53125 -2.765625q3.1875 4.328125 5.640625 10.34375l-5.5 3.015625zm33.1875 8.296875q24.28125 -5.640625 25.296875 -23.328125l-28.0625 0l0 -6.125l29.390625 0l3.03125 -0.640625l2.78125 2.515625q-0.78125 26.140625 -27.625 33.453125l-4.8125 -5.875zm61.203125 -22.15625q-3.15625 18.5625 -7.890625 23.28125q-2.71875 2.734375 -5.765625 2.734375q-3.421875 0 -5.390625 -1.984375q-4.796875 -4.78125 -4.796875 -11.953125q0 -8.671875 6.109375 -14.765625q6.65625 -6.671875 16.265625 -6.671875q8.671875 0 13.640625 4.984375q5.546875 5.53125 5.546875 13.078125q0 8.109375 -5.171875 13.265625q-3.3125 3.3125 -10.671875 6.6875l-5.59375 -5.59375q7.90625 -2.484375 11.484375 -6.0625q3.265625 -3.28125 3.265625 -7.921875q0 -5.578125 -3.640625 -9.234375q-3.625 -3.625 -7.859375 -3.453125l-0.015625 -0.03125q4.234375 1.765625 0.484375 3.640625zm-6.359375 -2.9375q-3.234375 0.734375 -6.59375 4.09375q-4.578125 4.59375 -4.578125 11.296875q0 3.890625 2.515625 6.421875q0.28125 0.265625 0.984375 0.265625q0.703125 0 1.734375 -1.015625q4.0625 -4.0625 5.9375 -21.0625zm48.796875 29.171875q-6.625 3.859375 -16.28125 5.328125l-1.9375 -5.828125q10.5 -1.859375 12.640625 -3.28125l-0.390625 0l0 1.5l-5.75 0l0.03125 -19.859375q-0.0625 0.140625 -3.96875 2.578125l-3.8125 -5.1875q10.171875 -6.375 13.546875 -15.90625l5.078125 1.21875q2.375 2.359375 -0.359375 2.75l0.15625 -0.53125l10.4375 -0.0625l1.1875 -1.65625l4.5 2.84375q1.96875 2.453125 -0.921875 2.8125l-2.828125 3.3125l8.390625 0l0 27.125l-5.75 0l0.0625 -1.0l-0.078125 0.0625q2.078125 1.046875 11.5 2.71875l-1.921875 6.046875q-10.8125 -1.875 -18.09375 -6.71875l1.640625 -2.046875l-6.703125 0l1.09375 1.328125q2.875 2.890625 -1.46875 2.453125zm-3.21875 -32.28125q-1.25 2.015625 -1.484375 2.3125l9.0625 0l1.8125 -2.3125l-9.390625 0zm-2.75 21.375l0 2.125l19.9375 0l0 -2.125l-19.9375 0zm19.9375 -6.9375l-19.9375 0l0 1.9375l19.9375 0l0 -1.9375zm0 -5.0l0 -2.125l-19.9375 0l0 2.125l19.9375 0zm18.03125 12.46875q-0.390625 2.65625 -2.765625 0.28125l-1.203125 -5.578125l7.125 -1.546875l0 -7.9375l-5.8125 0l0 -5.5625l5.8125 0l0 -9.5625l4.625 0q4.109375 0.515625 1.125 2.640625l0 6.921875l5.8125 0l0 5.5625l-5.8125 0l0 6.609375l4.84375 -1.609375l0.90625 5.15625l-5.75 2.109375l0 12.984375q0 4.0 -4.0 4.0l-5.1875 0l-0.828125 -6.125l4.515625 0q0 0.25 -0.25 0.25l0 -9.53125l-3.15625 0.9375zm10.46875 7.40625l30.50003 0l0 5.5625l-30.50003 0l0 -5.5625zm10.4375 -17.5l0 6.625l11.125 0l0 -6.625l-11.125 0zm11.125 -12.0l-11.125 0l0 6.4375l11.125 0l0 -6.4375zm0 24.1875l-11.125 0l0 2.625l-5.75 0l0 -32.375l22.62503 0l0 31.625l-5.7500305 0l0 -1.875zm33.015656 -24.875q-0.390625 -0.65625 -2.921875 -3.453125l4.71875 -3.609375q3.203125 2.96875 4.75 6.328125l-1.015625 0.734375l4.890625 0.3125l-1.03125 -0.171875q2.09375 -4.1875 3.109375 -8.015625l5.1875 2.21875q2.296875 2.296875 -0.421875 2.6875q-0.5625 1.40625 -1.453125 2.96875l6.984375 0l0 17.75l-28.625 0l0 -17.75l5.828125 0zm-4.578125 21.703125l0.890625 5.34375l-12.984375 3.4375q-0.359375 2.859375 -2.71875 0.5l-1.953125 -5.609375l5.953125 -1.1875l0 -13.375l-5.0625 0l0 -5.5625l5.0625 0l0 -11.625l4.625 0q4.109375 0.515625 1.125 2.640625l0 8.984375l4.3125 0l0 5.5625l-4.3125 0l0 12.15625l5.0625 -1.265625zm10.1875 -15.328125l0 -1.375l-5.6875 0l0 1.375l5.6875 0zm11.4375 0l0 -1.375l-5.6875 0l0 1.375l5.6875 0zm0 6.375l0 -1.375l-5.6875 0l0 1.375l5.6875 0zm-11.4375 0l0 -1.375l-5.6875 0l0 1.375l5.6875 0zm9.1875 12.1875l0 -1.5625l-12.4375 0l0 1.5625l12.4375 0zm5.75 12.875l-5.75 0l0 -1.125l-12.4375 0l0 1.5l-5.75 0l0 -19.8125l23.9375 0l0 19.4375zm-5.75 -6.125l0 -1.75l-12.4375 0l0 1.75l12.4375 0z" fill-rule="nonzero"/></g></svg>