<svg version="1.1" viewBox="0.0 0.0 793.3333333333334 1122.6666666666667" fill="none" stroke="none" stroke-linecap="square" stroke-miterlimit="10" xmlns:xlink="http://www.w3.org/1999/xlink" xmlns="http://www.w3.org/2000/svg"><clipPath id="p2.0"><path d="m0 0l793.3333 0l0 1122.6666l-793.3333 0l0 -1122.6666z" clip-rule="nonzero"/></clipPath><g clip-path="url(#p2.0)"><path fill="#000000" fill-opacity="0.0" d="m0 0l793.3333 0l0 1122.6666l-793.3333 0z" fill-rule="evenodd"/><path fill="#000000" fill-opacity="0.0" d="m57.51496 833.29974l-20.163464 -48.92578" fill-rule="evenodd"/><path stroke="#ffffff" stroke-width="3.0" stroke-linejoin="round" stroke-linecap="butt" d="m52.05094 820.0415l-14.699444 -35.66754" fill-rule="evenodd"/><path fill="#ffffff" stroke="#ffffff" stroke-width="3.0" stroke-linecap="butt" d="m56.94341 831.91284c-3.2781868 1.3510132 -7.030899 -0.21124268 -8.38192 -3.489441c-1.351017 -3.2781982 0.21126175 -7.030884 3.4894485 -8.381897c3.2781868 -1.3510132 7.030899 0.21124268 8.38192 3.489441c1.351017 3.2781982 -0.21126175 7.030884 -3.4894485 8.381897z" fill-rule="nonzero"/><path fill="#000000" fill-opacity="0.0" d="m71.77837 825.3333l298.05637 0l0 23.265015l-298.05637 0z" fill-rule="evenodd"/><path fill="#ffffff" d="m96.63775 847.88153q-3.9375 -1.609375 -5.859375 -4.171875l0 5.578125l-3.171875 0l0 -4.765625q-0.5 0.96875 -6.1875 3.8125l-1.265625 -2.984375q5.421875 -2.5625 6.96875 -5.4375l-5.140625 0l0 -2.765625l5.625 0l0 -2.390625l2.5625 0q2.265625 0.296875 0.609375 1.453125l0 0.9375l6.875 0l0 2.765625l-6.3125 0q1.65625 2.546875 6.828125 4.90625l-1.53125 3.0625zm1.375 -16.109375q-0.40625 4.078125 -2.78125 4.078125l-2.703125 0q-2.421875 0 -2.421875 -2.3125l0 -5.453125l2.546875 0q2.28125 0.296875 0.625 1.453125l0 2.953125q0 0.28125 0.1875 0.28125l0.9375 0q0.375 0 0.40625 -0.171875l0.3125 -1.625l2.890625 0.796875zm-9.109375 -1.578125q0 5.359375 -6.4375 6.6875l-0.96875 -3.1875q4.125 -0.4375 4.125 -3.5l0 -2.109375l2.59375 0q2.671875 0.5625 0.6875 1.515625l0 0.59375zm-9.46875 5.984375l2.359375 -0.875l0.640625 2.953125l-3.0 1.171875l0 7.53125q0 2.21875 -2.21875 2.21875l-2.515625 0l-0.765625 -3.390625l2.453125 0q0.015625 0.140625 -0.125 0.140625l0 -5.390625l-1.046875 0.375q-0.1875 1.5 -1.5 0.1875l-0.8125 -2.9375l3.359375 -0.96875l0 -4.359375l-3.03125 0l0 -3.078125l3.03125 0l0 -5.3125l2.546875 0q2.234375 0.296875 0.625 1.453125l0 3.859375l2.5 0l0 3.078125l-2.5 0l0 3.34375zm14.9375 -7.828125l-9.421875 0l0 3.234375l-3.171875 0l0 -6.296875l15.765625 0l0 5.984375l-3.171875 0l0 -2.921875zm24.703125 14.375q-4.96875 5.40625 -10.40625 5.40625q-3.96875 0 -5.90625 -1.921875q-1.515625 -1.53125 -1.515625 -5.59375l0 -14.5l2.796875 0q2.078125 0.453125 0.6875 1.625l0 12.875q0 2.375 0.78125 3.140625q0.984375 1.0 3.046875 1.0q3.828125 0 8.265625 -4.890625l2.25 2.859375zm23.439934 -12.078125q-4.1875 0 -6.171875 0.6875q-2.1875 0.796875 -4.0625 2.6875q-1.828125 1.8125 -1.828125 4.71875q0 2.28125 1.40625 3.671875q1.921875 1.921875 8.390625 2.15625l-1.21875 3.375q-6.75 -0.34375 -9.3125 -2.875q-2.5468674 -2.578125 -2.5468674 -6.21875q0 -5.1875 2.2812424 -6.84375q-2.7031174 0.40625 -8.281242 1.203125l-0.90625 -3.515625q10.828117 -0.765625 21.656242 -2.625l0.59375 3.578125zm13.256226 10.390625q-1.125 2.875 -2.21875 4.1875q-1.640625 1.96875 -3.34375 1.96875q-2.953125 0 -4.34375 -3.359375q-0.78125 -1.859375 -0.78125 -7.796875q0 -4.203125 0.484375 -9.109375l2.796875 0.65625q2.5 0.625 0.484375 1.890625q-0.375 3.5625 -0.375 6.65625q0 4.1875 0.5 5.890625q0.390625 1.375 1.03125 1.375q0.796875 0 1.484375 -1.375q0.515625 -1.0 1.25 -3.109375l3.03125 2.125zm5.578125 -12.671875q5.09375 5.328125 6.234375 12.96875l-3.859375 0.984375q-1.328125 -7.703125 -5.53125 -12.140625l3.15625 -1.8125zm22.432861 16.953125q0.953125 -0.125 1.96875 -1.140625q1.09375 -1.078125 1.09375 -2.9375q0 -2.0625 -1.203125 -3.25q-1.1875 -1.203125 -3.875 -1.203125q-3.265625 0 -5.0 1.25q-1.703125 1.21875 -4.84375 4.796875l-2.625 -2.296875q7.890625 -7.890625 10.921875 -11.828125q-2.140625 0.265625 -6.03125 0.609375l-1.078125 -3.515625q5.8125 0 9.640625 -0.5l1.21875 -0.546875l1.390625 1.40625q1.96875 1.765625 -0.609375 2.25q-3.0 3.390625 -4.9375 5.53125q0.53125 -0.125 2.046875 -0.125q4.1875 0 6.234375 2.03125q2.015625 2.046875 2.015625 5.171875q0 3.25 -1.8125 5.078125q-2.671875 2.65625 -6.75 2.65625q-3.859375 0 -5.703125 -1.8125q-1.5 -1.53125 -1.5 -3.625q0 -1.46875 1.09375 -2.578125q1.1875 -1.203125 2.78125 -1.203125q2.09375 0 3.515625 1.40625q1.578125 1.59375 2.046875 4.375zm-3.0625 0.46875q-0.3125 -2.015625 -1.125 -2.8125q-0.546875 -0.5625 -1.0625 -0.5625q-0.609375 0 -0.859375 0.25q-0.359375 0.359375 -0.359375 0.765625q0 0.71875 0.671875 1.375q0.875 0.890625 2.3125 0.890625q0.421875 0 0.421875 0.09375zm24.13684 -10.984375l-0.90625 0q-0.109375 4.390625 -6.734375 5.703125l-0.953125 -3.0q4.328125 -0.96875 4.40625 -2.703125l-3.359375 0l0 14.484375l-3.1875 0l0 -17.546875l5.3125 0l-0.734375 -1.625l-6.03125 0l0 -3.0625l10.40625 0l0 -2.703125l2.875 0q2.234375 0.25 0.625 1.453125l0 1.25l10.296875 0l0 3.0625l-5.5625 0l-1.109375 1.625l5.53125 0l0 15.328125q0 2.0 -1.90625 2.0l-3.15625 0l-0.625 -3.0625l2.640625 0q0 0.125 -0.125 0.125l0 -11.328125l-4.53125 0l0 1.015625q0 0.296875 0.1875 0.296875l1.875 0q0 0.0625 0.1875 -1.40625l2.984375 0.9375q-0.28125 3.53125 -2.234375 3.53125l-3.859375 0q-2.3125 0 -2.3125 -2.3125l0 -2.0625zm2.453125 -4.6875l-4.984375 0l0.8125 1.625l3.109375 0l1.0625 -1.625zm-8.078125 9.21875l11.296875 0l0 6.921875l-8.4375 0l0 0.9375l-2.859375 0l0 -7.859375zm2.859375 2.765625l0 1.40625l5.578125 0l0 -1.40625l-5.578125 0zm33.40625 -6.59375l-8.109375 0.03125l0 0.734375l-3.171875 0l0 -10.78125l14.421875 0l0 10.5625l-3.171875 0l0.03125 -0.546875zm-8.109375 -3.046875l8.078125 0l0 -3.90625l-8.078125 0l0 3.90625zm12.140625 14.84375l-3.90625 0l0 1.875l-3.171875 0l0 -12.125l10.25 0l0 11.8125l-3.171875 0l0 -1.5625zm-3.90625 -7.1875l0 4.109375l3.90625 0l0 -4.109375l-3.90625 0zm-11.875 0l0 4.109375l3.90625 0l0 -4.109375l-3.90625 0zm3.90625 7.1875l-3.90625 0l0 1.875l-3.171875 0l0 -12.125l10.25 0l0 11.8125l-3.171875 0l0 -1.5625zm26.65625 -13.703125q0.03125 -0.203125 1.28125 -0.203125q1.5625153 0 2.5781403 1.0q0.765625 0.78125 0.828125 1.90625q2.453125 -0.890625 6.953125 -2.3125l1.0625 3.640625q-4.625 0.703125 -7.75 1.90625l0 4.75l-3.1875 0l0 -3.4375q-2.2656403 1.046875 -3.1250153 1.921875q-0.984375 0.96875 -0.984375 1.90625q0 0.40625 0.46875 0.859375q0.5625 0.5625 2.421875 0.5625l9.29689 0l0 3.078125l-9.406265 0q-3.5625 0 -5.0625 -1.515625q-1.203125 -1.1875 -1.203125 -2.984375q0 -1.890625 1.515625 -3.421875q2.15625 -2.15625 5.953125 -3.703125q-0.0625 -0.640625 -0.34375 -0.921875q-0.25 -0.265625 -1.375 -0.265625q-1.875 0 -6.359375 3.953125l-2.640625 -2.609375q5.359375 -3.296875 6.640625 -5.96875q-1.96875 0.15625 -5.359375 0.390625l-0.65625 -3.1875q4.390625 -0.125 7.375 -0.3125q0.375 -0.890625 1.234375 -4.3125l2.5468903 0.6875q2.328125 0.90625 0.265625 1.75q-0.34375 1.109375 -0.5625 1.6875q2.875 -0.25 6.84375 -0.84375l0.46875 3.3125q-4.640625 0.359375 -8.406265 0.640625q-0.9375 1.859375 -1.3125 2.046875zm34.022354 -0.71875l4.453125 0l0 2.765625l-4.375 0l0 1.296875l3.546875 0l0 2.765625l-3.546875 0l0 1.390625l3.546875 0l0 2.765625l-3.546875 0l0 1.515625l5.203125 0l0 2.75l-10.515625 0l0 1.046875l-2.859375 0l0.09375 -10.6875q0.015625 0.125 -1.890625 1.546875l-1.109375 -3.015625q4.109375 -3.6875 5.015625 -6.6875l-1.125 0l0 2.390625l-2.859375 0l0 -5.15625l4.703125 0q0.3125 -1.234375 0.71875 -3.65625l2.796875 0.6875q0.90625 0.921875 -0.015625 1.46875q-0.25 1.046875 -0.375 1.5l7.21875 0l0 4.734375l-2.859375 0l0 -1.96875l-5.09375 0q-0.53125 1.875 -1.0 2.546875l0.765625 0l1.375 -3.203125l2.46875 0.515625q1.796875 0.71875 0 1.484375l-0.734375 1.203125zm-19.125 -3.703125l0 -3.0625l9.9375 0l0 3.0625l-3.671875 0q-0.1875 2.8125 -1.046875 4.84375l3.78125 0l0 13.484375l-2.859375 0l0 -1.65625l-1.609375 0l0 2.703125l-2.875 0l0.203125 -8.703125q0.15625 0.15625 -1.03125 1.515625l-2.03125 -2.65625q3.8125 -4.265625 4.359375 -9.53125l-3.15625 0zm13.890625 10.53125l0 1.390625l2.453125 0l0 -1.390625l-2.453125 0zm0 -4.0625l0 1.296875l2.453125 0l0 -1.296875l-2.453125 0zm0 8.21875l0 1.515625l2.453125 0l0 -1.515625l-2.453125 0zm-9.359375 -7.078125l0 6.296875l1.609375 0l0 -6.296875l-1.609375 0zm30.265625 -0.71875q4.15625 -1.109375 4.9375 -3.375l-2.84375 -1.15625l1.15625 -2.765625l2.3125 0.875l0.09375 -1.1875l-4.328125 0l0 -3.078125l13.609375 0l-0.234375 9.515625q-0.109375 3.140625 -2.734375 3.140625l-2.890625 0l-0.3125 -3.078125l2.796875 0q0.078125 0 0.078125 -0.09375l0.1875 -6.40625l-3.0 0l-0.234375 2.46875l2.640625 1.4375l-1.421875 2.859375l-2.015625 -1.109375q-1.234375 3.5 -6.5625 5.09375l-1.234375 -3.140625zm13.59375 11.546875q-0.96875 -3.625 -3.109375 -6.390625l2.890625 -1.28125q2.640625 3.234375 3.40625 6.296875l-3.1875 1.375zm-13.046875 -7.859375l0 9.109375l-2.859375 0l0 -0.734375l-2.453125 0l0 1.15625l-2.859375 0l0 -9.53125l8.171875 0zm-0.390625 7.578125q0.859375 -3.0625 1.09375 -6.921875l2.75 0.296875q1.0 0.453125 0.1875 1.28125q-0.09375 3.1875 -1.140625 6.171875l-2.890625 -0.828125zm7.34375 -11.125q1.84375 1.203125 3.6875 4.0625l-2.984375 1.734375q-0.953125 -1.921875 -3.109375 -4.1875l2.40625 -1.609375zm-14.703125 -11.234375l7.328125 0l0 3.0625l-7.328125 0l0 -3.0625zm-1.359375 3.53125l10.046875 0l0 3.078125l-10.046875 0l0 -3.078125zm1.359375 3.859375l7.328125 0l0 3.0625l-7.328125 0l0 -3.0625zm0 3.53125l7.328125 0l0 3.078125l-7.328125 0l0 -3.078125zm2.4375 6.609375l0 2.875l2.453125 0l0 -2.875l-2.453125 0zm11.25 -3.0625q2.28125 0.25 0.625 1.453125l0 4.609375q0 0.1875 0.078125 0.1875l2.296875 0q0.15625 0 0.171875 -0.15625l0.296875 -2.265625l3.1875 0.78125l-0.53125 2.703125q-0.390625 2.0 -2.40625 2.0l-3.953125 0q-2.3125 0 -2.3125 -2.421875l0 -6.890625l2.546875 0z" fill-rule="nonzero"/><path fill="#000000" fill-opacity="0.0" d="m307.4723 46.698196l499.39368 0l0 32.314964l-499.39368 0z" fill-rule="evenodd"/><path fill="#ffffff" d="m321.2223 60.110695l-0.90625 0q-0.109375 4.390625 -6.734375 5.703125l-0.953125 -3.0q4.328125 -0.96875 4.40625 -2.703125l-3.359375 0l0 14.484375l-3.1875 0l0 -17.546875l5.3125 0l-0.734375 -1.625l-6.03125 0l0 -3.0625l10.40625 0l0 -2.703125l2.875 0q2.234375 0.25 0.625 1.453125l0 1.25l10.296875 0l0 3.0625l-5.5625 0l-1.109375 1.625l5.53125 0l0 15.328125q0 2.0 -1.90625 2.0l-3.15625 0l-0.625 -3.0625l2.640625 0q0 0.125 -0.125 0.125l0 -11.328125l-4.53125 0l0 1.015625q0 0.296875 0.1875 0.296875l1.875 0q0 0.0625 0.1875 -1.40625l2.984375 0.9375q-0.28125 3.53125 -2.234375 3.53125l-3.859375 0q-2.3125 0 -2.3125 -2.3125l0 -2.0625zm2.453125 -4.6875l-4.984375 0l0.8125 1.625l3.109375 0l1.0625 -1.625zm-8.078125 9.21875l11.296875 0l0 6.921875l-8.4375 0l0 0.9375l-2.859375 0l0 -7.859375zm2.859375 2.765625l0 1.40625l5.578125 0l0 -1.40625l-5.578125 0zm33.40625 -6.59375l-8.109375 0.03125l0 0.734375l-3.171875 0l0 -10.78125l14.421875 0l0 10.5625l-3.171875 0l0.03125 -0.546875zm-8.109375 -3.046875l8.078125 0l0 -3.90625l-8.078125 0l0 3.90625zm12.140625 14.84375l-3.90625 0l0 1.875l-3.171875 0l0 -12.125l10.25 0l0 11.8125l-3.171875 0l0 -1.5625zm-3.90625 -7.1875l0 4.109375l3.90625 0l0 -4.109375l-3.90625 0zm-11.875 0l0 4.109375l3.90625 0l0 -4.109375l-3.90625 0zm3.90625 7.1875l-3.90625 0l0 1.875l-3.171875 0l0 -12.125l10.25 0l0 11.8125l-3.171875 0l0 -1.5625zm32.1875 -15.1875q-1.765625 10.328125 -4.390625 12.953125q-1.515625 1.5 -3.203125 1.5q-1.875 0 -2.984375 -1.09375q-2.65625 -2.671875 -2.65625 -6.625q0 -4.828125 3.390625 -8.203125q3.6875 -3.703125 9.03125 -3.703125q4.8125 0 7.5625 2.765625q3.078125 3.0625 3.078125 7.265625q0 4.484375 -2.859375 7.359375q-1.84375 1.828125 -5.9375 3.703125l-3.09375 -3.09375q4.390625 -1.375 6.375 -3.375q1.8125 -1.796875 1.8125 -4.390625q0 -3.109375 -2.015625 -5.125q-2.015625 -2.015625 -4.359375 -1.921875l-0.015625 -0.015625q2.328125 0.96875 0.265625 2.0zm-3.53125 -1.625q-1.796875 0.421875 -3.671875 2.28125q-2.546875 2.546875 -2.546875 6.28125q0 2.171875 1.40625 3.5625q0.140625 0.15625 0.546875 0.15625q0.40625 0 0.96875 -0.578125q2.265625 -2.25 3.296875 -11.703125zm22.734375 9.125l2.359375 -0.828125l0.484375 1.203125q1.71875 -1.125 2.34375 -2.265625l-3.78125 0l0 -3.078125l16.8125 0l0 3.078125l-9.6875 0q-0.28125 0.578125 -0.5 0.484375l9.609375 -0.21875l-0.671875 8.1875q-0.25 2.890625 -2.625 2.890625l-2.96875 0l-0.484375 -3.0625l2.609375 0q0.265625 0 0.296875 -0.25l0.453125 -4.703125l-0.109375 0q-1.859375 7.015625 -11.3125 8.625l-0.953125 -3.03125q7.671875 -1.421875 9.015625 -5.59375l-0.671875 0q-1.84375 4.421875 -7.6875 5.5l-0.984375 -2.671875q4.5 -1.140625 5.34375 -2.828125l-0.453125 0q-2.09375 1.890625 -3.890625 2.796875l-0.84375 -1.609375l-5.8125 2.296875q-0.234375 1.53125 -1.484375 0.21875l-1.09375 -2.9375l3.515625 -1.0l0 -6.953125l-3.234375 0l0 -3.0625l3.234375 0l0 -5.9375l2.546875 0q2.234375 0.296875 0.625 1.453125l0 4.484375l3.125 0l0 3.0625l-3.125 0l0 5.75zm3.484375 -5.125l0 -9.515625l12.03125 0l0 9.515625l-12.03125 0zm3.171875 -5.984375l5.671875 0l0 -0.78125l-5.671875 0l0 0.78125zm0 3.234375l5.671875 0l0 -0.46875l-5.671875 0l0 0.46875zm28.578125 -5.125q4.359375 -0.703125 7.015625 -1.90625l1.421875 2.421875q1.015625 2.34375 -1.1875 1.25q-3.703125 0.796875 -6.671875 1.0625l0 3.328125l9.171875 0l0 3.078125l-3.4375 0l0 13.125l-3.171875 0l0 -13.125l-2.5625 0l0 2.6875q0 7.15625 -5.65625 10.9375l-2.28125 -2.75q4.765625 -2.890625 4.765625 -8.40625l0 -12.65625l2.59375 0.953125zm-3.484375 3.765625l0 10.15625l-3.171875 0l0 -1.046875l-3.59375 0l0 2.375q0 4.109375 -2.0625 7.46875l-2.765625 -2.15625q1.65625 -2.359375 1.65625 -5.421875l0 -11.375l9.9375 0zm-3.171875 6.046875l0 -2.96875l-3.59375 0l0 2.96875l3.59375 0zm-7.59375 -7.765625l0 -3.0625l11.5 0l0 3.0625l-11.5 0zm34.25 4.9375q0.03125 -0.203125 1.28125 -0.203125q1.5625 0 2.578125 1.0q0.765625 0.78125 0.828125 1.90625q2.453125 -0.890625 6.953125 -2.3125l1.0625 3.640625q-4.625 0.703125 -7.75 1.90625l0 4.75l-3.1875 0l0 -3.4375q-2.265625 1.046875 -3.125 1.921875q-0.984375 0.96875 -0.984375 1.90625q0 0.40625 0.46875 0.859375q0.5625 0.5625 2.421875 0.5625l9.296875 0l0 3.078125l-9.40625 0q-3.5625 0 -5.0625 -1.515625q-1.203125 -1.1875 -1.203125 -2.984375q0 -1.890625 1.515625 -3.421875q2.15625 -2.15625 5.953125 -3.703125q-0.0625 -0.640625 -0.34375 -0.921875q-0.25 -0.265625 -1.375 -0.265625q-1.875 0 -6.359375 3.953125l-2.640625 -2.609375q5.359375 -3.296875 6.640625 -5.96875q-1.96875 0.15625 -5.359375 0.390625l-0.65625 -3.1875q4.390625 -0.125 7.375 -0.3125q0.375 -0.890625 1.234375 -4.3125l2.546875 0.6875q2.328125 0.90625 0.265625 1.75q-0.34375 1.109375 -0.5625 1.6875q2.875 -0.25 6.84375 -0.84375l0.46875 3.3125q-4.640625 0.359375 -8.40625 0.640625q-0.9375 1.859375 -1.3125 2.046875zm24.944214 -0.140625q-0.21875 0.421875 -0.4375 0.34375q1.3125 -0.09375 4.0 0.40625q0.84375 -0.703125 0.875 -0.75l-4.4375 0zm0.296875 2.578125q-0.3125 -0.078125 -2.34375 -0.265625q-0.0625 0.09375 -1.015625 0.90625l-2.59375 -1.21875q2.40625 -2.40625 2.5625 -2.234375l-3.515625 0.234375l0 -2.765625l5.109375 0q0.203125 -0.21875 0.984375 -1.484375l2.234375 0.25q1.28125 0.84375 0 1.375q-0.15625 0.3125 -0.4375 0.15625l9.234375 -0.296875l0 2.765625l-2.890625 0q-0.4375 1.03125 -0.890625 1.4375q2.140625 0.5 6.1875 1.890625l-1.828125 2.515625q-4.71875 -1.90625 -6.8125 -2.359375q-2.65625 2.234375 -11.21875 2.5625l-1.34375 -3.03125q6.59375 0.359375 8.578125 -0.4375zm3.234375 3.09375l10.3125 0l0 2.75l-8.609375 0q3.0625 2.15625 9.40625 2.953125l-1.078125 3.515625q-6.96875 -1.71875 -10.03125 -4.203125l0 5.234375l-3.171875 0l0 -5.140625q-2.5 2.265625 -9.6875 4.65625l-1.09375 -3.375q6.390625 -1.34375 9.171875 -3.640625l-8.59375 0l0 -2.75l10.203125 0l0 -1.453125l2.5625 0q2.265625 0.25 0.609375 1.453125l0 0zm0 -12.1875l10.109375 0l0 5.578125l-3.1875 0l0 -2.8125l-17.015625 0l0 2.8125l-3.171875 0l0 -5.578125l10.09375 0l0 -2.28125l2.5625 0q2.265625 0.25 0.609375 1.453125l0 0.828125zm31.078125 16.421875q-3.796875 -4.125 -5.84375 -5.953125q-1.15625 3.640625 -6.234375 6.96875l-2.09375 -3.0q6.0625 -3.578125 6.0625 -9.59375l-5.359375 0l0 16.765625l-3.5 0l0 -19.84375l8.953125 0l0 -3.640625l2.90625 0q2.390625 0.5 0.59375 1.671875l0 1.96875l9.359375 0l0 17.0q0 2.640625 -2.515625 2.640625l-2.953125 0l-0.625 -3.390625l2.734375 0q0 0.125 -0.125 0.125l0 -13.296875l-5.984375 0q0 1.0625 -0.25 2.328125q3.8125 2.53125 7.0625 6.03125l-2.1875 3.21875zm19.484375 -1.390625q-0.546875 0.328125 -2.0625 0.328125q-1.984375 0 -3.09375 -1.09375q-1.40625 -1.421875 -1.40625 -3.203125q0 -1.875 1.40625 -3.296875q1.421875 -1.40625 3.515625 -1.40625q1.328125 0 1.84375 0.140625l0 -1.0l-11.359375 0.734375l-0.625 -3.28125l11.984375 -0.53125l0 -4.921875l2.46875 0q2.515625 0.484375 0.703125 1.6875l0 3.0625l8.859375 -0.625l0 3.296875l-8.859375 0.40625l0 3.390625q0.421875 1.875 0.421875 4.21875q-0.109375 5.625 -6.515625 9.609375l-2.953125 -2.15625q5.671875 -3.28125 5.671875 -5.359375zm-1.4375 -5.8125q-0.921875 0 -1.484375 0.578125q-0.46875 0.453125 -0.46875 1.265625q0 0.71875 0.359375 1.078125q0.359375 0.359375 1.28125 0.359375q0.921875 0 1.484375 -0.578125q0.46875 -0.453125 0.46875 -1.171875q0 -0.71875 -0.46875 -1.171875q-0.34375 -0.359375 -1.171875 -0.359375zm29.92749 9.15625q0.953125 -0.125 1.96875 -1.140625q1.09375 -1.078125 1.09375 -2.9375q0 -2.0625 -1.203125 -3.25q-1.1875 -1.203125 -3.875 -1.203125q-3.265625 0 -5.0 1.25q-1.703125 1.21875 -4.84375 4.796875l-2.625 -2.296875q7.890625 -7.890625 10.921875 -11.828125q-2.140625 0.265625 -6.03125 0.609375l-1.078125 -3.515625q5.8125 0 9.640625 -0.5l1.21875 -0.546875l1.390625 1.40625q1.96875 1.765625 -0.609375 2.25q-3.0 3.390625 -4.9375 5.53125q0.53125 -0.125 2.046875 -0.125q4.1875 0 6.234375 2.03125q2.015625 2.046875 2.015625 5.171875q0 3.25 -1.8125 5.078125q-2.671875 2.65625 -6.75 2.65625q-3.859375 0 -5.703125 -1.8125q-1.5 -1.53125 -1.5 -3.625q0 -1.46875 1.09375 -2.578125q1.1875 -1.203125 2.78125 -1.203125q2.09375 0 3.515625 1.40625q1.578125 1.59375 2.046875 4.375zm-3.0625 0.46875q-0.3125 -2.015625 -1.125 -2.8125q-0.546875 -0.5625 -1.0625 -0.5625q-0.609375 0 -0.859375 0.25q-0.359375 0.359375 -0.359375 0.765625q0 0.71875 0.671875 1.375q0.875 0.890625 2.3125 0.890625q0.421875 0 0.421875 0.09375zm24.13684 -6.75q2.296875 -3.109375 3.1875 -11.125l3.1875 0.5q2.140625 0.5 0.3125 1.765625q-0.609375 6.578125 -3.921875 11.265625q-2.46875 3.546875 -9.515625 7.234375l-2.703125 -2.71875q6.515625 -2.96875 9.453125 -6.921875zm-8.34375 -2.34375q-2.09375 -4.53125 -4.265625 -7.0625l3.296875 -1.796875q2.078125 2.59375 4.34375 6.953125l-3.375 1.90625zm33.278076 0.59375q0 8.140625 -7.921875 11.875l-3.015625 -2.546875q7.34375 -3.34375 7.453125 -9.4375l0 -10.96875l2.796875 0q2.25 0.484375 0.6875 1.65625l0 9.421875zm-10.71875 2.828125l-3.5 0l0 -12.859375l2.875 0q2.4375 0.25 0.625 1.640625l0 11.21875zm34.559937 6.046875l-19.828125 0l0 -3.078125l11.25 0l0.1875 -6.71875l-8.53125 0l0 -3.0625l11.734375 0l-0.203125 9.78125l5.390625 0l0 3.078125zm1.7207031 -7.703125l0 -3.390625l24.3125 0l0 3.390625l-24.3125 0zm27.58374 5.953125q11.875 -2.625 17.828125 -12.28125l2.671875 2.671875q-5.625 9.078125 -16.671875 12.578125q-0.546875 2.1875 -1.96875 -0.015625l-1.859375 -2.953125zm-0.03125 -12.9375q3.0625 1.59375 6.265625 3.921875l-2.34375 3.046875q-3.515625 -2.5625 -6.125 -3.875l2.203125 -3.09375zm2.90625 -6.171875q3.28125 1.828125 6.234375 3.921875l-2.0625 3.09375q-3.25 -2.28125 -6.109375 -3.890625l1.9375 -3.125zm19.105225 21.6875l0 -3.078125l10.625 0l0 -3.28125l-10.0 0l0 -3.0625l10.0 0l0 -3.078125l-10.625 0l0 -3.0625l13.796875 0l0 16.703125l-3.171875 0l0 -1.140625l-10.625 0zm38.404907 -12.796875q-5.859375 12.15625 -18.828125 12.78125q-0.859375 2.25 -1.953125 -0.140625l-1.046875 -3.421875q13.90625 -0.3125 18.71875 -11.453125l3.109375 2.234375zm-15.359375 0.9375q-3.15625 -2.9375 -6.109375 -4.90625l2.4375 -3.03125q2.640625 1.625 6.421875 5.171875l-2.75 2.765625z" fill-rule="nonzero"/><path fill="#000000" fill-opacity="0.0" d="m294.0182 1069.832l61.039368 0l0 14.771606l-61.039368 0z" fill-rule="evenodd"/><path fill="#000000" d="m305.61194 1073.0469l-2.453125 8.484375l-1.234375 0l-1.984375 -6.828125l-2.03125 6.828125l-1.234375 0.015625l-2.375 -8.5l1.171875 0l1.859375 7.1875l2.046875 -7.1875l1.234375 0l1.953125 7.171875l1.859375 -7.171875l1.1875 0zm7.3017273 4.890625q0 0.3125 -0.03125 0.671875l-5.328125 0q0.0625 0.984375 0.671875 1.546875q0.625 0.546875 1.5 0.546875q0.71875 0 1.1875 -0.328125q0.484375 -0.34375 0.6875 -0.90625l1.1875 0q-0.265625 0.96875 -1.078125 1.578125q-0.796875 0.59375 -1.984375 0.59375q-0.953125 0 -1.703125 -0.421875q-0.75 -0.4375 -1.1875 -1.21875q-0.421875 -0.78125 -0.421875 -1.8125q0 -1.03125 0.40625 -1.8125q0.421875 -0.78125 1.171875 -1.203125q0.75 -0.421875 1.734375 -0.421875q0.9375 0 1.671875 0.421875q0.734375 0.40625 1.125 1.140625q0.390625 0.71875 0.390625 1.625zm-1.140625 -0.234375q0 -0.625 -0.28125 -1.078125q-0.28125 -0.46875 -0.765625 -0.703125q-0.46875 -0.234375 -1.0625 -0.234375q-0.828125 0 -1.421875 0.546875q-0.59375 0.53125 -0.671875 1.46875l4.203125 0zm3.7185059 -1.59375q0.34375 -0.609375 1.0 -0.984375q0.65625 -0.375 1.5 -0.375q0.890625 0 1.609375 0.4375q0.71875 0.421875 1.125 1.203125q0.421875 0.765625 0.421875 1.78125q0 1.015625 -0.421875 1.8125q-0.40625 0.78125 -1.140625 1.21875q-0.71875 0.4375 -1.59375 0.4375q-0.875 0 -1.53125 -0.375q-0.640625 -0.375 -0.96875 -0.96875l0 1.234375l-1.109375 0l0 -9.0l1.109375 0l0 3.578125zm4.53125 2.0625q0 -0.75 -0.3125 -1.3125q-0.296875 -0.5625 -0.828125 -0.84375q-0.515625 -0.296875 -1.125 -0.296875q-0.609375 0 -1.125 0.296875q-0.515625 0.296875 -0.828125 0.859375q-0.3125 0.5625 -0.3125 1.3125q0 0.75 0.3125 1.328125q0.3125 0.5625 0.828125 0.859375q0.515625 0.296875 1.125 0.296875q0.609375 0 1.125 -0.296875q0.53125 -0.296875 0.828125 -0.859375q0.3125 -0.578125 0.3125 -1.34375zm4.946991 3.46875q-0.765625 0 -1.375 -0.25q-0.609375 -0.265625 -0.96875 -0.734375q-0.34375 -0.46875 -0.375 -1.078125l1.140625 0q0.046875 0.5 0.46875 0.8125q0.421875 0.3125 1.09375 0.3125q0.640625 0 1.0 -0.28125q0.375 -0.28125 0.375 -0.703125q0 -0.4375 -0.390625 -0.640625q-0.390625 -0.21875 -1.203125 -0.4375q-0.75 -0.1875 -1.21875 -0.390625q-0.46875 -0.203125 -0.8125 -0.59375q-0.328125 -0.390625 -0.328125 -1.046875q0 -0.5 0.296875 -0.921875q0.3125 -0.4375 0.875 -0.6875q0.5625 -0.25 1.28125 -0.25q1.109375 0 1.78125 0.5625q0.6875 0.5625 0.734375 1.53125l-1.109375 0q-0.03125 -0.515625 -0.421875 -0.828125q-0.375 -0.328125 -1.03125 -0.328125q-0.59375 0 -0.953125 0.265625q-0.34375 0.25 -0.34375 0.65625q0 0.328125 0.203125 0.546875q0.21875 0.21875 0.546875 0.34375q0.328125 0.125 0.890625 0.28125q0.71875 0.203125 1.171875 0.390625q0.453125 0.1875 0.765625 0.5625q0.328125 0.375 0.34375 0.984375q0 0.546875 -0.3125 0.984375q-0.296875 0.4375 -0.859375 0.6875q-0.546875 0.25 -1.265625 0.25zm4.5725403 -7.859375q-0.328125 0 -0.546875 -0.21875q-0.21875 -0.21875 -0.21875 -0.546875q0 -0.3125 0.21875 -0.53125q0.21875 -0.21875 0.546875 -0.21875q0.296875 0 0.5 0.21875q0.21875 0.21875 0.21875 0.53125q0 0.328125 -0.21875 0.546875q-0.203125 0.21875 -0.5 0.21875zm0.53125 1.078125l0 6.671875l-1.109375 0l0 -6.671875l1.109375 0zm3.2286682 0.921875l0 3.921875q0 0.484375 0.203125 0.6875q0.21875 0.203125 0.734375 0.203125l0.8125 0l0 0.9375l-1.0 0q-0.921875 0 -1.390625 -0.421875q-0.453125 -0.4375 -0.453125 -1.40625l0 -3.921875l-0.875 0l0 -0.921875l0.875 0l0 -1.671875l1.09375 0l0 1.671875l1.75 0l0 0.921875l-1.75 0zm9.164978 2.15625q0 0.3125 -0.03125 0.671875l-5.328125 0q0.0625 0.984375 0.671875 1.546875q0.625 0.546875 1.5 0.546875q0.71875 0 1.1875 -0.328125q0.484375 -0.34375 0.6875 -0.90625l1.1875 0q-0.265625 0.96875 -1.078125 1.578125q-0.796875 0.59375 -1.984375 0.59375q-0.953125 0 -1.703125 -0.421875q-0.75 -0.4375 -1.1875 -1.21875q-0.421875 -0.78125 -0.421875 -1.8125q0 -1.03125 0.40625 -1.8125q0.421875 -0.78125 1.171875 -1.203125q0.75 -0.421875 1.734375 -0.421875q0.9375 0 1.671875 0.421875q0.734375 0.40625 1.125 1.140625q0.390625 0.71875 0.390625 1.625zm-1.140625 -0.234375q0 -0.625 -0.28125 -1.078125q-0.28125 -0.46875 -0.765625 -0.703125q-0.46875 -0.234375 -1.0625 -0.234375q-0.828125 0 -1.421875 0.546875q-0.59375 0.53125 -0.671875 1.46875l4.203125 0z" fill-rule="nonzero"/><path fill="#000000" fill-opacity="0.0" d="m294.193 1084.9703l238.48816 0l0 16.15747l-238.48816 0z" fill-rule="evenodd"/><path fill="#000000" d="m305.693 1090.3328l-2.015625 7.4375l-2.515625 0l-1.171875 -4.828125l-1.21875 4.828125l-2.5 0l-2.03125 -7.4375l2.28125 0l1.0625 5.3125l1.25 -5.3125l2.40625 0l1.265625 5.296875l1.046875 -5.296875l2.140625 0zm11.542114 0l-2.015625 7.4375l-2.515625 0l-1.171875 -4.828125l-1.21875 4.828125l-2.5 0l-2.03125 -7.4375l2.28125 0l1.0625 5.3125l1.25 -5.3125l2.40625 0l1.265625 5.296875l1.046875 -5.296875l2.140625 0zm11.542114 0l-2.015625 7.4375l-2.515625 0l-1.171875 -4.828125l-1.21875 4.828125l-2.5 0l-2.03125 -7.4375l2.28125 0l1.0625 5.3125l1.25 -5.3125l2.40625 0l1.265625 5.296875l1.046875 -5.296875l2.140625 0zm1.9327393 7.546875q-0.59375 0 -0.984375 -0.34375q-0.375 -0.359375 -0.375 -0.890625q0 -0.53125 0.375 -0.890625q0.390625 -0.359375 0.984375 -0.359375q0.59375 0 0.96875 0.359375q0.375 0.359375 0.375 0.890625q0 0.53125 -0.375 0.890625q-0.375 0.34375 -0.96875 0.34375zm9.711639 -3.953125q0 0.328125 -0.046875 0.671875l-5.15625 0q0.046875 0.6875 0.4375 1.0625q0.40625 0.359375 0.96875 0.359375q0.859375 0 1.1875 -0.71875l2.421875 0q-0.171875 0.734375 -0.671875 1.328125q-0.484375 0.578125 -1.21875 0.921875q-0.734375 0.328125 -1.640625 0.328125q-1.09375 0 -1.953125 -0.46875q-0.84375 -0.46875 -1.328125 -1.328125q-0.46875 -0.875 -0.46875 -2.03125q0 -1.15625 0.46875 -2.015625q0.46875 -0.875 1.328125 -1.34375q0.859375 -0.46875 1.953125 -0.46875q1.09375 0 1.921875 0.453125q0.84375 0.453125 1.3125 1.296875q0.484375 0.84375 0.484375 1.953125zm-2.34375 -0.59375q0 -0.59375 -0.40625 -0.9375q-0.390625 -0.34375 -0.984375 -0.34375q-0.578125 0 -0.96875 0.34375q-0.390625 0.328125 -0.484375 0.9375l2.84375 0zm3.085083 0.703125q0 -1.140625 0.421875 -2.0q0.4375 -0.875 1.1875 -1.34375q0.75 -0.46875 1.671875 -0.46875q0.78125 0 1.375 0.328125q0.59375 0.3125 0.90625 0.828125l0 -1.046875l2.28125 0l0 7.4375l-2.28125 0l0 -1.046875q-0.328125 0.515625 -0.921875 0.84375q-0.59375 0.3125 -1.375 0.3125q-0.90625 0 -1.65625 -0.46875q-0.75 -0.484375 -1.1875 -1.34375q-0.421875 -0.875 -0.421875 -2.03125zm5.5625 0.015625q0 -0.859375 -0.46875 -1.34375q-0.46875 -0.5 -1.15625 -0.5q-0.671875 0 -1.15625 0.5q-0.46875 0.484375 -0.46875 1.328125q0 0.859375 0.46875 1.359375q0.484375 0.5 1.15625 0.5q0.6875 0 1.15625 -0.484375q0.46875 -0.5 0.46875 -1.359375zm6.971649 3.828125q-0.984375 0 -1.75 -0.328125q-0.75 -0.34375 -1.1875 -0.921875q-0.4375 -0.578125 -0.5 -1.296875l2.25 0q0.046875 0.390625 0.359375 0.625q0.328125 0.234375 0.796875 0.234375q0.421875 0 0.65625 -0.15625q0.234375 -0.171875 0.234375 -0.4375q0 -0.328125 -0.34375 -0.46875q-0.328125 -0.15625 -1.0625 -0.34375q-0.8125 -0.1875 -1.34375 -0.390625q-0.53125 -0.203125 -0.921875 -0.65625q-0.375 -0.453125 -0.375 -1.203125q0 -0.640625 0.34375 -1.171875q0.359375 -0.53125 1.046875 -0.828125q0.6875 -0.3125 1.625 -0.3125q1.40625 0 2.203125 0.703125q0.8125 0.6875 0.9375 1.828125l-2.109375 0q-0.046875 -0.375 -0.34375 -0.59375q-0.28125 -0.234375 -0.75 -0.234375q-0.40625 0 -0.625 0.15625q-0.203125 0.140625 -0.203125 0.40625q0 0.328125 0.34375 0.484375q0.34375 0.15625 1.0625 0.3125q0.828125 0.21875 1.34375 0.421875q0.515625 0.203125 0.90625 0.671875q0.390625 0.453125 0.40625 1.234375q0 0.65625 -0.375 1.171875q-0.359375 0.5 -1.046875 0.796875q-0.671875 0.296875 -1.578125 0.296875zm11.999573 -7.546875l-4.65625 10.96875l-2.453125 0l1.703125 -3.78125l-3.03125 -7.1875l2.546875 0l1.71875 4.65625l1.703125 -4.65625l2.46875 0zm3.8608398 7.546875q-0.984375 0 -1.75 -0.328125q-0.75 -0.34375 -1.1875 -0.921875q-0.4375 -0.578125 -0.5 -1.296875l2.25 0q0.046875 0.390625 0.359375 0.625q0.328125 0.234375 0.796875 0.234375q0.421875 0 0.65625 -0.15625q0.234375 -0.171875 0.234375 -0.4375q0 -0.328125 -0.34375 -0.46875q-0.328125 -0.15625 -1.0625 -0.34375q-0.8125 -0.1875 -1.34375 -0.390625q-0.53125 -0.203125 -0.921875 -0.65625q-0.375 -0.453125 -0.375 -1.203125q0 -0.640625 0.34375 -1.171875q0.359375 -0.53125 1.046875 -0.828125q0.6875 -0.3125 1.625 -0.3125q1.40625 0 2.203125 0.703125q0.8125 0.6875 0.9375 1.828125l-2.109375 0q-0.046875 -0.375 -0.34375 -0.59375q-0.28125 -0.234375 -0.75 -0.234375q-0.40625 0 -0.625 0.15625q-0.203125 0.140625 -0.203125 0.40625q0 0.328125 0.34375 0.484375q0.34375 0.15625 1.0625 0.3125q0.828125 0.21875 1.34375 0.421875q0.515625 0.203125 0.90625 0.671875q0.390625 0.453125 0.40625 1.234375q0 0.65625 -0.375 1.171875q-0.359375 0.5 -1.046875 0.796875q-0.671875 0.296875 -1.578125 0.296875zm8.968323 -7.625q1.28125 0 2.046875 0.84375q0.78125 0.84375 0.78125 2.328125l0 4.34375l-2.265625 0l0 -4.03125q0 -0.75 -0.390625 -1.15625q-0.375 -0.421875 -1.03125 -0.421875q-0.65625 0 -1.046875 0.421875q-0.375 0.40625 -0.375 1.15625l0 4.03125l-2.28125 0l0 -9.859375l2.28125 0l0 3.421875q0.34375 -0.5 0.9375 -0.78125q0.609375 -0.296875 1.34375 -0.296875zm7.811249 7.625q-1.09375 0 -1.96875 -0.46875q-0.875 -0.46875 -1.375 -1.328125q-0.5 -0.875 -0.5 -2.03125q0 -1.140625 0.5 -2.015625q0.515625 -0.875 1.390625 -1.34375q0.875 -0.46875 1.96875 -0.46875q1.09375 0 1.96875 0.46875q0.890625 0.46875 1.390625 1.34375q0.515625 0.875 0.515625 2.015625q0 1.140625 -0.515625 2.015625q-0.515625 0.875 -1.40625 1.34375q-0.890625 0.46875 -1.96875 0.46875zm0 -1.96875q0.640625 0 1.09375 -0.484375q0.46875 -0.484375 0.46875 -1.375q0 -0.890625 -0.453125 -1.375q-0.4375 -0.484375 -1.09375 -0.484375q-0.65625 0 -1.109375 0.484375q-0.4375 0.46875 -0.4375 1.375q0 0.890625 0.4375 1.375q0.4375 0.484375 1.09375 0.484375zm7.380615 -4.53125q0.328125 -0.515625 0.90625 -0.828125q0.59375 -0.328125 1.375 -0.328125q0.921875 0 1.671875 0.46875q0.75 0.46875 1.171875 1.34375q0.4375 0.859375 0.4375 2.0q0 1.15625 -0.4375 2.03125q-0.421875 0.859375 -1.171875 1.34375q-0.75 0.46875 -1.671875 0.46875q-0.765625 0 -1.359375 -0.3125q-0.59375 -0.328125 -0.921875 -0.84375l0 4.59375l-2.28125 0l0 -10.984375l2.28125 0l0 1.046875zm3.25 2.65625q0 -0.84375 -0.484375 -1.328125q-0.46875 -0.5 -1.15625 -0.5q-0.6875 0 -1.15625 0.5q-0.46875 0.484375 -0.46875 1.34375q0 0.859375 0.46875 1.359375q0.46875 0.484375 1.15625 0.484375q0.671875 0 1.15625 -0.5q0.484375 -0.5 0.484375 -1.359375zm9.252869 -1.890625l0 1.890625l-5.875 0l0 -1.890625l5.875 0zm3.1209106 -2.578125q-0.59375 0 -0.984375 -0.359375q-0.375 -0.359375 -0.375 -0.875q0 -0.53125 0.375 -0.875q0.390625 -0.359375 0.984375 -0.359375q0.59375 0 0.96875 0.359375q0.390625 0.34375 0.390625 0.875q0 0.515625 -0.390625 0.875q-0.375 0.359375 -0.96875 0.359375zm1.15625 9.15625q0 1.375 -0.703125 1.984375q-0.6875 0.609375 -1.921875 0.609375l-0.890625 0l0 -1.9375l0.546875 0q0.359375 0 0.515625 -0.15625q0.171875 -0.140625 0.171875 -0.46875l0 -8.421875l2.28125 0l0 8.390625zm3.918457 -7.34375q0.328125 -0.515625 0.90625 -0.828125q0.59375 -0.328125 1.375 -0.328125q0.921875 0 1.671875 0.46875q0.75 0.46875 1.171875 1.34375q0.4375 0.859375 0.4375 2.0q0 1.15625 -0.4375 2.03125q-0.421875 0.859375 -1.171875 1.34375q-0.75 0.46875 -1.671875 0.46875q-0.765625 0 -1.359375 -0.3125q-0.59375 -0.328125 -0.921875 -0.84375l0 4.59375l-2.28125 0l0 -10.984375l2.28125 0l0 1.046875zm3.25 2.65625q0 -0.84375 -0.484375 -1.328125q-0.46875 -0.5 -1.15625 -0.5q-0.6875 0 -1.15625 0.5q-0.46875 0.484375 -0.46875 1.34375q0 0.859375 0.46875 1.359375q0.46875 0.484375 1.15625 0.484375q0.671875 0 1.15625 -0.5q0.484375 -0.5 0.484375 -1.359375zm4.581024 3.84375q-0.59375 0 -0.984375 -0.34375q-0.375 -0.359375 -0.375 -0.890625q0 -0.53125 0.375 -0.890625q0.390625 -0.359375 0.984375 -0.359375q0.59375 0 0.96875 0.359375q0.375 0.359375 0.375 0.890625q0 0.53125 -0.375 0.890625q-0.375 0.34375 -0.96875 0.34375zm2.2428894 -3.828125q0 -1.15625 0.46875 -2.015625q0.46875 -0.875 1.3125 -1.34375q0.859375 -0.46875 1.953125 -0.46875q1.390625 0 2.328125 0.734375q0.953125 0.734375 1.234375 2.0625l-2.421875 0q-0.3125 -0.84375 -1.1875 -0.84375q-0.625 0 -1.0 0.484375q-0.375 0.484375 -0.375 1.390625q0 0.90625 0.375 1.390625q0.375 0.484375 1.0 0.484375q0.875 0 1.1875 -0.84375l2.421875 0q-0.28125 1.296875 -1.234375 2.046875q-0.953125 0.75 -2.328125 0.75q-1.09375 0 -1.953125 -0.46875q-0.84375 -0.46875 -1.3125 -1.328125q-0.46875 -0.875 -0.46875 -2.03125zm11.907227 3.828125q-1.09375 0 -1.96875 -0.46875q-0.875 -0.46875 -1.375 -1.328125q-0.5 -0.875 -0.5 -2.03125q0 -1.140625 0.5 -2.015625q0.515625 -0.875 1.390625 -1.34375q0.875 -0.46875 1.96875 -0.46875q1.09375 0 1.96875 0.46875q0.890625 0.46875 1.390625 1.34375q0.515625 0.875 0.515625 2.015625q0 1.140625 -0.515625 2.015625q-0.515625 0.875 -1.40625 1.34375q-0.890625 0.46875 -1.96875 0.46875zm0 -1.96875q0.640625 0 1.09375 -0.484375q0.46875 -0.484375 0.46875 -1.375q0 -0.890625 -0.453125 -1.375q-0.4375 -0.484375 -1.09375 -0.484375q-0.65625 0 -1.109375 0.484375q-0.4375 0.46875 -0.4375 1.375q0 0.890625 0.4375 1.375q0.4375 0.484375 1.09375 0.484375zm14.58374 -5.65625q1.390625 0 2.203125 0.84375q0.828125 0.828125 0.828125 2.328125l0 4.34375l-2.265625 0l0 -4.03125q0 -0.734375 -0.390625 -1.125q-0.375 -0.390625 -1.03125 -0.390625q-0.671875 0 -1.0625 0.390625q-0.375 0.390625 -0.375 1.125l0 4.03125l-2.265625 0l0 -4.03125q0 -0.734375 -0.375 -1.125q-0.375 -0.390625 -1.046875 -0.390625q-0.671875 0 -1.046875 0.390625q-0.375 0.390625 -0.375 1.125l0 4.03125l-2.28125 0l0 -7.4375l2.28125 0l0 0.9375q0.34375 -0.46875 0.90625 -0.734375q0.5625 -0.28125 1.265625 -0.28125q0.84375 0 1.5 0.359375q0.65625 0.359375 1.03125 1.03125q0.390625 -0.625 1.046875 -1.0q0.671875 -0.390625 1.453125 -0.390625zm9.708191 -5.140625l-3.578125 15.15625l-2.1875 0l3.5625 -15.15625l2.203125 0zm0.50634766 8.921875q0 -1.140625 0.421875 -2.0q0.4375 -0.875 1.1875 -1.34375q0.75 -0.46875 1.671875 -0.46875q0.78125 0 1.375 0.328125q0.59375 0.3125 0.90625 0.828125l0 -1.046875l2.28125 0l0 7.4375l-2.28125 0l0 -1.046875q-0.328125 0.515625 -0.921875 0.84375q-0.59375 0.3125 -1.375 0.3125q-0.90625 0 -1.65625 -0.46875q-0.75 -0.484375 -1.1875 -1.34375q-0.421875 -0.875 -0.421875 -2.03125zm5.5625 0.015625q0 -0.859375 -0.46875 -1.34375q-0.46875 -0.5 -1.15625 -0.5q-0.671875 0 -1.15625 0.5q-0.46875 0.484375 -0.46875 1.328125q0 0.859375 0.46875 1.359375q0.484375 0.5 1.15625 0.5q0.6875 0 1.15625 -0.484375q0.46875 -0.5 0.46875 -1.359375zm8.471649 -3.796875q1.296875 0 2.078125 0.84375q0.78125 0.84375 0.78125 2.328125l0 4.34375l-2.265625 0l0 -4.03125q0 -0.75 -0.390625 -1.15625q-0.375 -0.421875 -1.03125 -0.421875q-0.65625 0 -1.046875 0.421875q-0.375 0.40625 -0.375 1.15625l0 4.03125l-2.28125 0l0 -7.4375l2.28125 0l0 0.984375q0.34375 -0.484375 0.921875 -0.765625q0.59375 -0.296875 1.328125 -0.296875zm8.983124 0q1.296875 0 2.078125 0.84375q0.78125 0.84375 0.78125 2.328125l0 4.34375l-2.265625 0l0 -4.03125q0 -0.75 -0.390625 -1.15625q-0.375 -0.421875 -1.03125 -0.421875q-0.65625 0 -1.046875 0.421875q-0.375 0.40625 -0.375 1.15625l0 4.03125l-2.28125 0l0 -7.4375l2.28125 0l0 0.984375q0.34375 -0.484375 0.921875 -0.765625q0.59375 -0.296875 1.328125 -0.296875zm3.9987488 3.78125q0 -1.140625 0.421875 -2.0q0.4375 -0.875 1.1875 -1.34375q0.75 -0.46875 1.671875 -0.46875q0.78125 0 1.375 0.328125q0.59375 0.3125 0.90625 0.828125l0 -1.046875l2.28125 0l0 7.4375l-2.28125 0l0 -1.046875q-0.328125 0.515625 -0.921875 0.84375q-0.59375 0.3125 -1.375 0.3125q-0.90625 0 -1.65625 -0.46875q-0.75 -0.484375 -1.1875 -1.34375q-0.421875 -0.875 -0.421875 -2.03125zm5.5625 0.015625q0 -0.859375 -0.46875 -1.34375q-0.46875 -0.5 -1.15625 -0.5q-0.671875 0 -1.15625 0.5q-0.46875 0.484375 -0.46875 1.328125q0 0.859375 0.46875 1.359375q0.484375 0.5 1.15625 0.5q0.6875 0 1.15625 -0.484375q0.46875 -0.5 0.46875 -1.359375zm9.674744 -1.90625l0 1.890625l-5.875 0l0 -1.890625l5.875 0zm3.1365356 -2.578125q-0.59375 0 -0.984375 -0.359375q-0.375 -0.359375 -0.375 -0.875q0 -0.53125 0.375 -0.875q0.390625 -0.359375 0.984375 -0.359375q0.59375 0 0.96875 0.359375q0.375 0.34375 0.375 0.875q0 0.515625 -0.375 0.875q-0.375 0.359375 -0.96875 0.359375zm1.140625 0.765625l0 7.4375l-2.28125 0l0 -7.4375l2.28125 0z" fill-rule="nonzero"/><path fill="#000000" fill-opacity="0.0" d="m292.6667 1037.9921l171.43307 0l0 17.88977l-171.43307 0z" fill-rule="evenodd"/><path fill="#000000" d="m293.32294 1046.6305q0 -2.53125 0.984375 -3.984375q0.984375 -1.46875 3.171875 -1.46875q2.171875 0 3.15625 1.46875q0.984375 1.453125 0.984375 3.984375q0 2.5625 -0.984375 4.03125q-0.984375 1.453125 -3.15625 1.453125q-2.1875 0 -3.171875 -1.453125q-0.984375 -1.46875 -0.984375 -4.03125zm5.8125 0q0 -1.484375 -0.328125 -2.28125q-0.3125 -0.8125 -1.328125 -0.8125q-1.015625 0 -1.34375 0.8125q-0.328125 0.796875 -0.328125 2.28125q0 1.0 0.109375 1.65625q0.125 0.65625 0.484375 1.0625q0.359375 0.40625 1.078125 0.40625q0.703125 0 1.0625 -0.40625q0.359375 -0.40625 0.46875 -1.0625q0.125 -0.65625 0.125 -1.65625zm6.5232544 2.375q0.21875 1.171875 1.359375 1.171875q0.78125 0 1.109375 -0.6875q0.328125 -0.703125 0.328125 -2.265625q-0.328125 0.453125 -0.890625 0.703125q-0.5625 0.25 -1.25 0.25q-0.953125 0 -1.6875 -0.390625q-0.734375 -0.390625 -1.15625 -1.15625q-0.421875 -0.78125 -0.421875 -1.890625q0 -1.09375 0.453125 -1.90625q0.453125 -0.8125 1.28125 -1.25q0.828125 -0.4375 1.96875 -0.4375q2.1875 0 3.046875 1.359375q0.875 1.359375 0.875 4.0q0 1.90625 -0.34375 3.15625q-0.34375 1.25 -1.171875 1.90625q-0.8125 0.640625 -2.234375 0.640625q-1.109375 0 -1.90625 -0.4375q-0.78125 -0.453125 -1.203125 -1.171875q-0.421875 -0.71875 -0.484375 -1.59375l2.328125 0zm1.234375 -2.8125q0.609375 0 0.96875 -0.375q0.375 -0.375 0.375 -1.03125q0 -0.703125 -0.390625 -1.078125q-0.375 -0.390625 -1.015625 -0.390625q-0.65625 0 -1.03125 0.390625q-0.375 0.390625 -0.375 1.0625q0 0.640625 0.375 1.03125q0.375 0.390625 1.09375 0.390625zm5.1181335 0.4375q0 -2.53125 0.984375 -3.984375q0.984375 -1.46875 3.171875 -1.46875q2.171875 0 3.15625 1.46875q0.984375 1.453125 0.984375 3.984375q0 2.5625 -0.984375 4.03125q-0.984375 1.453125 -3.15625 1.453125q-2.1875 0 -3.171875 -1.453125q-0.984375 -1.46875 -0.984375 -4.03125zm5.8125 0q0 -1.484375 -0.328125 -2.28125q-0.3125 -0.8125 -1.328125 -0.8125q-1.015625 0 -1.34375 0.8125q-0.328125 0.796875 -0.328125 2.28125q0 1.0 0.109375 1.65625q0.125 0.65625 0.484375 1.0625q0.359375 0.40625 1.078125 0.40625q0.703125 0 1.0625 -0.40625q0.359375 -0.40625 0.46875 -1.0625q0.125 -0.65625 0.125 -1.65625zm10.398254 -0.6875l0 2.09375l-6.484375 0l0 -2.09375l6.484375 0zm3.7425232 0.4375q-1.390625 -0.734375 -1.390625 -2.3125q0 -0.796875 0.40625 -1.453125q0.421875 -0.65625 1.265625 -1.046875q0.84375 -0.390625 2.0625 -0.390625q1.21875 0 2.046875 0.390625q0.84375 0.390625 1.25 1.046875q0.421875 0.65625 0.421875 1.453125q0 0.796875 -0.375 1.390625q-0.375 0.578125 -1.015625 0.921875q0.796875 0.375 1.21875 1.046875q0.4375 0.671875 0.4375 1.578125q0 1.046875 -0.53125 1.8125q-0.53125 0.75 -1.4375 1.15625q-0.90625 0.390625 -2.015625 0.390625q-1.109375 0 -2.015625 -0.390625q-0.90625 -0.40625 -1.4375 -1.15625q-0.53125 -0.765625 -0.53125 -1.8125q0 -0.921875 0.421875 -1.578125q0.4375 -0.671875 1.21875 -1.046875zm3.609375 -1.9375q0 -0.59375 -0.34375 -0.921875q-0.34375 -0.34375 -0.921875 -0.34375q-0.578125 0 -0.921875 0.34375q-0.34375 0.34375 -0.34375 0.9375q0 0.578125 0.34375 0.921875q0.359375 0.328125 0.921875 0.328125q0.5625 0 0.90625 -0.34375q0.359375 -0.34375 0.359375 -0.921875zm-1.265625 3.03125q-0.703125 0 -1.125 0.375q-0.421875 0.375 -0.421875 1.03125q0 0.625 0.421875 1.03125q0.421875 0.390625 1.125 0.390625q0.703125 0 1.109375 -0.390625q0.40625 -0.40625 0.40625 -1.03125q0 -0.640625 -0.421875 -1.015625q-0.421875 -0.390625 -1.09375 -0.390625zm5.3548584 2.671875q0.5 -0.40625 0.453125 -0.375q1.453125 -1.1875 2.28125 -1.953125q0.828125 -0.78125 1.40625 -1.609375q0.578125 -0.84375 0.578125 -1.640625q0 -0.609375 -0.28125 -0.9375q-0.28125 -0.34375 -0.84375 -0.34375q-0.5625 0 -0.875 0.421875q-0.3125 0.421875 -0.3125 1.1875l-2.4375 0q0.03125 -1.265625 0.53125 -2.09375q0.515625 -0.84375 1.34375 -1.234375q0.84375 -0.40625 1.859375 -0.40625q1.75 0 2.640625 0.90625q0.890625 0.890625 0.890625 2.328125q0 1.578125 -1.078125 2.9375q-1.078125 1.34375 -2.734375 2.625l3.984375 0l0 2.0625l-7.40625 0l0 -1.875zm8.234772 -6.40625l0 -2.34375l4.09375 0l0 10.765625l-2.625 0l0 -8.421875l-1.46875 0zm5.811615 2.890625q0 -2.53125 0.984375 -3.984375q0.984375 -1.46875 3.171875 -1.46875q2.171875 0 3.15625 1.46875q0.984375 1.453125 0.984375 3.984375q0 2.5625 -0.984375 4.03125q-0.984375 1.453125 -3.15625 1.453125q-2.1875 0 -3.171875 -1.453125q-0.984375 -1.46875 -0.984375 -4.03125zm5.8125 0q0 -1.484375 -0.328125 -2.28125q-0.3125 -0.8125 -1.328125 -0.8125q-1.015625 0 -1.34375 0.8125q-0.328125 0.796875 -0.328125 2.28125q0 1.0 0.109375 1.65625q0.125 0.65625 0.484375 1.0625q0.359375 0.40625 1.078125 0.40625q0.703125 0 1.0625 -0.40625q0.359375 -0.40625 0.46875 -1.0625q0.125 -0.65625 0.125 -1.65625zm10.398254 -0.6875l0 2.09375l-6.484375 0l0 -2.09375l6.484375 0zm8.836273 -2.65625l-3.703125 8.875l-2.578125 0l3.75 -8.59375l-4.59375 0l0 -2.15625l7.125 0l0 1.875zm1.0787354 6.953125l0 -2.03125l4.671875 -6.671875l2.8125 0l0 6.53125l1.203125 0l0 2.171875l-1.203125 0l0 1.921875l-2.53125 0l0 -1.921875l-4.953125 0zm5.140625 -5.921875l-2.484375 3.75l2.484375 0l0 -3.75zm4.7826233 2.3125q0 -2.53125 0.984375 -3.984375q0.984375 -1.46875 3.171875 -1.46875q2.171875 0 3.15625 1.46875q0.984375 1.453125 0.984375 3.984375q0 2.5625 -0.984375 4.03125q-0.984375 1.453125 -3.15625 1.453125q-2.1875 0 -3.171875 -1.453125q-0.984375 -1.46875 -0.984375 -4.03125zm5.8125 0q0 -1.484375 -0.328125 -2.28125q-0.3125 -0.8125 -1.328125 -0.8125q-1.015625 0 -1.34375 0.8125q-0.328125 0.796875 -0.328125 2.28125q0 1.0 0.109375 1.65625q0.125 0.65625 0.484375 1.0625q0.359375 0.40625 1.078125 0.40625q0.703125 0 1.0625 -0.40625q0.359375 -0.40625 0.46875 -1.0625q0.125 -0.65625 0.125 -1.65625zm9.132629 -2.328125q-0.109375 -0.546875 -0.40625 -0.8125q-0.296875 -0.28125 -0.84375 -0.28125q-0.84375 0 -1.21875 0.734375q-0.359375 0.71875 -0.375 2.296875q0.328125 -0.515625 0.9375 -0.796875q0.609375 -0.296875 1.34375 -0.296875q1.453125 0 2.328125 0.921875q0.875 0.90625 0.875 2.53125q0 1.078125 -0.4375 1.890625q-0.421875 0.8125 -1.265625 1.28125q-0.828125 0.453125 -1.96875 0.453125q-2.265625 0 -3.15625 -1.421875q-0.875 -1.421875 -0.875 -4.09375q0 -2.8125 0.921875 -4.171875q0.9375 -1.359375 3.015625 -1.359375q1.09375 0 1.859375 0.4375q0.765625 0.421875 1.15625 1.140625q0.390625 0.703125 0.453125 1.546875l-2.34375 0zm-1.15625 2.828125q-0.640625 0 -1.0625 0.375q-0.421875 0.375 -0.421875 1.078125q0 0.703125 0.390625 1.109375q0.390625 0.390625 1.125 0.390625q0.640625 0 1.015625 -0.390625q0.375 -0.390625 0.375 -1.078125q0 -0.6875 -0.375 -1.078125q-0.359375 -0.40625 -1.046875 -0.40625z" fill-rule="nonzero"/><path fill="#000000" fill-opacity="0.0" d="m292.84323 1022.69116l49.165344 0l0 14.929077l-49.165344 0z" fill-rule="evenodd"/><path fill="#000000" d="m299.53073 1028.4558q0 1.0625 -0.734375 1.78125q-0.734375 0.703125 -2.234375 0.703125l-1.65625 0l0 3.578125l-1.109375 0l0 -8.578125l2.765625 0q1.453125 0 2.203125 0.703125q0.765625 0.703125 0.765625 1.8125zm-2.96875 1.5625q0.9375 0 1.375 -0.40625q0.453125 -0.40625 0.453125 -1.15625q0 -1.59375 -1.828125 -1.59375l-1.65625 0l0 3.15625l1.65625 0zm7.7070007 -2.375q0.765625 0 1.375 0.328125q0.625 0.328125 0.96875 0.984375q0.359375 0.65625 0.359375 1.578125l0 3.984375l-1.109375 0l0 -3.8125q0 -1.015625 -0.515625 -1.546875q-0.5 -0.53125 -1.375 -0.53125q-0.890625 0 -1.421875 0.546875q-0.515625 0.546875 -0.515625 1.609375l0 3.734375l-1.109375 0l0 -9.109375l1.109375 0l0 3.328125q0.34375 -0.515625 0.921875 -0.796875q0.59375 -0.296875 1.3125 -0.296875zm7.473694 6.984375q-0.953125 0 -1.71875 -0.421875q-0.765625 -0.4375 -1.203125 -1.234375q-0.4375 -0.796875 -0.4375 -1.84375q0 -1.03125 0.4375 -1.828125q0.453125 -0.796875 1.234375 -1.21875q0.78125 -0.421875 1.734375 -0.421875q0.96875 0 1.734375 0.421875q0.78125 0.421875 1.21875 1.21875q0.453125 0.78125 0.453125 1.828125q0 1.046875 -0.46875 1.84375q-0.453125 0.796875 -1.25 1.234375q-0.78125 0.421875 -1.734375 0.421875zm0 -0.984375q0.609375 0 1.125 -0.28125q0.53125 -0.28125 0.859375 -0.84375q0.328125 -0.578125 0.328125 -1.390625q0 -0.8125 -0.328125 -1.375q-0.3125 -0.5625 -0.828125 -0.84375q-0.515625 -0.28125 -1.125 -0.28125q-0.609375 0 -1.125 0.28125q-0.5 0.28125 -0.8125 0.84375q-0.3125 0.5625 -0.3125 1.375q0 0.828125 0.296875 1.40625q0.3125 0.5625 0.8125 0.84375q0.5 0.265625 1.109375 0.265625zm8.223694 -6.0q1.234375 0 2.0 0.75q0.765625 0.75 0.765625 2.140625l0 3.984375l-1.109375 0l0 -3.8125q0 -1.015625 -0.515625 -1.546875q-0.5 -0.53125 -1.375 -0.53125q-0.890625 0 -1.421875 0.546875q-0.515625 0.546875 -0.515625 1.609375l0 3.734375l-1.109375 0l0 -6.75l1.109375 0l0 0.96875q0.34375 -0.515625 0.90625 -0.796875q0.578125 -0.296875 1.265625 -0.296875zm10.754944 3.25q0 0.3125 -0.046875 0.671875l-5.390625 0q0.0625 1.0 0.6875 1.5625q0.625 0.546875 1.5 0.546875q0.734375 0 1.21875 -0.328125q0.484375 -0.34375 0.6875 -0.90625l1.203125 0q-0.265625 0.96875 -1.078125 1.578125q-0.8125 0.609375 -2.03125 0.609375q-0.953125 0 -1.71875 -0.421875q-0.75 -0.4375 -1.1875 -1.234375q-0.421875 -0.796875 -0.421875 -1.84375q0 -1.046875 0.40625 -1.828125q0.421875 -0.796875 1.171875 -1.21875q0.765625 -0.421875 1.75 -0.421875q0.96875 0 1.703125 0.421875q0.734375 0.421875 1.140625 1.15625q0.40625 0.71875 0.40625 1.65625zm-1.15625 -0.234375q0 -0.640625 -0.296875 -1.109375q-0.28125 -0.46875 -0.765625 -0.703125q-0.484375 -0.234375 -1.078125 -0.234375q-0.84375 0 -1.453125 0.546875q-0.59375 0.53125 -0.671875 1.5l4.265625 0z" fill-rule="nonzero"/><path fill="#000000" fill-opacity="0.0" d="m293.03906 990.51965l212.97638 0l0 17.858276l-212.97638 0z" fill-rule="evenodd"/><path fill="#000000" d="m298.52344 1002.523l0 2.140625l-1.28125 0q-1.359375 0 -2.125 -0.671875q-0.765625 -0.671875 -0.765625 -2.1875l0 -3.265625l-1.0 0l0 -2.09375l1.0 0l0 -2.0l2.515625 0l0 2.0l1.640625 0l0 2.09375l-1.640625 0l0 3.296875q0 0.375 0.171875 0.53125q0.1875 0.15625 0.59375 0.15625l0.890625 0zm5.1476746 2.265625q-1.21875 0 -2.1875 -0.515625q-0.953125 -0.515625 -1.515625 -1.46875q-0.546875 -0.96875 -0.546875 -2.25q0 -1.265625 0.5625 -2.21875q0.5625 -0.96875 1.53125 -1.484375q0.96875 -0.515625 2.1875 -0.515625q1.203125 0 2.171875 0.515625q0.96875 0.515625 1.53125 1.484375q0.5625 0.953125 0.5625 2.21875q0 1.265625 -0.578125 2.234375q-0.5625 0.96875 -1.546875 1.484375q-0.96875 0.515625 -2.171875 0.515625zm0 -2.1875q0.71875 0 1.21875 -0.53125q0.515625 -0.53125 0.515625 -1.515625q0 -0.984375 -0.5 -1.515625q-0.484375 -0.53125 -1.203125 -0.53125q-0.75 0 -1.234375 0.53125q-0.484375 0.515625 -0.484375 1.515625q0 0.984375 0.484375 1.515625q0.484375 0.53125 1.203125 0.53125zm10.6571045 2.0625l-2.515625 -3.4375l0 3.4375l-2.515625 0l0 -10.890625l2.515625 0l0 6.015625l2.5 -3.34375l3.09375 0l-3.40625 4.125l3.4375 4.09375l-3.109375 0zm12.455597 -8.21875l-5.140625 12.125l-2.71875 0l1.890625 -4.1875l-3.34375 -7.9375l2.8125 0l1.890625 5.140625l1.890625 -5.140625l2.71875 0zm4.661621 8.34375q-1.21875 0 -2.1875 -0.515625q-0.953125 -0.515625 -1.515625 -1.46875q-0.546875 -0.96875 -0.546875 -2.25q0 -1.265625 0.5625 -2.21875q0.5625 -0.96875 1.53125 -1.484375q0.96875 -0.515625 2.1875 -0.515625q1.203125 0 2.171875 0.515625q0.96875 0.515625 1.53125 1.484375q0.5625 0.953125 0.5625 2.21875q0 1.265625 -0.578125 2.234375q-0.5625 0.96875 -1.546875 1.484375q-0.96875 0.515625 -2.171875 0.515625zm0 -2.1875q0.71875 0 1.21875 -0.53125q0.515625 -0.53125 0.515625 -1.515625q0 -0.984375 -0.5 -1.515625q-0.484375 -0.53125 -1.203125 -0.53125q-0.75 0 -1.234375 0.53125q-0.484375 0.515625 -0.484375 1.515625q0 0.984375 0.484375 1.515625q0.484375 0.53125 1.203125 0.53125zm13.8133545 -7.765625q1.734375 0 3.03125 0.65625q1.296875 0.65625 2.0 1.84375q0.703125 1.171875 0.703125 2.71875q0 1.25 -0.4375 2.328125q-0.4375 1.078125 -1.28125 1.71875q-0.84375 0.640625 -2.015625 0.640625q-0.78125 0 -1.296875 -0.3125q-0.5 -0.3125 -0.671875 -0.875q-0.40625 0.578125 -1.0625 0.90625q-0.640625 0.3125 -1.40625 0.3125q-1.09375 0 -1.71875 -0.65625q-0.625 -0.65625 -0.625 -1.796875q0 -1.078125 0.4375 -2.015625q0.453125 -0.953125 1.21875 -1.53125q0.78125 -0.578125 1.765625 -0.578125q1.234375 0 1.671875 0.890625l0.125 -0.78125l2.03125 0l-0.640625 3.6875q-0.046875 0.265625 -0.046875 0.484375q0 0.640625 0.578125 0.640625q0.703125 0 1.078125 -0.90625q0.375 -0.90625 0.375 -2.078125q0 -1.6875 -1.0625 -2.640625q-1.0625 -0.96875 -3.0 -0.96875q-1.640625 0 -3.0 0.796875q-1.34375 0.796875 -2.109375 2.171875q-0.765625 1.375 -0.765625 3.015625q0 1.78125 1.03125 2.765625q1.046875 1.0 2.921875 1.0q1.453125 0 2.59375 -0.53125l0.40625 1.59375q-1.4375 0.640625 -3.234375 0.640625q-1.6875 0 -2.96875 -0.65625q-1.265625 -0.640625 -1.953125 -1.84375q-0.6875 -1.1875 -0.6875 -2.765625q0 -2.234375 1.046875 -4.03125q1.046875 -1.796875 2.875 -2.8125q1.828125 -1.03125 4.09375 -1.03125zm-1.609375 8.125q0.40625 0 0.765625 -0.25q0.359375 -0.25 0.5625 -0.671875q0.21875 -0.421875 0.21875 -0.90625q0 -0.5 -0.28125 -0.8125q-0.265625 -0.328125 -0.75 -0.328125q-0.65625 0 -1.09375 0.5625q-0.421875 0.5625 -0.421875 1.328125q0 0.484375 0.25 0.78125q0.25 0.296875 0.75 0.296875zm17.068146 -2.53125q0 0.34375 -0.046875 0.734375l-5.6875 0q0.046875 0.765625 0.484375 1.171875q0.4375 0.40625 1.0625 0.40625q0.953125 0 1.3125 -0.796875l2.6875 0q-0.21875 0.8125 -0.75 1.453125q-0.53125 0.640625 -1.34375 1.015625q-0.8125 0.375 -1.8125 0.375q-1.203125 0 -2.15625 -0.515625q-0.9375 -0.515625 -1.46875 -1.46875q-0.53125 -0.96875 -0.53125 -2.25q0 -1.28125 0.515625 -2.234375q0.53125 -0.953125 1.46875 -1.46875q0.953125 -0.515625 2.171875 -0.515625q1.1875 0 2.109375 0.5q0.9375 0.5 1.453125 1.4375q0.53125 0.921875 0.53125 2.15625zm-2.578125 -0.671875q0 -0.640625 -0.4375 -1.015625q-0.4375 -0.390625 -1.109375 -0.390625q-0.625 0 -1.0625 0.375q-0.4375 0.359375 -0.546875 1.03125l3.15625 0zm3.3948975 0.78125q0 -1.265625 0.484375 -2.21875q0.484375 -0.953125 1.296875 -1.46875q0.828125 -0.515625 1.84375 -0.515625q0.875 0 1.53125 0.359375q0.65625 0.34375 1.0 0.921875l0 -1.171875l2.515625 0l0 8.21875l-2.515625 0l0 -1.15625q-0.359375 0.5625 -1.015625 0.921875q-0.65625 0.359375 -1.53125 0.359375q-1.0 0 -1.828125 -0.515625q-0.8125 -0.53125 -1.296875 -1.5q-0.484375 -0.96875 -0.484375 -2.234375zm6.15625 0.015625q0 -0.9375 -0.53125 -1.484375q-0.515625 -0.546875 -1.265625 -0.546875q-0.75 0 -1.28125 0.546875q-0.515625 0.53125 -0.515625 1.46875q0 0.953125 0.515625 1.5q0.53125 0.546875 1.28125 0.546875q0.75 0 1.265625 -0.546875q0.53125 -0.546875 0.53125 -1.484375zm7.681549 4.234375q-1.078125 0 -1.921875 -0.375q-0.828125 -0.375 -1.3125 -1.015625q-0.484375 -0.640625 -0.546875 -1.421875l2.484375 0q0.046875 0.421875 0.390625 0.6875q0.359375 0.265625 0.875 0.265625q0.46875 0 0.71875 -0.1875q0.265625 -0.1875 0.265625 -0.484375q0 -0.34375 -0.375 -0.515625q-0.359375 -0.171875 -1.171875 -0.375q-0.890625 -0.203125 -1.484375 -0.421875q-0.578125 -0.234375 -1.015625 -0.734375q-0.421875 -0.5 -0.421875 -1.328125q0 -0.703125 0.390625 -1.28125q0.390625 -0.59375 1.140625 -0.921875q0.765625 -0.34375 1.8125 -0.34375q1.546875 0 2.4375 0.765625q0.890625 0.765625 1.015625 2.03125l-2.328125 0q-0.046875 -0.4375 -0.375 -0.6875q-0.3125 -0.25 -0.828125 -0.25q-0.4375 0 -0.671875 0.171875q-0.234375 0.171875 -0.234375 0.46875q0 0.359375 0.375 0.53125q0.375 0.171875 1.171875 0.34375q0.90625 0.25 1.484375 0.484375q0.578125 0.21875 1.0 0.734375q0.4375 0.5 0.453125 1.34375q0 0.734375 -0.40625 1.296875q-0.40625 0.5625 -1.171875 0.890625q-0.75 0.328125 -1.75 0.328125zm13.259949 -8.34375l-5.140625 12.125l-2.71875 0l1.890625 -4.1875l-3.34375 -7.9375l2.8125 0l1.890625 5.140625l1.890625 -5.140625l2.71875 0zm4.255371 8.34375q-1.078125 0 -1.921875 -0.375q-0.828125 -0.375 -1.3125 -1.015625q-0.484375 -0.640625 -0.546875 -1.421875l2.484375 0q0.046875 0.421875 0.390625 0.6875q0.359375 0.265625 0.875 0.265625q0.46875 0 0.71875 -0.1875q0.265625 -0.1875 0.265625 -0.484375q0 -0.34375 -0.375 -0.515625q-0.359375 -0.171875 -1.171875 -0.375q-0.890625 -0.203125 -1.484375 -0.421875q-0.578125 -0.234375 -1.015625 -0.734375q-0.421875 -0.5 -0.421875 -1.328125q0 -0.703125 0.390625 -1.28125q0.390625 -0.59375 1.140625 -0.921875q0.765625 -0.34375 1.8125 -0.34375q1.546875 0 2.4375 0.765625q0.890625 0.765625 1.015625 2.03125l-2.328125 0q-0.046875 -0.4375 -0.375 -0.6875q-0.3125 -0.25 -0.828125 -0.25q-0.4375 0 -0.671875 0.171875q-0.234375 0.171875 -0.234375 0.46875q0 0.359375 0.375 0.53125q0.375 0.171875 1.171875 0.34375q0.90625 0.25 1.484375 0.484375q0.578125 0.21875 1.0 0.734375q0.4375 0.5 0.453125 1.34375q0 0.734375 -0.40625 1.296875q-0.40625 0.5625 -1.171875 0.890625q-0.75 0.328125 -1.75 0.328125zm9.931824 -8.421875q1.40625 0 2.25 0.9375q0.859375 0.921875 0.859375 2.5625l0 4.796875l-2.5 0l0 -4.453125q0 -0.828125 -0.4375 -1.28125q-0.421875 -0.46875 -1.140625 -0.46875q-0.71875 0 -1.15625 0.46875q-0.421875 0.453125 -0.421875 1.28125l0 4.453125l-2.515625 0l0 -10.890625l2.515625 0l0 3.78125q0.390625 -0.546875 1.046875 -0.859375q0.671875 -0.328125 1.5 -0.328125zm8.607971 8.421875q-1.21875 0 -2.1875 -0.515625q-0.953125 -0.515625 -1.515625 -1.46875q-0.546875 -0.96875 -0.546875 -2.25q0 -1.265625 0.5625 -2.21875q0.5625 -0.96875 1.53125 -1.484375q0.96875 -0.515625 2.1875 -0.515625q1.203125 0 2.171875 0.515625q0.96875 0.515625 1.53125 1.484375q0.5625 0.953125 0.5625 2.21875q0 1.265625 -0.578125 2.234375q-0.5625 0.96875 -1.546875 1.484375q-0.96875 0.515625 -2.171875 0.515625zm0 -2.1875q0.71875 0 1.21875 -0.53125q0.515625 -0.53125 0.515625 -1.515625q0 -0.984375 -0.5 -1.515625q-0.484375 -0.53125 -1.203125 -0.53125q-0.75 0 -1.234375 0.53125q-0.484375 0.515625 -0.484375 1.515625q0 0.984375 0.484375 1.515625q0.484375 0.53125 1.203125 0.53125zm8.1414795 -4.984375q0.375 -0.578125 1.015625 -0.921875q0.65625 -0.359375 1.53125 -0.359375q1.015625 0 1.828125 0.515625q0.828125 0.515625 1.296875 1.46875q0.484375 0.953125 0.484375 2.21875q0 1.265625 -0.484375 2.234375q-0.46875 0.96875 -1.296875 1.5q-0.8125 0.515625 -1.828125 0.515625q-0.859375 0 -1.515625 -0.359375q-0.65625 -0.359375 -1.03125 -0.90625l0 5.0625l-2.515625 0l0 -12.140625l2.515625 0l0 1.171875zm3.59375 2.921875q0 -0.9375 -0.53125 -1.46875q-0.515625 -0.546875 -1.28125 -0.546875q-0.75 0 -1.265625 0.546875q-0.515625 0.546875 -0.515625 1.484375q0 0.9375 0.515625 1.484375q0.515625 0.546875 1.265625 0.546875q0.765625 0 1.28125 -0.546875q0.53125 -0.546875 0.53125 -1.5zm10.212799 -2.09375l0 2.09375l-6.46875 0l0 -2.09375l6.46875 0zm3.4587402 -2.84375q-0.65625 0 -1.078125 -0.390625q-0.421875 -0.390625 -0.421875 -0.96875q0 -0.59375 0.421875 -0.984375q0.421875 -0.390625 1.078125 -0.390625q0.65625 0 1.078125 0.390625q0.421875 0.390625 0.421875 0.984375q0 0.578125 -0.421875 0.96875q-0.421875 0.390625 -1.078125 0.390625zm1.265625 10.125q0 1.515625 -0.765625 2.1875q-0.75 0.671875 -2.125 0.671875l-0.984375 0l0 -2.140625l0.59375 0q0.421875 0 0.59375 -0.171875q0.171875 -0.15625 0.171875 -0.515625l0 -9.3125l2.515625 0l0 9.28125zm4.3273315 -8.109375q0.375 -0.578125 1.015625 -0.921875q0.65625 -0.359375 1.53125 -0.359375q1.015625 0 1.828125 0.515625q0.828125 0.515625 1.296875 1.46875q0.484375 0.953125 0.484375 2.21875q0 1.265625 -0.484375 2.234375q-0.46875 0.96875 -1.296875 1.5q-0.8125 0.515625 -1.828125 0.515625q-0.859375 0 -1.515625 -0.359375q-0.65625 -0.359375 -1.03125 -0.90625l0 5.0625l-2.515625 0l0 -12.140625l2.515625 0l0 1.171875zm3.59375 2.921875q0 -0.9375 -0.53125 -1.46875q-0.515625 -0.546875 -1.28125 -0.546875q-0.75 0 -1.265625 0.546875q-0.515625 0.546875 -0.515625 1.484375q0 0.9375 0.515625 1.484375q0.515625 0.546875 1.265625 0.546875q0.765625 0 1.28125 -0.546875q0.53125 -0.546875 0.53125 -1.5zm5.072174 4.25q-0.671875 0 -1.09375 -0.390625q-0.40625 -0.390625 -0.40625 -0.96875q0 -0.59375 0.40625 -0.984375q0.421875 -0.40625 1.09375 -0.40625q0.640625 0 1.0625 0.40625q0.421875 0.390625 0.421875 0.984375q0 0.578125 -0.421875 0.96875q-0.421875 0.390625 -1.0625 0.390625zm2.4631958 -4.234375q0 -1.28125 0.515625 -2.234375q0.53125 -0.953125 1.46875 -1.46875q0.9375 -0.515625 2.140625 -0.515625q1.546875 0 2.578125 0.8125q1.046875 0.796875 1.375 2.28125l-2.6875 0q-0.34375 -0.953125 -1.3125 -0.953125q-0.6875 0 -1.109375 0.546875q-0.40625 0.53125 -0.40625 1.53125q0 1.0 0.40625 1.546875q0.421875 0.53125 1.109375 0.53125q0.96875 0 1.3125 -0.9375l2.6875 0q-0.328125 1.4375 -1.375 2.265625q-1.046875 0.828125 -2.578125 0.828125q-1.203125 0 -2.140625 -0.515625q-0.9375 -0.515625 -1.46875 -1.46875q-0.515625 -0.96875 -0.515625 -2.25zm13.154846 4.234375q-1.21875 0 -2.1875 -0.515625q-0.953125 -0.515625 -1.515625 -1.46875q-0.546875 -0.96875 -0.546875 -2.25q0 -1.265625 0.5625 -2.21875q0.5625 -0.96875 1.53125 -1.484375q0.96875 -0.515625 2.1875 -0.515625q1.203125 0 2.171875 0.515625q0.96875 0.515625 1.53125 1.484375q0.5625 0.953125 0.5625 2.21875q0 1.265625 -0.578125 2.234375q-0.5625 0.96875 -1.546875 1.484375q-0.96875 0.515625 -2.171875 0.515625zm0 -2.1875q0.71875 0 1.21875 -0.53125q0.515625 -0.53125 0.515625 -1.515625q0 -0.984375 -0.5 -1.515625q-0.484375 -0.53125 -1.203125 -0.53125q-0.75 0 -1.234375 0.53125q-0.484375 0.515625 -0.484375 1.515625q0 0.984375 0.484375 1.515625q0.484375 0.53125 1.203125 0.53125zm16.11023 -6.234375q1.53125 0 2.4375 0.921875q0.90625 0.921875 0.90625 2.578125l0 4.796875l-2.5 0l0 -4.453125q0 -0.796875 -0.421875 -1.234375q-0.421875 -0.4375 -1.15625 -0.4375q-0.734375 0 -1.15625 0.4375q-0.421875 0.4375 -0.421875 1.234375l0 4.453125l-2.5 0l0 -4.453125q0 -0.796875 -0.421875 -1.234375q-0.421875 -0.4375 -1.15625 -0.4375q-0.734375 0 -1.15625 0.4375q-0.421875 0.4375 -0.421875 1.234375l0 4.453125l-2.515625 0l0 -8.21875l2.515625 0l0 1.03125q0.390625 -0.515625 1.0 -0.8125q0.625 -0.296875 1.40625 -0.296875q0.921875 0 1.65625 0.40625q0.734375 0.390625 1.140625 1.125q0.421875 -0.6875 1.15625 -1.109375q0.75 -0.421875 1.609375 -0.421875z" fill-rule="nonzero"/><path fill="#000000" fill-opacity="0.0" d="m293.2152 975.25525l61.51181 0l0 14.897644l-61.51181 0z" fill-rule="evenodd"/><path fill="#000000" d="m300.30896 983.4318q0 0.328125 -0.046875 0.671875l-5.375 0q0.0625 1.0 0.671875 1.5625q0.625 0.5625 1.515625 0.5625q0.71875 0 1.203125 -0.34375q0.484375 -0.34375 0.6875 -0.90625l1.203125 0q-0.265625 0.96875 -1.078125 1.578125q-0.8125 0.609375 -2.015625 0.609375q-0.96875 0 -1.71875 -0.421875q-0.75 -0.4375 -1.1875 -1.21875q-0.421875 -0.796875 -0.421875 -1.84375q0 -1.046875 0.40625 -1.828125q0.421875 -0.796875 1.171875 -1.21875q0.765625 -0.421875 1.75 -0.421875q0.953125 0 1.6875 0.421875q0.734375 0.421875 1.140625 1.15625q0.40625 0.71875 0.40625 1.640625zm-1.15625 -0.234375q0 -0.640625 -0.296875 -1.09375q-0.28125 -0.46875 -0.765625 -0.703125q-0.484375 -0.234375 -1.0625 -0.234375q-0.859375 0 -1.453125 0.546875q-0.59375 0.53125 -0.671875 1.484375l4.25 0zm7.286194 -1.109375l0 0.9375l-4.890625 0l0 -0.9375l4.890625 0zm10.188812 -1.890625q0.796875 0 1.40625 0.328125q0.609375 0.328125 0.96875 0.984375q0.359375 0.640625 0.359375 1.578125l0 3.96875l-1.109375 0l0 -3.8125q0 -1.0 -0.5 -1.53125q-0.484375 -0.53125 -1.34375 -0.53125q-0.859375 0 -1.375 0.5625q-0.515625 0.546875 -0.515625 1.609375l0 3.703125l-1.109375 0l0 -3.8125q0 -1.0 -0.5 -1.53125q-0.5 -0.53125 -1.34375 -0.53125q-0.875 0 -1.390625 0.5625q-0.515625 0.546875 -0.515625 1.609375l0 3.703125l-1.109375 0l0 -6.734375l1.109375 0l0 0.96875q0.328125 -0.515625 0.890625 -0.796875q0.5625 -0.296875 1.234375 -0.296875q0.84375 0 1.5 0.390625q0.65625 0.375 0.96875 1.109375q0.28125 -0.703125 0.921875 -1.09375q0.65625 -0.40625 1.453125 -0.40625zm4.1496277 3.46875q0 -1.03125 0.40625 -1.8125q0.421875 -0.78125 1.15625 -1.203125q0.734375 -0.4375 1.625 -0.4375q0.890625 0 1.53125 0.390625q0.65625 0.375 0.96875 0.953125l0 -1.234375l1.140625 0l0 6.734375l-1.140625 0l0 -1.25q-0.328125 0.59375 -0.984375 0.984375q-0.65625 0.375 -1.53125 0.375q-0.890625 0 -1.625 -0.4375q-0.71875 -0.453125 -1.140625 -1.25q-0.40625 -0.796875 -0.40625 -1.8125zm5.6875 0.015625q0 -0.765625 -0.3125 -1.328125q-0.296875 -0.5625 -0.828125 -0.859375q-0.515625 -0.3125 -1.140625 -0.3125q-0.625 0 -1.140625 0.296875q-0.515625 0.296875 -0.828125 0.859375q-0.296875 0.5625 -0.296875 1.328125q0 0.78125 0.296875 1.359375q0.3125 0.5625 0.828125 0.859375q0.515625 0.296875 1.140625 0.296875q0.625 0 1.140625 -0.296875q0.53125 -0.296875 0.828125 -0.859375q0.3125 -0.578125 0.3125 -1.34375zm3.598938 -4.453125q-0.3125 0 -0.53125 -0.21875q-0.21875 -0.21875 -0.21875 -0.53125q0 -0.328125 0.21875 -0.546875q0.21875 -0.21875 0.53125 -0.21875q0.3125 0 0.53125 0.21875q0.21875 0.21875 0.21875 0.546875q0 0.3125 -0.21875 0.53125q-0.21875 0.21875 -0.53125 0.21875zm0.546875 1.09375l0 6.734375l-1.109375 0l0 -6.734375l1.109375 0zm3.0211792 -2.359375l0 9.09375l-1.109375 0l0 -9.09375l1.109375 0z" fill-rule="nonzero"/><path fill="#000000" fill-opacity="0.0" d="m252.16063 945.5215l315.90552 0l0 20.692871l-315.90552 0z" fill-rule="evenodd"/><path fill="#000000" d="m261.92624 948.3714q0.859375 1.1875 1.125 2.125l-1.328125 0.59375q-0.328125 -0.921875 -1.0625 -2.0625l1.265625 -0.65625zm4.578125 0.203125q0.265625 0.265625 -0.203125 0.328125l-1.0625 2.328125l2.59375 0l0 1.25l-3.515625 0l0 2.203125l3.125 0l0 1.25l-3.125 0l0 2.328125l3.921875 0l0 1.265625l-3.921875 0l0 3.78125l-1.328125 0l0 -3.78125l-3.515625 0l0 -1.265625l3.515625 0l0 -2.328125l-2.921875 0l0 -1.25l2.921875 0l0 -2.203125l-3.25 0l0 -1.25l4.25 0l0.984375 -3.125l1.53125 0.46875zm-12.343735 1.25l0 -1.25l4.4374847 0l0 1.25l-4.4374847 0zm-1.0 2.265625l0 -1.265625l5.9687347 0l0 1.265625l-5.9687347 0zm5.4374847 2.390625l-4.4374847 0l0 -1.265625l4.4374847 0l0 1.265625zm0 2.390625l-4.4374847 0l0 -1.265625l4.4374847 0l0 1.265625zm-0.921875 4.578125l0 -2.390625l-2.5312347 0l0 2.390625l2.5312347 0zm-2.5312347 1.9375l-1.328125 0l0 -5.59375l5.1874847 0l0 5.390625l-1.328125 0l0 -0.46875l-2.5312347 0l0 0.671875zm19.26561 -14.28125q-1.0 1.453125 -2.0 2.921875l1.0 0.859375q0.671875 -0.859375 1.921875 -2.921875l1.203125 0.734375q0.265625 0.265625 -0.203125 0.328125q-1.59375 2.125 -3.125 3.984375l2.46875 -0.140625q-0.203125 -0.390625 -0.671875 -1.0625l1.0625 -0.53125q1.0 1.265625 1.53125 2.796875l0 -6.578125l7.296875 0l0 13.359375l-1.328125 0l0 -0.671875l-4.640625 0l0 0.796875l-1.328125 0l0 -6.703125l-1.125 0.65625q-0.203125 -0.53125 -0.40625 -1.0625l-1.59375 0.140625l0 7.375l-1.328125 0l0 -7.25l-2.59375 0.265625q-0.328125 0.59375 -0.453125 -0.0625l-0.203125 -1.265625l1.859375 -0.0625l0.859375 -1.0625q-1.328125 -1.265625 -2.453125 -1.859375l0.734375 -1.125l0.65625 0.390625q0.796875 -1.328125 1.796875 -3.3125l1.265625 0.71875q0.265625 0.265625 -0.203125 0.34375zm1.390625 12.015625q-0.328125 -2.0625 -0.921875 -3.390625l1.25 -0.390625q0.734375 1.390625 1.0625 3.3125l-1.390625 0.46875zm-5.578125 0.390625q0.59375 -2.25 0.734375 -4.171875l1.53125 0.265625q0.265625 0.0625 -0.203125 0.390625q-0.0625 1.53125 -0.671875 4.0625l-1.390625 -0.546875zm8.703125 -10.75l0 4.375l1.71875 0l0 -4.375l-1.71875 0zm2.859375 0l0 4.375l1.78125 0l0 -4.375l-1.78125 0zm0 5.640625l0 4.515625l1.78125 0l0 -4.515625l-1.78125 0zm-2.859375 0l0 4.515625l1.71875 0l0 -4.515625l-1.71875 0zm18.59375 4.71875q-3.125 0 -5.1875 -2.0l0.875 -1.125q1.78125 1.734375 4.3125 1.65625l3.65625 0l0 1.46875l-3.65625 0zm-9.5 1.265625q-0.203125 -3.453125 -0.203125 -5.921875q0 -2.984375 0.734375 -7.09375l1.328125 0.328125q0.734375 0.125 0.0625 0.59375q-0.65625 3.859375 -0.65625 6.171875q0 2.59375 0.265625 5.78125l-1.53125 0.140625zm12.28125 -9.828125q-2.84375 -0.078125 -7.4375 0.390625l0 -1.390625q4.78125 -0.46875 7.4375 -0.40625l0 1.40625zm7.5039062 7.359375q4.984375 -0.0625 6.578125 -1.65625q1.0 -1.0 1.0 -2.453125q0 -1.53125 -1.0625 -2.59375q-0.796875 -0.796875 -2.796875 -0.796875q-1.65625 0 -3.90625 0.796875q-1.734375 0.59375 -3.796875 1.53125l-0.71875 -1.734375l3.71875 -1.0625q3.25 -0.921875 4.90625 -0.921875q2.65625 0 3.921875 1.265625q1.265625 1.25 1.265625 3.375q0 2.265625 -1.203125 3.453125q-2.25 2.265625 -7.5 2.328125l-0.40625 -1.53125zm18.0 -1.328125q-0.59375 1.53125 -1.265625 2.328125q-0.921875 1.140625 -1.859375 1.140625q-1.65625 0 -2.453125 -1.9375q-0.46875 -1.125 -0.46875 -4.84375q0 -2.65625 0.265625 -5.375l1.40625 0.328125q0.796875 0.203125 0.0625 0.65625q-0.265625 2.46875 -0.265625 4.453125q0 2.71875 0.328125 3.859375q0.328125 1.125 1.0 1.125q0.734375 0 1.265625 -1.0625q0.328125 -0.671875 0.65625 -1.59375l1.328125 0.921875zm3.921875 -7.765625q2.984375 3.125 3.65625 7.578125l-1.796875 0.453125q-0.796875 -4.640625 -3.25 -7.234375l1.390625 -0.796875zm19.054688 0.671875q-2.328125 0 -3.65625 0.453125q-1.453125 0.53125 -2.71875 1.796875q-1.265625 1.265625 -1.265625 3.25q0 1.59375 1.0 2.59375q1.328125 1.328125 5.109375 1.46875l-0.53125 1.453125q-3.90625 -0.1875 -5.4375 -1.71875q-1.53125 -1.53125 -1.53125 -3.71875q0 -3.125 2.453125 -4.921875q-3.109375 0.46875 -6.375 0.9375l-0.390625 -1.53125q6.5 -0.46875 13.078125 -1.59375l0.265625 1.53125zm10.621094 1.78125q3.0 1.671875 4.921875 3.59375l-1.0625 1.1875q-1.921875 -1.921875 -4.65625 -3.640625l0.796875 -1.140625zm-2.390625 9.640625l0 -11.6875l-5.96875 0l0 -1.46875l14.28125 0l0 1.46875l-6.78125 0l0 11.6875l-1.53125 0zm25.90625 -3.125l-0.265625 1.453125q-0.265625 1.46875 -1.53125 1.46875l-4.3125 0q-1.203125 0 -1.203125 -1.125l0 -7.3125l4.921875 0l0 -3.71875l-5.25 0l0 -1.265625l6.578125 0l0 7.25l-1.328125 0l0 -1.0l-3.59375 0l0 5.375q0 0.53125 0.46875 0.53125l3.25 0q0.40625 0 0.46875 -0.46875l0.265625 -1.65625l1.53125 0.46875zm-14.21875 -2.0l5.390625 0l0 5.390625l-1.328125 0l0 -0.734375l-2.734375 0l0 0.859375l-1.328125 0l0 -5.515625zm1.328125 1.0625l0 2.53125l2.734375 0l0 -2.53125l-2.734375 0zm3.65625 -3.3125l0 1.265625l-4.71875 0l0 -1.265625l4.71875 0zm-5.90625 -4.515625l7.234375 0l0 1.265625l-7.234375 0l0 -1.265625zm5.90625 2.25l0 1.265625l-4.71875 0l0 -1.265625l4.71875 0zm0 -4.4375l0 1.25l-4.71875 0l0 -1.25l4.71875 0zm21.453125 12.28125q-3.125 0 -5.1875 -2.0l0.875 -1.125q1.78125 1.734375 4.3125 1.65625l3.65625 0l0 1.46875l-3.65625 0zm-9.5 1.265625q-0.203125 -3.453125 -0.203125 -5.921875q0 -2.984375 0.734375 -7.09375l1.328125 0.328125q0.734375 0.125 0.0625 0.59375q-0.65625 3.859375 -0.65625 6.171875q0 2.59375 0.265625 5.78125l-1.53125 0.140625zm12.28125 -9.828125q-2.84375 -0.078125 -7.4375 0.390625l0 -1.390625q4.78125 -0.46875 7.4375 -0.40625l0 1.40625zm14.222656 7.890625l0 1.46875l-7.3125 0q-2.0625 0 -2.859375 -0.796875q-0.796875 -0.796875 -0.796875 -2.125q0 -0.734375 0.265625 -1.734375l1.53125 0.203125q-0.328125 1.0625 -0.328125 1.53125q0 0.59375 0.390625 1.0q0.46875 0.453125 1.859375 0.453125l7.25 0zm-9.96875 -8.296875l0 -1.453125l8.640625 0l0 1.453125l-8.640625 0zm9.890625 -4.375q1.140625 0.59375 2.53125 1.65625l-0.59375 0.921875q-1.46875 -1.0625 -2.53125 -1.65625l0.59375 -0.921875zm-0.921875 1.515625q1.125 0.609375 2.515625 1.671875l-0.59375 0.921875q-1.453125 -1.0625 -2.515625 -1.65625l0.59375 -0.9375zm20.050781 12.421875l-0.265625 1.265625l-7.828125 0q-2.65625 0 -4.25 -1.859375l-2.125 2.125l-1.0 -1.390625l2.453125 -1.53125l0 -4.125l-2.125 0l0 -1.25l3.453125 0l0 5.3125q1.53125 1.453125 3.984375 1.453125l7.703125 0zm-6.4375 -6.5l-2.328125 0l0 1.25l2.328125 0l0 -1.25zm1.328125 2.3125l0 1.0l4.71875 0l0 1.265625l-4.71875 0l0 1.390625l-1.328125 0l0 -1.390625l-4.515625 0l0 -1.265625l4.515625 0l0 -1.0l-1.734375 0l-1.71875 0l0 -5.640625l3.453125 0l0 -1.0625l-4.390625 0l0 -1.265625l4.390625 0l0 -1.453125l1.265625 0q0.53125 0.0625 0.0625 0.390625l0 1.0625l4.375 0l0 1.265625l-4.375 0l0 1.0625l3.578125 0l0 5.640625l-3.578125 0zm2.453125 -4.578125l-2.453125 0l0 1.203125l2.453125 0l0 -1.203125zm0 2.265625l-2.453125 0l0 1.25l2.453125 0l0 -1.25zm-3.78125 -2.265625l-2.328125 0l0 1.203125l2.328125 0l0 -1.203125zm-7.234375 -4.046875q1.390625 0.859375 2.3125 2.25l-1.125 1.140625q-1.0 -1.328125 -2.1875 -2.265625l1.0 -1.125zm21.640625 3.84375q1.796875 -1.859375 2.59375 -4.703125l1.328125 0.265625q0.265625 0.265625 -0.203125 0.328125l-0.328125 0.859375l2.984375 0l0.203125 -0.328125l1.125 0.65625q0.265625 0.265625 -0.203125 0.34375q-0.71875 1.78125 -2.1875 3.640625q1.59375 1.59375 3.921875 2.46875l-0.46875 1.25q-2.25 -0.796875 -4.3125 -2.78125q-1.59375 1.796875 -4.046875 3.125l-0.671875 -1.140625q2.265625 -1.0625 3.921875 -2.921875q-0.796875 -0.984375 -1.328125 -1.984375q-0.671875 1.0 -1.53125 1.921875l-0.796875 -1.0zm-4.1875 5.453125q-0.125 1.921875 -0.796875 3.78125l-1.125 -0.59375q0.671875 -1.734375 0.796875 -3.78125l1.265625 0.1875q0.203125 0.203125 -0.140625 0.40625zm4.0625 -6.90625q-1.0625 1.59375 -3.265625 3.984375l2.65625 -0.265625l-0.59375 -0.9375l0.9375 -0.59375q0.984375 1.203125 1.25 2.125l-0.984375 0.734375l-0.203125 -0.40625l-1.65625 0.265625l0 7.1875l-1.140625 0l0 -7.046875l-2.578125 0.328125q-0.078125 0.46875 -0.34375 0.203125l-0.265625 -1.53125l1.46875 0l1.125 -1.390625q-1.125 -1.203125 -2.515625 -2.0l0.71875 -0.984375l0.796875 0.53125q0.9375 -1.265625 1.859375 -3.265625l1.140625 0.734375q0.1875 0.328125 -0.203125 0.265625q-0.671875 1.328125 -2.0 2.921875l1.0 0.796875q1.328125 -1.71875 1.859375 -2.71875l1.125 0.796875q0.203125 0.328125 -0.1875 0.265625zm1.78125 5.90625l5.84375 0l0 5.84375l-1.125 0l0 -0.59375l-3.578125 0l0 0.859375l-1.140625 0l0 -6.109375zm1.140625 4.1875l3.578125 0l0 -3.125l-3.578125 0l0 3.125zm-3.0625 -4.046875q0.59375 1.328125 0.796875 3.375l-1.265625 0.265625q-0.125 -1.78125 -0.65625 -3.375l1.125 -0.265625zm3.25 -6.78125q0.46875 1.390625 1.46875 2.328125q1.0 -1.328125 1.453125 -2.328125l-2.921875 0zm12.09375 3.65625q0.796875 -0.265625 1.53125 -0.265625q0.859375 0 1.390625 0.53125q0.390625 0.390625 0.46875 1.453125q1.984375 -0.71875 4.515625 -1.515625l0.453125 1.59375q-2.578125 0.390625 -4.84375 1.25l0 2.921875l-1.328125 0l0 -2.390625q-1.984375 0.9375 -2.59375 1.53125q-0.71875 0.734375 -0.71875 1.46875q0 0.390625 0.390625 0.796875q0.46875 0.46875 1.796875 0.46875l5.578125 0l0 1.25l-5.640625 0q-2.125 0 -3.0 -0.859375q-0.65625 -0.671875 -0.65625 -1.65625q0 -1.0625 0.859375 -1.9375q1.328125 -1.328125 3.921875 -2.390625q-0.0625 -0.796875 -0.328125 -1.0625q-0.265625 -0.265625 -1.140625 -0.265625q-1.328125 0 -4.046875 2.390625l-1.125 -1.125q3.125 -1.921875 4.25 -4.25q-1.859375 0.140625 -3.71875 0.265625l-0.265625 -1.328125q2.390625 -0.0625 4.515625 -0.203125q0.328125 -0.796875 0.796875 -2.65625l1.265625 0.34375q0.65625 0.265625 0 0.53125q-0.265625 0.859375 -0.609375 1.71875q2.390625 -0.203125 4.59375 -0.53125l0.1875 1.390625q-2.578125 0.203125 -5.171875 0.40625q-0.671875 1.328125 -1.328125 2.125z" fill-rule="nonzero"/><path fill="#000000" fill-opacity="0.0" d="m550.19196 227.39462l20.818909 0l0 33.19684l-20.818909 0z" fill-rule="evenodd"/><path fill="#ef6b48" d="m556.1893 238.06082l0 -4.359375l7.59375 0l0 19.984375l-4.875 0l0 -15.625l-2.71875 0z" fill-rule="nonzero"/><path fill="#000000" fill-opacity="0.0" d="m563.48834 221.66847l114.96063 0l0 41.039383l-114.96063 0z" fill-rule="evenodd"/><path fill="#ffffff" d="m601.9906 238.7586l19.65625 0l0 3.515625l-3.703125 0l0 14.015625l-3.65625 0l0 -2.703125l-10.3125 0.9375q-0.234375 1.78125 -1.9375 0.078125l-0.546875 -3.90625l3.671875 -0.140625l0 -8.28125l-3.171875 0l0 -3.515625zm18.5 18.328125l-0.640625 -3.921875l2.8125 0q0 0.3125 -0.3125 0.3125l0 -15.171875l-4.1875 0l-5.453125 0l0 -11.984375l13.703125 0l0 27.8125q0 2.953125 -2.828125 2.953125l-3.09375 0zm-11.671875 -6.734375l5.46875 -0.3125l0 -0.359375l-5.46875 0l0 0.671875zm1.984375 -12.046875l-9.78125 0l0 18.78125l-4.0625 0l0 -30.765625l13.84375 0l0 11.984375zm11.546875 -3.515625l0 -0.71875l-5.59375 0l0 0.71875l5.59375 0zm-5.59375 -4.234375l5.59375 0l0 -0.71875l-5.59375 0l0 0.71875zm-15.734375 0l5.734375 0l0 -0.71875l-5.734375 0l0 0.71875zm0 4.234375l5.734375 0l0 -0.71875l-5.734375 0l0 0.71875zm7.796875 11.375l5.46875 0l0 -0.1875l-5.46875 0l0 0.1875zm0 -3.703125l5.46875 0l0 -0.1875l-5.46875 0l0 0.1875zm21.34375 -1.15625q0 -1.765625 1.671875 -3.296875q8.53125 -8.0 11.40625 -12.671875l3.046875 2.359375q2.546875 2.8125 -0.8125 2.34375q-1.78125 2.59375 -10.28125 10.578125q-0.3125 0.3125 -0.3125 0.421875q0 0.453125 0.25 0.625q7.453125 5.875 12.4375 11.578125l-3.390625 3.375q-5.078125 -5.953125 -11.78125 -11.734375q-2.234375 -1.921875 -2.234375 -3.578125z" fill-rule="nonzero"/><path fill="#000000" fill-opacity="0.0" d="m446.77133 825.3333l300.40475 0l0 22.255249l-300.40475 0z" fill-rule="evenodd"/><path fill="#ffffff" d="m460.52133 833.89465l-0.90625 0q-0.109375 4.390625 -6.734375 5.703125l-0.953125 -3.0q4.328125 -0.96875 4.40625 -2.703125l-3.359375 0l0 14.484375l-3.1875 0l0 -17.546875l5.3125 0l-0.734375 -1.625l-6.03125 0l0 -3.0625l10.40625 0l0 -2.703125l2.875 0q2.234375 0.25 0.625 1.453125l0 1.25l10.296875 0l0 3.0625l-5.5625 0l-1.109375 1.625l5.53125 0l0 15.328125q0 2.0 -1.90625 2.0l-3.15625 0l-0.625 -3.0625l2.640625 0q0 0.125 -0.125 0.125l0 -11.328125l-4.53125 0l0 1.015625q0 0.296875 0.1875 0.296875l1.875 0q0 0.0625 0.1875 -1.40625l2.984375 0.9375q-0.28125 3.53125 -2.234375 3.53125l-3.859375 0q-2.3125 0 -2.3125 -2.3125l0 -2.0625zm2.453125 -4.6875l-4.984375 0l0.8125 1.625l3.109375 0l1.0625 -1.625zm-8.078125 9.21875l11.296875 0l0 6.921875l-8.4375 0l0 0.9375l-2.859375 0l0 -7.859375zm2.859375 2.765625l0 1.40625l5.578125 0l0 -1.40625l-5.578125 0zm33.40625 -6.59375l-8.109375 0.03125l0 0.734375l-3.171875 0l0 -10.78125l14.421875 0l0 10.5625l-3.171875 0l0.03125 -0.546875zm-8.109375 -3.046875l8.078125 0l0 -3.90625l-8.078125 0l0 3.90625zm12.140625 14.84375l-3.90625 0l0 1.875l-3.171875 0l0 -12.125l10.25 0l0 11.8125l-3.171875 0l0 -1.5625zm-3.90625 -7.1875l0 4.109375l3.90625 0l0 -4.109375l-3.90625 0zm-11.875 0l0 4.109375l3.90625 0l0 -4.109375l-3.90625 0zm3.90625 7.1875l-3.90625 0l0 1.875l-3.171875 0l0 -12.125l10.25 0l0 11.8125l-3.171875 0l0 -1.5625zm32.18753 -15.1875q-1.765625 10.328125 -4.3906555 12.953125q-1.515625 1.5 -3.203125 1.5q-1.875 0 -2.984375 -1.09375q-2.65625 -2.671875 -2.65625 -6.625q0 -4.828125 3.390625 -8.203125q3.6875 -3.703125 9.0312805 -3.703125q4.8125 0 7.5625 2.765625q3.078125 3.0625 3.078125 7.265625q0 4.484375 -2.859375 7.359375q-1.84375 1.828125 -5.9375 3.703125l-3.09375 -3.09375q4.390625 -1.375 6.375 -3.375q1.8125 -1.796875 1.8125 -4.390625q0 -3.109375 -2.015625 -5.125q-2.015625 -2.015625 -4.359375 -1.921875l-0.015625 -0.015625q2.328125 0.96875 0.265625 2.0zm-3.5312805 -1.625q-1.796875 0.421875 -3.671875 2.28125q-2.546875 2.546875 -2.546875 6.28125q0 2.171875 1.40625 3.5625q0.140625 0.15625 0.546875 0.15625q0.40625 0 0.96875 -0.578125q2.265625 -2.25 3.296875 -11.703125zm22.734406 9.125l2.359375 -0.828125l0.484375 1.203125q1.71875 -1.125 2.34375 -2.265625l-3.78125 0l0 -3.078125l16.8125 0l0 3.078125l-9.6875 0q-0.28125 0.578125 -0.5 0.484375l9.609375 -0.21875l-0.671875 8.1875q-0.25 2.890625 -2.625 2.890625l-2.96875 0l-0.484375 -3.0625l2.609375 0q0.265625 0 0.296875 -0.25l0.453125 -4.703125l-0.109375 0q-1.859375 7.015625 -11.3125 8.625l-0.953125 -3.03125q7.671875 -1.421875 9.015625 -5.59375l-0.671875 0q-1.84375 4.421875 -7.6875 5.5l-0.984375 -2.671875q4.5 -1.140625 5.34375 -2.828125l-0.453125 0q-2.09375 1.890625 -3.890625 2.796875l-0.84375 -1.609375l-5.8125 2.296875q-0.234375 1.53125 -1.484375 0.21875l-1.09375 -2.9375l3.515625 -1.0l0 -6.953125l-3.234375 0l0 -3.0625l3.234375 0l0 -5.9375l2.546875 0q2.234375 0.296875 0.625 1.453125l0 4.484375l3.125 0l0 3.0625l-3.125 0l0 5.75zm3.484375 -5.125l0 -9.515625l12.03125 0l0 9.515625l-12.03125 0zm3.171875 -5.984375l5.671875 0l0 -0.78125l-5.671875 0l0 0.78125zm0 3.234375l5.671875 0l0 -0.46875l-5.671875 0l0 0.46875zm28.578125 -5.125q4.359375 -0.703125 7.015625 -1.90625l1.421875 2.421875q1.015625 2.34375 -1.1875 1.25q-3.703125 0.796875 -6.671875 1.0625l0 3.328125l9.171875 0l0 3.078125l-3.4375 0l0 13.125l-3.171875 0l0 -13.125l-2.5625 0l0 2.6875q0 7.15625 -5.65625 10.9375l-2.28125 -2.75q4.765625 -2.890625 4.765625 -8.40625l0 -12.65625l2.59375 0.953125zm-3.484375 3.765625l0 10.15625l-3.171875 0l0 -1.046875l-3.59375 0l0 2.375q0 4.109375 -2.0625 7.46875l-2.765625 -2.15625q1.65625 -2.359375 1.65625 -5.421875l0 -11.375l9.9375 0zm-3.171875 6.046875l0 -2.96875l-3.59375 0l0 2.96875l3.59375 0zm-7.59375 -7.765625l0 -3.0625l11.5 0l0 3.0625l-11.5 0zm47.984375 15.375q-6.234375 -4.5625 -11.15625 -8.9375q-0.46875 -0.390625 -0.890625 -0.390625q-0.40625 0 -0.65625 0.25q-4.8125 4.3125 -6.96875 6.078125l-2.9375 -2.921875q3.375 -2.0 7.90625 -6.234375q1.1875 -1.078125 2.453125 -1.078125q1.5625 0 2.84375 1.0625q7.859375 6.515625 12.65625 8.90625l-3.25 3.265625zm15.0625 -10.578125q-0.21875 0.421875 -0.4375 0.34375q1.3125 -0.09375 4.0 0.40625q0.84375 -0.703125 0.875 -0.75l-4.4375 0zm0.296875 2.578125q-0.3125 -0.078125 -2.34375 -0.265625q-0.0625 0.09375 -1.015625 0.90625l-2.59375 -1.21875q2.40625 -2.40625 2.5625 -2.234375l-3.515625 0.234375l0 -2.765625l5.109375 0q0.203125 -0.21875 0.984375 -1.484375l2.234375 0.25q1.28125 0.84375 0 1.375q-0.15625 0.3125 -0.4375 0.15625l9.234375 -0.296875l0 2.765625l-2.890625 0q-0.4375 1.03125 -0.890625 1.4375q2.140625 0.5 6.1875 1.890625l-1.828125 2.515625q-4.71875 -1.90625 -6.8125 -2.359375q-2.65625 2.234375 -11.21875 2.5625l-1.34375 -3.03125q6.59375 0.359375 8.578125 -0.4375zm3.234375 3.09375l10.3125 0l0 2.75l-8.609375 0q3.0625 2.15625 9.40625 2.953125l-1.078125 3.515625q-6.96875 -1.71875 -10.03125 -4.203125l0 5.234375l-3.171875 0l0 -5.140625q-2.5 2.265625 -9.6875 4.65625l-1.09375 -3.375q6.390625 -1.34375 9.171875 -3.640625l-8.59375 0l0 -2.75l10.203125 0l0 -1.453125l2.5625 0q2.265625 0.25 0.609375 1.453125l0 0zm0 -12.1875l10.109375 0l0 5.578125l-3.1875 0l0 -2.8125l-17.015625 0l0 2.8125l-3.171875 0l0 -5.578125l10.09375 0l0 -2.28125l2.5625 0q2.265625 0.25 0.609375 1.453125l0 0.828125zm31.078125 16.421875q-3.796875 -4.125 -5.84375 -5.953125q-1.15625 3.640625 -6.234375 6.96875l-2.09375 -3.0q6.0625 -3.578125 6.0625 -9.59375l-5.359375 0l0 16.765625l-3.5 0l0 -19.84375l8.953125 0l0 -3.640625l2.90625 0q2.390625 0.5 0.59375 1.671875l0 1.96875l9.359375 0l0 17.0q0 2.640625 -2.515625 2.640625l-2.953125 0l-0.625 -3.390625l2.734375 0q0 0.125 -0.125 0.125l0 -13.296875l-5.984375 0q0 1.0625 -0.25 2.328125q3.8125 2.53125 7.0625 6.03125l-2.1875 3.21875zm19.484375 -1.390625q-0.546875 0.328125 -2.0625 0.328125q-1.984375 0 -3.09375 -1.09375q-1.40625 -1.421875 -1.40625 -3.203125q0 -1.875 1.40625 -3.296875q1.421875 -1.40625 3.515625 -1.40625q1.328125 0 1.84375 0.140625l0 -1.0l-11.359375 0.734375l-0.625 -3.28125l11.984375 -0.53125l0 -4.921875l2.46875 0q2.515625 0.484375 0.703125 1.6875l0 3.0625l8.859375 -0.625l0 3.296875l-8.859375 0.40625l0 3.390625q0.421875 1.875 0.421875 4.21875q-0.109375 5.625 -6.515625 9.609375l-2.953125 -2.15625q5.671875 -3.28125 5.671875 -5.359375zm-1.4375 -5.8125q-0.921875 0 -1.484375 0.578125q-0.46875 0.453125 -0.46875 1.265625q0 0.71875 0.359375 1.078125q0.359375 0.359375 1.28125 0.359375q0.921875 0 1.484375 -0.578125q0.46875 -0.453125 0.46875 -1.171875q0 -0.71875 -0.46875 -1.171875q-0.34375 -0.359375 -1.171875 -0.359375zm29.92749 9.15625q0.953125 -0.125 1.96875 -1.140625q1.09375 -1.078125 1.09375 -2.9375q0 -2.0625 -1.203125 -3.25q-1.1875 -1.203125 -3.875 -1.203125q-3.265625 0 -5.0 1.25q-1.703125 1.21875 -4.84375 4.796875l-2.625 -2.296875q7.890625 -7.890625 10.921875 -11.828125q-2.140625 0.265625 -6.03125 0.609375l-1.078125 -3.515625q5.8125 0 9.640625 -0.5l1.21875 -0.546875l1.390625 1.40625q1.96875 1.765625 -0.609375 2.25q-3.0 3.390625 -4.9375 5.53125q0.53125 -0.125 2.046875 -0.125q4.1875 0 6.234375 2.03125q2.015625 2.046875 2.015625 5.171875q0 3.25 -1.8125 5.078125q-2.671875 2.65625 -6.75 2.65625q-3.859375 0 -5.703125 -1.8125q-1.5 -1.53125 -1.5 -3.625q0 -1.46875 1.09375 -2.578125q1.1875 -1.203125 2.78125 -1.203125q2.09375 0 3.515625 1.40625q1.578125 1.59375 2.046875 4.375zm-3.0625 0.46875q-0.3125 -2.015625 -1.125 -2.8125q-0.546875 -0.5625 -1.0625 -0.5625q-0.609375 0 -0.859375 0.25q-0.359375 0.359375 -0.359375 0.765625q0 0.71875 0.671875 1.375q0.875 0.890625 2.3125 0.890625q0.421875 0 0.421875 0.09375z" fill-rule="nonzero"/><path fill="#000000" fill-opacity="0.0" d="m517.14233 292.3179l275.81116 0l0 66.55707l-275.81116 0z" fill-rule="evenodd"/><path fill="#ffffff" d="m533.2979 310.4942q4.796875 1.359375 6.125 1.015625q1.203125 -0.28125 1.75 -3.328125l-18.875 0l0 -3.6875l19.421875 0l0.140625 -1.6875l-9.96875 0l-0.546875 1.375l-3.71875 -0.9375q1.9375 -6.484375 2.765625 -12.1875l3.015625 0.3125q2.671875 0.34375 0.625 1.796875l-0.109375 0.453125l12.5625 0l0 3.6875l-13.265625 0q-0.25 1.0 -0.4375 1.8125l13.375 0l-0.375 5.375l6.203125 0l0 3.6875l-6.734375 0q-1.234375 6.921875 -4.6875 7.484375q-3.046875 0.53125 -6.703125 -0.78125l-0.5625 -4.390625zm13.5 -15.5625l0 -3.75l-19.3125 0l0 3.75l-4.1875 0l0 -7.4375l27.6875 0l0 7.4375l-4.1875 0zm7.875 12.1875l29.3125 0l0 3.6875l-7.53125 0q0.515625 0.359375 7.34375 2.03125l-1.875 3.578125q-6.765625 -1.796875 -10.734375 -4.84375l0.828125 -0.765625l-5.359375 0l0.453125 0.4375q1.296875 2.296875 -0.9375 1.734375q-3.59375 2.03125 -9.375 3.578125l-1.484375 -3.90625q6.46875 -1.234375 7.203125 -1.84375l-7.84375 0l0 -3.6875zm1.0 -18.75l11.625 0l0 -2.5l3.25 0q2.734375 0.78125 0.5625 1.71875l0 0.78125l11.625 0l0 3.6875l-11.625 0l0 0.3125l7.625 0l0 14.4375l-18.8125 0l0 -14.4375l7.375 0l0 -0.3125l-11.625 0l0 -3.6875zm19.25 14.6875l-11.1875 0l0 0.4375l11.1875 0l0 -0.4375zm0 -3.3125l0 -0.3125l-11.1875 0l0 0.3125l11.1875 0zm0 -3.625l0 -0.4375l-11.1875 0l0 0.4375l11.1875 0zm21.6875 1.5l0 6.6875l-6.6875 0l0 -6.6875l6.6875 0zm26.3125 13.0l0 -1.6875l-11.3125 0l0 1.6875l11.3125 0zm-8.140625 -14.875l4.953125 0l1.171875 -3.3125l-7.375 0l1.25 3.3125zm17.203125 0l0 3.6875l-29.6875 0l0 -3.6875l8.53125 0l-1.4375 -3.3125l-4.21875 0l0 -3.6875l10.125 0l0 -3.0l3.078125 0q2.703125 0.34375 0.734375 1.75l0 1.25l10.25 0l0 3.6875l-4.234375 0l-1.515625 3.3125l8.375 0zm-9.0625 9.5l0 -1.3125l-11.3125 0l0 1.3125l11.3125 0zm3.8125 10.0625l-3.8125 0l0 -1.0l-11.3125 0l0 1.625l-3.8125 0l0 -15.6875l18.9375 0l0 15.0625zm11.4375 -17.1875l22.9375 0l0 10.5625l-3.8125 0l0 -1.125l-15.28125 0q0.234375 4.765625 -4.71875 8.984375l-3.0 -2.984375q3.875 -2.625 3.875 -6.40625l0 -9.03125zm25.8125 -9.0l0 3.6875l-12.875 0l0 1.0625l10.375 0l0 3.6875l-24.3125 0l0 -3.6875l10.125 0l0 -1.0625l-12.5 0l0 -3.6875l12.5 0l0 -3.25l3.078125 0q2.703125 0.34375 0.734375 1.75l0 1.5l12.875 0zm-16.4375 12.6875l-5.5625 0l0 2.0625l5.5625 0l0 -2.0625zm9.75 0l-5.9375 0l0 2.0625l5.9375 0l0 -2.0625zm19.3125 -4.1875l0 6.6875l-6.6875 0l0 -6.6875l6.6875 0zm17.4375 3.0625l-12.5 0l0 -4.0625l26.9375 0l0 4.0625l-10.25 0l0 0.96875q0 8.171875 -6.234375 13.84375l-3.625 -2.703125q5.671875 -4.453125 5.671875 -11.140625l0 -0.96875zm-8.0 -7.625l0 -4.0625l17.9375 0l0 4.0625l-17.9375 0zm53.5625 10.296875l-11.59375 1.25l2.359375 10.046875l-4.046875 0.90625l-2.390625 -10.4375l-12.796875 1.5l-0.5625 -3.921875l12.453125 -1.375l-0.96875 -4.578125l-8.515625 1.0l-0.75 -3.921875l8.234375 -0.875l-1.234375 -5.6875l3.3125 -0.640625q2.65625 -0.28125 1.171875 1.6875l0.8125 4.109375l9.140625 -1.25l0.75 3.921875l-8.859375 1.125l0.96875 4.59375l11.765625 -1.375l0.75 3.921875zm18.515625 -2.328125q4.890625 3.765625 10.65625 9.671875l-3.5 2.984375q-5.640625 -5.921875 -10.0 -9.265625q-4.53125 4.859375 -11.265625 9.3125l-3.390625 -3.03125q13.8125 -8.984375 17.046875 -16.453125l-13.171875 0.84375l-0.53125 -4.3125l15.140625 -0.65625l1.796875 -0.453125l2.265625 2.265625q1.75 1.765625 -0.546875 2.1875q-2.25 3.890625 -4.5 6.90625zm18.734375 -4.0q5.703125 1.640625 12.609375 4.953125l-2.109375 4.046875q-7.140625 -3.640625 -10.5 -4.515625l0 12.796875l-4.1875 0l0 -26.3125l3.1875 0q3.203125 0.265625 1.0 1.984375l0 7.046875z" fill-rule="nonzero"/><path fill="#ffffff" d="m605.7823 367.18494q-10.46875 -5.4375 -12.375 -13.625q-2.0625 9.59375 -12.9375 14.34375l-2.109375 -4.046875q11.15625 -4.625 12.046875 -17.75l1.578125 0.125l0 -2.640625l-6.5 0l0 -3.6875l10.6875 0l0 5.15625q0 11.609375 12.0 17.859375l-2.390625 4.265625zm5.953125 -3.765625q10.15625 -3.46875 10.71875 -14.078125l-8.96875 0l0 -4.0625l9.125 0l0 -6.375l3.46875 0q2.875 0.578125 0.71875 2.0l0 4.375l11.015625 0q-0.265625 10.6875 -0.515625 15.6875q-0.28125 5.625 -4.40625 5.625l-5.546875 0l-0.734375 -4.0625l5.03125 0q1.390625 0 1.46875 -1.390625q0.25 -3.609375 0.484375 -11.796875l-6.921875 0q0 13.296875 -13.0 18.296875l-1.9375 -4.21875zm57.3125 -17.703125q-5.046875 0 -7.4375 0.84375q-2.609375 0.9375 -4.875 3.21875q-2.1875 2.171875 -2.1875 5.65625q0 2.734375 1.6875 4.40625q2.3125 2.328125 10.078125 2.59375l-1.46875 4.0625q-8.109375 -0.421875 -11.171875 -3.46875q-3.0625 -3.078125 -3.0625 -7.46875q0 -6.203125 2.734375 -8.203125q-3.234375 0.484375 -9.9375 1.4375l-1.09375 -4.203125q13.0 -0.9375 25.984375 -3.15625l0.75 4.28125zm-3.421875 9.984375q-3.21875 -2.34375 -5.875 -3.828125l2.125 -2.546875q2.375 1.4375 5.859375 3.859375l-2.109375 2.515625zm2.5 -3.0q-3.46875 -2.46875 -5.859375 -3.828125l2.09375 -2.53125q2.265625 1.296875 5.859375 3.84375l-2.09375 2.515625zm15.21875 3.453125q1.40625 1.21875 4.15625 5.109375l-2.953125 2.953125q-2.515625 -3.703125 -3.25 -4.296875q-2.40625 3.828125 -7.28125 7.84375l-2.546875 -3.625q4.3125 -2.90625 6.859375 -7.234375q-1.75 -1.84375 -5.625 -4.71875l2.296875 -2.890625q3.671875 2.5 5.359375 4.09375q1.046875 -1.828125 2.234375 -6.140625l3.234375 1.609375q2.359375 1.34375 -0.078125 1.890625q-1.140625 2.953125 -2.40625 5.40625zm6.0625 4.09375q-1.21875 -3.375 -3.953125 -6.96875l3.03125 -2.078125q3.359375 3.65625 4.4375 7.1875l-3.515625 1.859375zm4.078125 -21.34375l3.078125 0q2.703125 0.34375 0.734375 1.75l0 5.375l3.5 0l0 3.6875l-3.5 0l0 15.34375q0 2.65625 -2.65625 2.65625l-4.28125 0l-0.78125 -3.6875l4.0625 0q0 0.15625 -0.15625 0.15625l0 -14.46875l-7.5 0l0 -1.875l-14.125 0l0 -3.6875l6.375 0l0 -5.375l3.078125 0q2.703125 0.34375 0.734375 1.75l0 3.625l5.75 0l0 1.875l5.6875 0l0 -7.125zm34.359375 20.890625q-0.171875 2.0 -0.8125 4.546875q-0.625 2.625 -3.265625 2.625l-5.875 0q-2.90625 0 -2.90625 -2.78125l0 -13.90625l3.03125 0q3.09375 0 0.78125 1.734375l0 10.921875q0 0.34375 0.21875 0.34375l3.625 0q0.4375 0 0.515625 -0.203125q0.34375 -0.921875 0.65625 -4.203125l4.03125 0.921875zm-22.484375 -17.765625l11.125 0l0 -3.625l3.40625 0q3.09375 0 0.78125 1.734375l0 1.890625l11.0 0l0 3.6875l-22.5 0l0 10.21875q0 6.453125 -3.296875 11.390625l-2.953125 -2.78125q2.4375 -3.921875 2.4375 -8.609375l0 -13.90625zm8.875 11.40625q1.640625 0.8125 0.515625 1.953125q-0.96875 4.859375 -2.34375 8.5l-3.890625 -1.296875q1.859375 -4.5625 2.421875 -9.8125l3.296875 0.65625zm13.21875 -0.484375q2.71875 2.71875 5.40625 7.9375l-3.640625 2.546875q-1.90625 -4.546875 -4.75 -8.25l2.984375 -2.234375zm-8.34375 -7.5q2.859375 2.25 5.703125 5.390625l-3.28125 3.109375q-1.890625 -2.828125 -5.234375 -5.890625l2.8125 -2.609375z" fill-rule="nonzero"/><path fill="#000000" fill-opacity="0.0" d="m512.85565 146.28903l275.81104 0l0 39.044296l-275.81104 0z" fill-rule="evenodd"/><path fill="#ffffff" d="m524.1994 183.28445q-3.109375 0 -6.1875 -0.828125q-3.0625 -0.84375 -5.203125 -2.375l2.6875 -5.296875q1.703125 1.25 3.96875 1.96875q2.265625 0.71875 4.5625 0.71875q2.609375 0 4.09375 -1.015625q1.5 -1.03125 1.5 -2.8125q0 -1.703125 -1.328125 -2.6875q-1.3125 -0.984375 -4.265625 -0.984375l-3.15625 0l0 -4.5625l8.328125 -9.421875l0.765625 2.46875l-15.65625 0l0 -5.546875l20.90625 0l0 4.484375l-8.28125 9.421875l-3.5 -2.0l2.0 0q5.515625 0 8.328125 2.46875q2.8125 2.46875 2.8125 6.359375q0 2.515625 -1.328125 4.71875q-1.3125 2.1875 -4.046875 3.5625q-2.734375 1.359375 -7.0 1.359375z" fill-rule="nonzero"/><path fill="#ffffff" d="m552.01434 176.03445q13.25 -0.1875 17.0 -3.9375q2.25 -2.21875 2.25 -5.53125q0 -3.46875 -2.40625 -5.875q-1.734375 -1.75 -6.375 -1.75q-4.015625 0 -9.5625 1.953125q-4.28125 1.484375 -10.21875 4.171875l-2.578125 -6.0625l10.28125 -2.953125q8.28125 -2.359375 12.578125 -2.359375q7.015625 0 10.453125 3.421875q3.40625 3.421875 3.40625 9.125q0 6.015625 -3.25 9.28125q-5.90625 5.921875 -20.125 6.09375l-1.453125 -5.578125zm51.172363 -9.46875q6.53125 5.0 14.21875 12.890625l-4.671875 3.96875q-7.53125 -7.875 -13.34375 -12.34375q-6.03125 6.484375 -15.0 12.421875l-4.515625 -4.046875q18.390625 -11.984375 22.71875 -21.921875l-17.546875 1.125l-0.71875 -5.75l20.1875 -0.890625l2.390625 -0.59375l3.015625 3.015625q2.34375 2.359375 -0.71875 2.921875q-3.0 5.1875 -6.015625 9.203125zm31.89685 -0.453125l-16.65625 0l0 -5.421875l35.90625 0l0 5.421875l-13.671875 0l0 1.28125q0 10.890625 -8.328125 18.46875l-4.8125 -3.625q7.5625 -5.9375 7.5625 -14.84375l0 -1.28125zm-10.65625 -10.171875l0 -5.421875l23.90625 0l0 5.421875l-23.90625 0zm61.011597 6.171875q-1.140625 10.6875 -6.203125 15.734375q-4.96875 4.96875 -13.625 8.09375l-3.203125 -4.6875q8.578125 -2.796875 12.75 -6.984375q4.4375 -4.421875 5.140625 -16.390625l4.59375 1.53125q3.390625 1.125 0.546875 2.703125zm-15.421875 6.625q-2.328125 -5.25 -4.828125 -8.984375l4.65625 -2.46875q3.03125 3.828125 5.25 9.03125l-5.078125 2.421875zm-8.484375 2.5625q-2.34375 -5.484375 -5.046875 -9.390625l4.90625 -2.453125q2.828125 3.84375 5.0 9.171875l-4.859375 2.671875zm57.74756 -18.9375q0.953125 0 1.53125 -0.578125q0.578125 -0.578125 0.578125 -1.546875q0 -0.96875 -0.578125 -1.5625q-0.5625 -0.5625 -1.53125 -0.5625q-0.984375 0 -1.546875 0.5625q-0.578125 0.59375 -0.578125 1.5625q0 0.96875 0.578125 1.546875q0.578125 0.578125 1.546875 0.578125zm0 3.40625q-2.359375 0 -3.953125 -1.578125q-1.59375 -1.59375 -1.59375 -3.953125q0 -2.359375 1.578125 -3.953125q1.609375 -1.59375 3.96875 -1.59375q2.34375 0 3.953125 1.59375q1.578125 1.59375 1.578125 3.953125q0 2.359375 -1.59375 3.953125q-1.59375 1.578125 -3.9375 1.578125zm-30.703125 2.171875l0 -5.421875l25.8125 0l4.9375 3.609375q-0.875 21.265625 -24.03125 27.765625l-4.25 -5.203125q21.5625 -5.0 22.46875 -20.75l-24.9375 0z" fill-rule="nonzero"/><path fill="#000000" fill-opacity="0.0" d="m428.66666 834.2591l-20.163452 -48.92578" fill-rule="evenodd"/><path stroke="#ffffff" stroke-width="3.0" stroke-linejoin="round" stroke-linecap="butt" d="m423.20264 821.0009l-14.699432 -35.667603" fill-rule="evenodd"/><path fill="#ffffff" stroke="#ffffff" stroke-width="3.0" stroke-linecap="butt" d="m428.09512 832.87225c-3.2781982 1.3510132 -7.0309143 -0.21124268 -8.3819275 -3.489441c-1.3510132 -3.2781982 0.2112732 -7.030884 3.489441 -8.381897c3.2781982 -1.3510132 7.0309143 0.21124268 8.3819275 3.489441c1.3510132 3.2781982 -0.2112732 7.030884 -3.489441 8.381897z" fill-rule="nonzero"/><path fill="#000000" fill-opacity="0.0" d="m109.36643 481.5208l20.818901 0l0 33.19684l-20.818901 0z" fill-rule="evenodd"/><path fill="#ef6b48" d="m113.02282 504.062q0.9375 -0.734375 0.859375 -0.6875q2.671875 -2.21875 4.21875 -3.640625q1.546875 -1.421875 2.609375 -2.984375q1.078125 -1.5625 1.078125 -3.03125q0 -1.125 -0.53125 -1.75q-0.515625 -0.640625 -1.546875 -0.640625q-1.046875 0 -1.640625 0.78125q-0.578125 0.78125 -0.578125 2.203125l-4.515625 0q0.046875 -2.328125 0.984375 -3.875q0.953125 -1.5625 2.5 -2.296875q1.546875 -0.75 3.4375 -0.75q3.265625 0 4.921875 1.671875q1.65625 1.671875 1.65625 4.34375q0 2.9375 -2.0 5.453125q-2.0 2.5 -5.09375 4.875l7.390625 0l0 3.796875l-13.75 0l0 -3.46875z" fill-rule="nonzero"/><path fill="#000000" fill-opacity="0.0" d="m136.34729 475.79468l191.90552 0l0 41.039368l-191.90552 0z" fill-rule="evenodd"/><path fill="#ffffff" d="m182.03442 492.83792l-1.109375 0q-0.140625 5.5625 -8.59375 7.25l-1.1875 -3.84375q5.484375 -1.234375 5.578125 -3.40625l-4.25 0l0 18.375l-4.0625 0l0 -22.296875l6.765625 0l-0.953125 -2.03125l-7.65625 0l0 -3.921875l13.21875 0l0 -3.4375l3.671875 0q2.859375 0.34375 0.78125 1.859375l0 1.578125l13.09375 0l0 3.921875l-7.078125 0l-1.40625 2.03125l7.03125 0l0 19.484375q0 2.546875 -2.421875 2.546875l-4.0 0l-0.828125 -3.921875l3.375 0q0.015625 0.1875 -0.171875 0.1875l0 -14.375l-5.734375 0l0 1.28125q0 0.34375 0.21875 0.34375l2.375 0q0 0.078125 0.234375 -1.796875l3.828125 1.21875q-0.359375 4.5 -2.875 4.5l-4.890625 0q-2.953125 0 -2.953125 -2.953125l0 -2.59375zm3.109375 -5.953125l-6.28125 0l1.015625 2.03125l3.9375 0l1.328125 -2.03125zm-10.25 11.6875l14.375 0l0 8.8125l-10.71875 0l0 1.1875l-3.65625 0l0 -10.0zm3.65625 3.515625l0 1.765625l7.0625 0l0 -1.765625l-7.0625 0zm42.421875 -8.375l-10.28125 0.046875l0 0.921875l-4.046875 0l0 -13.703125l18.328125 0l0 13.4375l-4.046875 0l0.046875 -0.703125zm-10.28125 -3.875l10.234375 0l0 -4.9375l-10.234375 0l0 4.9375zm15.390625 18.859375l-4.9375 0l0 2.390625l-4.046875 0l0 -15.4375l13.03125 0l0 15.03125l-4.046875 0l0 -1.984375zm-4.9375 -9.125l0 5.21875l4.9375 0l0 -5.21875l-4.9375 0zm-15.078125 0l0 5.21875l4.9375 0l0 -5.21875l-4.9375 0zm4.9375 9.125l-4.9375 0l0 2.390625l-4.046875 0l0 -15.4375l13.03125 0l0 15.03125l-4.046875 0l0 -1.984375zm48.125 -18.328125l5.65625 0l0 3.515625l-5.546875 0l0 1.640625l4.5 0l0 3.515625l-4.5 0l0 1.78125l4.5 0l0 3.515625l-4.5 0l0 1.90625l6.609375 0l0 3.515625l-13.359375 0l0 1.328125l-3.65625 0l0.109375 -13.59375q0.03125 0.15625 -2.375 1.96875l-1.421875 -3.828125q5.21875 -4.6875 6.359375 -8.484375l-1.390625 0l0 3.03125l-3.65625 0l0 -6.5625l5.96875 0q0.390625 -1.546875 0.890625 -4.671875l3.59375 0.90625q1.171875 1.171875 -0.015625 1.875q-0.328125 1.3125 -0.484375 1.890625l9.171875 0l0 6.03125l-3.65625 0l0 -2.5l-6.4375 0q-0.6875 2.375 -1.28125 3.21875l0.953125 0l1.765625 -4.078125l3.125 0.671875q2.34375 0.921875 0.015625 1.890625l-0.9375 1.515625zm-24.3125 -4.671875l0 -3.921875l12.640625 0l0 3.921875l-4.671875 0q-0.234375 3.5625 -1.3125 6.125l4.796875 0l0 17.140625l-3.65625 0l0 -2.109375l-2.03125 0l0 3.4375l-3.65625 0l0.28125 -11.0625q0.203125 0.203125 -1.328125 1.953125l-2.59375 -3.390625q4.859375 -5.4375 5.546875 -12.09375l-4.015625 0zm17.671875 13.34375l0 1.78125l3.09375 0l0 -1.78125l-3.09375 0zm0 -5.15625l0 1.640625l3.09375 0l0 -1.640625l-3.09375 0zm0 10.453125l0 1.90625l3.09375 0l0 -1.90625l-3.09375 0zm-11.90625 -9.0l0 7.984375l2.03125 0l0 -7.984375l-2.03125 0zm38.421875 -0.90625q5.296875 -1.421875 6.296875 -4.28125l-3.625 -1.46875l1.46875 -3.53125l2.9375 1.09375l0.125 -1.484375l-5.5 0l0 -3.921875l17.296875 0l-0.28125 12.09375q-0.15625 4.0 -3.484375 4.0l-3.65625 0l-0.421875 -3.921875l3.546875 0q0.09375 0 0.09375 -0.109375l0.25 -8.140625l-3.796875 0l-0.28125 3.140625l3.359375 1.8125l-1.828125 3.65625l-2.5625 -1.421875q-1.5625 4.46875 -8.34375 6.46875l-1.59375 -3.984375zm17.28125 14.671875q-1.234375 -4.625 -3.953125 -8.125l3.703125 -1.640625q3.34375 4.109375 4.328125 8.015625l-4.078125 1.75zm-16.546875 -10.0l0 11.578125l-3.65625 0l0 -0.921875l-3.09375 0l0 1.453125l-3.65625 0l0 -12.109375l10.40625 0zm-0.53125 9.640625q1.109375 -3.90625 1.421875 -8.78125l3.484375 0.34375q1.28125 0.609375 0.234375 1.640625q-0.109375 4.0625 -1.421875 7.84375l-3.71875 -1.046875zm9.328125 -14.15625q2.390625 1.515625 4.703125 5.203125l-3.796875 2.1875q-1.203125 -2.4375 -3.953125 -5.34375l3.046875 -2.046875zm-18.671875 -14.265625l9.34375 0l0 3.90625l-9.34375 0l0 -3.90625zm-1.71875 4.484375l12.78125 0l0 3.921875l-12.78125 0l0 -3.921875zm1.71875 4.90625l9.34375 0l0 3.90625l-9.34375 0l0 -3.90625zm0 4.484375l9.34375 0l0 3.921875l-9.34375 0l0 -3.921875zm3.125 8.421875l0 3.625l3.09375 0l0 -3.625l-3.09375 0zm14.296875 -3.921875q2.859375 0.390625 0.78125 1.859375l0 5.859375q0 0.21875 0.09375 0.21875l2.90625 0q0.203125 0 0.21875 -0.1875l0.375 -2.890625l4.0625 1.015625l-0.65625 3.4375q-0.515625 2.546875 -3.078125 2.546875l-5.015625 0q-2.953125 0 -2.953125 -3.078125l0 -8.78125l3.265625 0z" fill-rule="nonzero"/><path fill="#000000" fill-opacity="0.0" d="m479.12665 481.5208l20.818878 0l0 33.19684l-20.818878 0z" fill-rule="evenodd"/><path fill="#ef6b48" d="m482.64578 493.46826q0.109375 -2.9375 1.921875 -4.515625q1.8125 -1.59375 4.90625 -1.59375q2.046875 0 3.5 0.71875q1.46875 0.703125 2.21875 1.9375q0.765625 1.234375 0.765625 2.765625q0 1.8125 -0.90625 2.953125q-0.90625 1.125 -2.109375 1.53125l0 0.109375q1.5625 0.53125 2.46875 1.734375q0.90625 1.203125 0.90625 3.09375q0 1.6875 -0.78125 3.0q-0.78125 1.296875 -2.28125 2.046875q-1.484375 0.734375 -3.546875 0.734375q-3.28125 0 -5.234375 -1.609375q-1.953125 -1.625 -2.0625 -4.890625l4.53125 0q0.03125 1.203125 0.6875 1.90625q0.65625 0.703125 1.921875 0.703125q1.0625 0 1.65625 -0.609375q0.59375 -0.625 0.59375 -1.640625q0 -1.3125 -0.84375 -1.890625q-0.828125 -0.59375 -2.671875 -0.59375l-0.875 0l0 -3.8125l0.875 0q1.40625 0 2.265625 -0.46875q0.859375 -0.484375 0.859375 -1.71875q0 -0.984375 -0.546875 -1.53125q-0.546875 -0.546875 -1.5 -0.546875q-1.046875 0 -1.5625 0.625q-0.5 0.625 -0.578125 1.5625l-4.578125 0z" fill-rule="nonzero"/><path fill="#000000" fill-opacity="0.0" d="m512.023 475.79468l191.90552 0l0 41.039368l-191.90552 0z" fill-rule="evenodd"/><path fill="#ffffff" d="m589.39764 491.11917q-0.265625 0.515625 -0.53125 0.40625q1.65625 -0.09375 5.078125 0.515625q1.0625 -0.875 1.09375 -0.921875l-5.640625 0zm0.375 3.265625q-0.390625 -0.109375 -2.96875 -0.328125q-0.078125 0.125 -1.296875 1.15625l-3.296875 -1.5625q3.0625 -3.046875 3.28125 -2.828125l-4.5 0.296875l0 -3.53125l6.5 0q0.25 -0.265625 1.25 -1.890625l2.84375 0.328125q1.734375 1.078125 0.015625 1.765625q-0.203125 0.390625 -0.5625 0.1875l11.734375 -0.390625l0 3.53125l-3.671875 0q-0.546875 1.296875 -1.140625 1.828125q2.703125 0.625 7.875 2.390625l-2.328125 3.203125q-6.015625 -2.4375 -8.65625 -3.0q-3.359375 2.828125 -14.265625 3.265625l-1.71875 -3.875q8.390625 0.46875 10.90625 -0.546875zm4.140625 3.921875l13.09375 0l0 3.515625l-10.921875 0q3.859375 2.734375 11.921875 3.734375l-1.359375 4.484375q-8.875 -2.1875 -12.734375 -5.328125l0 6.640625l-4.0625 0l0 -6.53125q-3.171875 2.875 -12.3125 5.921875l-1.375 -4.328125q8.125 -1.71875 11.640625 -4.59375l-10.90625 0l0 -3.515625l12.953125 0l0 -1.859375l3.265625 0q2.875 0.375 0.796875 1.859375l0 0zm0 -15.484375l12.828125 0l0 7.09375l-4.0625 0l0 -3.5625l-21.59375 0l0 3.5625l-4.0625 0l0 -7.09375l12.828125 0l0 -2.90625l3.265625 0q2.875 0.375 0.796875 1.859375l0 1.046875zm39.4375 20.875q-4.796875 -5.25 -7.390625 -7.5625q-1.484375 4.640625 -7.953125 8.84375l-2.671875 -3.8125q7.71875 -4.546875 7.71875 -12.171875l-6.796875 0l0 21.296875l-4.453125 0l0 -25.21875l11.375 0l0 -4.625l3.703125 0q3.03125 0.609375 0.75 2.140625l0 2.484375l11.90625 0l0 21.609375q0 3.34375 -3.21875 3.34375l-3.765625 0l-0.78125 -4.3125l3.484375 0q0 0.171875 -0.171875 0.171875l0 -16.890625l-7.578125 0q0 1.359375 -0.328125 2.9375q4.828125 3.21875 8.96875 7.671875l-2.796875 4.09375z" fill-rule="nonzero"/></g></svg>